M48
;DRILL file {Pcbnew (2013-11-08 BZR 4448)-product} date 2013-12-08T10:58:18 CET
;FORMAT={-:-/ absolute / metric / decimal}
FMAT,2
METRIC,TZ
T1C0.305
T2C0.650
T3C0.701
T4C1.001
T5C3.000
%
G90
G05
M71
T1
X62.8Y-96.8
X65.7Y-66.2
X65.7Y-83.2
X65.7Y-101.8
X65.75Y-91.7
X65.9Y-63.2
X66.2Y-64.1
X66.4Y-84.8
X66.5Y-85.95
X66.8Y-69.8
X67.Y-84.
X67.5Y-65.3
X67.5Y-76.9
X67.5Y-100.8
X67.7Y-80.2
X68.2Y-76.
X68.3Y-62.15
X68.4Y-84.35
X68.6Y-87.1
X68.85Y-63.8
X68.9Y-68.8
X70.4Y-83.
X70.8Y-91.9
X71.15Y-83.65
X71.2Y-92.8
X71.65Y-75.25
X71.7Y-97.4
X72.05Y-84.5
X72.35Y-62.4
X73.Y-73.15
X73.1Y-65.6
X73.25Y-91.7
X73.9Y-77.2
X74.Y-96.9
X75.Y-76.1
X75.1Y-83.5
X75.5Y-75.4
X76.35Y-75.15
X77.25Y-94.
X77.25Y-95.
X77.25Y-96.
X77.35Y-78.95
X78.Y-80.4
X78.Y-92.5
X78.Y-93.5
X78.Y-94.5
X78.Y-95.5
X78.Y-96.5
X78.Y-97.5
X79.Y-91.5
X79.Y-92.5
X79.Y-93.5
X79.Y-94.5
X79.Y-95.5
X79.Y-97.5
X79.Y-98.5
X79.05Y-96.55
X79.5Y-84.5
X79.55Y-75.2
X79.7Y-88.9
X79.85Y-72.15
X80.Y-90.4
X80.2Y-75.8
X80.2Y-83.8
X80.65Y-71.75
X80.8Y-83.2
X80.9Y-104.45
X81.Y-90.4
X81.Y-91.2
X81.35Y-105.2
X81.7Y-82.3
X81.8Y-104.3
X81.95Y-71.05
X82.1Y-74.1
X82.5Y-81.5
X83.3Y-80.8
X84.7Y-63.2
X85.2Y-87.7
X85.4Y-71.1
X85.4Y-106.8
X85.45Y-105.9
X85.8Y-86.2
X86.1Y-87.6
X86.9Y-70.5
X88.451Y-87.6
X89.Y-86.8
X89.Y-87.6
X89.5Y-82.2
X92.1Y-65.
X92.1Y-105.75
X92.3Y-86.8
X92.4Y-101.5
X92.9Y-91.25
X92.9Y-105.2
X93.Y-102.
X93.7Y-105.4
X94.Y-82.8
X94.Y-86.
X94.9Y-90.3
X95.Y-88.8
X95.05Y-102.95
X95.1Y-65.4
X95.1Y-104.35
X95.2Y-67.5
X95.4Y-89.6
X95.4Y-103.6
X95.5Y-62.2
X97.1Y-87.2
X97.25Y-91.5
X97.25Y-92.5
X97.25Y-93.5
X97.25Y-98.5
X98.Y-71.5
X98.25Y-91.5
X98.25Y-92.5
X98.25Y-93.5
X98.25Y-94.5
X98.25Y-95.5
X98.25Y-96.5
X98.25Y-97.5
X98.25Y-98.5
X98.9Y-69.2
X98.9Y-76.5
X99.25Y-98.75
X100.6Y-96.5
X100.6Y-97.4
X100.9Y-78.5
X101.4Y-103.6
X102.2Y-68.7
X102.2Y-69.5
X102.3Y-102.7
X102.8Y-100.8
X103.1Y-69.5
X103.6Y-96.6
X103.6Y-99.
X103.9Y-70.7
X103.9Y-71.7
X105.Y-87.8
X105.6Y-88.5
X105.7Y-71.2
X107.Y-69.9
X107.5Y-103.2
T4
X61.53Y-98.32
X61.53Y-100.86
X61.53Y-103.4
X61.53Y-105.94
X61.53Y-108.48
X61.595Y-71.755
X61.595Y-74.295
X61.595Y-76.835
X61.595Y-79.375
X61.595Y-81.915
X61.595Y-84.455
X61.595Y-86.995
X61.595Y-89.535
X61.595Y-92.075
X64.07Y-98.32
X64.07Y-100.86
X64.07Y-103.4
X64.07Y-105.94
X64.07Y-108.48
X77.978Y-65.024
X77.978Y-67.564
X80.518Y-65.024
X80.518Y-67.564
X80.73Y-108.4
X83.058Y-65.024
X83.058Y-67.564
X83.27Y-108.4
X85.598Y-65.024
X85.598Y-67.564
X88.26Y-108.4
X90.8Y-108.4
X93.34Y-108.4
X98.32Y-105.93
X98.32Y-108.47
X100.86Y-105.93
X100.86Y-108.47
X103.4Y-105.93
X103.4Y-108.47
X105.93Y-79.46
X105.93Y-82.
X105.93Y-84.54
X105.93Y-90.12
X105.93Y-92.66
X105.93Y-95.2
X105.93Y-97.74
X105.93Y-100.28
X105.94Y-105.93
X105.94Y-108.47
X108.47Y-79.46
X108.47Y-82.
X108.47Y-84.54
X108.47Y-90.12
X108.47Y-92.66
X108.47Y-95.2
X108.47Y-97.74
X108.47Y-100.28
X108.48Y-105.93
X108.48Y-108.47
T5
X77.501Y-102.1
X98.5Y-101.1
T2
X64.825Y-62.344G85X64.426Y-62.344
G05
X64.825Y-67.196G85X64.426Y-67.196
G05
T3
X61.844Y-62.045G85X61.346Y-62.045
G05
X61.844Y-67.495G85X61.346Y-67.495
G05
T4
X70.95Y-99.349G85X73.45Y-99.349
G05
X71.201Y-105.351G85X73.199Y-105.351
G05
T0
M30
