%FSLAX34Y34*%
G04 Gerber Fmt 3.4, Leading zero omitted, Abs format*
G04 (created by PCBNEW (2013-11-08 BZR 4448)-product) date 2013-12-08T10:58:15 CET*
%MOIN*%
G01*
G70*
G90*
G04 APERTURE LIST*
%ADD10C,0.005906*%
%ADD11C,0.118110*%
%ADD12R,0.055100X0.078700*%
%ADD13R,0.096500X0.051200*%
%ADD14C,0.009800*%
%ADD15R,0.030000X0.020000*%
%ADD16R,0.031500X0.039400*%
%ADD17R,0.060000X0.086600*%
%ADD18O,0.060000X0.086600*%
%ADD19R,0.078700X0.060000*%
%ADD20O,0.078700X0.060000*%
%ADD21R,0.060000X0.078700*%
%ADD22O,0.060000X0.078700*%
%ADD23R,0.086600X0.060000*%
%ADD24O,0.086600X0.060000*%
%ADD25R,0.051200X0.059000*%
%ADD26R,0.059000X0.051200*%
%ADD27C,0.157480*%
%ADD28O,0.157500X0.078700*%
%ADD29O,0.177200X0.078700*%
%ADD30C,0.025000*%
%ADD31C,0.030000*%
%ADD32C,0.008000*%
%ADD33C,0.020000*%
%ADD34C,0.010000*%
G04 APERTURE END LIST*
G54D10*
X42913Y-43307D02*
G75*
G03X43307Y-42913I0J393D01*
G74*
G01*
X23622Y-42913D02*
G75*
G03X24015Y-43307I393J0D01*
G74*
G01*
X24015Y-23622D02*
G75*
G03X23622Y-24015I0J-393D01*
G74*
G01*
X43307Y-24015D02*
G75*
G03X42913Y-23622I-393J0D01*
G74*
G01*
X23622Y-42913D02*
X23622Y-24015D01*
X42913Y-43307D02*
X24015Y-43307D01*
X43307Y-24015D02*
X43307Y-42913D01*
X24015Y-23622D02*
X42913Y-23622D01*
G54D11*
X38779Y-39803D03*
G54D12*
X25443Y-24358D03*
X25443Y-26642D03*
G54D13*
X24309Y-24427D03*
X24309Y-26573D03*
G54D10*
G36*
X27884Y-26841D02*
X28552Y-27509D01*
X27856Y-28205D01*
X27188Y-27537D01*
X27884Y-26841D01*
X27884Y-26841D01*
G37*
G36*
X26631Y-28093D02*
X27299Y-28762D01*
X26603Y-29458D01*
X25935Y-28789D01*
X26631Y-28093D01*
X26631Y-28093D01*
G37*
G36*
X33100Y-31793D02*
X33524Y-32217D01*
X33455Y-32287D01*
X33031Y-31862D01*
X33100Y-31793D01*
X33100Y-31793D01*
G37*
G54D14*
X33315Y-32357D02*
X32961Y-32002D01*
X33176Y-32496D02*
X32821Y-32141D01*
X33037Y-32635D02*
X32682Y-32280D01*
X32898Y-32775D02*
X32543Y-32420D01*
X32759Y-32913D02*
X32404Y-32558D01*
X32620Y-33053D02*
X32265Y-32698D01*
X32480Y-33192D02*
X32125Y-32837D01*
X32341Y-33331D02*
X31986Y-32976D01*
X32202Y-33470D02*
X31847Y-33115D01*
X32063Y-33610D02*
X31708Y-33255D01*
X31924Y-33748D02*
X31569Y-33393D01*
X31785Y-33888D02*
X31430Y-33533D01*
X31645Y-34027D02*
X31290Y-33672D01*
X31506Y-34166D02*
X31151Y-33811D01*
X31367Y-34306D02*
X31012Y-33951D01*
X30141Y-33995D02*
X29786Y-34350D01*
X30002Y-33856D02*
X29647Y-34211D01*
X29863Y-33716D02*
X29508Y-34071D01*
X29723Y-33577D02*
X29368Y-33932D01*
X29584Y-33438D02*
X29229Y-33793D01*
X29446Y-33299D02*
X29091Y-33654D01*
X29306Y-33160D02*
X28951Y-33515D01*
X29167Y-33021D02*
X28812Y-33376D01*
X29028Y-32881D02*
X28673Y-33236D01*
X28888Y-32742D02*
X28533Y-33097D01*
X28749Y-32603D02*
X28394Y-32958D01*
X28610Y-32464D02*
X28255Y-32819D01*
X28471Y-32325D02*
X28116Y-32680D01*
X28332Y-32186D02*
X27977Y-32541D01*
X28193Y-32046D02*
X27838Y-32401D01*
X28053Y-31907D02*
X27698Y-32262D01*
X28053Y-30992D02*
X27698Y-30637D01*
X28193Y-30853D02*
X27838Y-30498D01*
X28332Y-30713D02*
X27977Y-30358D01*
X28471Y-30574D02*
X28116Y-30219D01*
X28610Y-30435D02*
X28255Y-30080D01*
X28749Y-30296D02*
X28394Y-29941D01*
X28888Y-30157D02*
X28533Y-29802D01*
X29028Y-30018D02*
X28673Y-29663D01*
X29167Y-29878D02*
X28812Y-29523D01*
X29306Y-29739D02*
X28951Y-29384D01*
X29446Y-29600D02*
X29091Y-29245D01*
X29584Y-29461D02*
X29229Y-29106D01*
X29723Y-29322D02*
X29368Y-28967D01*
X29863Y-29183D02*
X29508Y-28828D01*
X30002Y-29043D02*
X29647Y-28688D01*
X30141Y-28904D02*
X29786Y-28549D01*
X31367Y-28593D02*
X31012Y-28948D01*
X31506Y-28733D02*
X31151Y-29088D01*
X31785Y-29011D02*
X31430Y-29366D01*
X31650Y-28867D02*
X31295Y-29222D01*
X31924Y-29151D02*
X31569Y-29506D01*
X32063Y-29289D02*
X31708Y-29644D01*
X32202Y-29429D02*
X31847Y-29784D01*
X32341Y-29568D02*
X31986Y-29923D01*
X32480Y-29707D02*
X32125Y-30062D01*
X32620Y-29846D02*
X32265Y-30201D01*
X32757Y-29984D02*
X32402Y-30339D01*
X32896Y-30123D02*
X32541Y-30478D01*
X33035Y-30262D02*
X32681Y-30617D01*
X33175Y-30402D02*
X32820Y-30757D01*
X33313Y-30540D02*
X32958Y-30895D01*
X33453Y-30679D02*
X33098Y-31034D01*
G54D15*
X41261Y-27669D03*
X41261Y-28419D03*
X40261Y-27669D03*
X41261Y-28044D03*
X40261Y-28419D03*
G54D16*
X36062Y-32913D03*
X35687Y-33779D03*
X36437Y-33779D03*
G54D17*
X36748Y-42677D03*
G54D18*
X35748Y-42677D03*
X34748Y-42677D03*
G54D19*
X24126Y-38708D03*
G54D20*
X25322Y-38708D03*
X24126Y-39708D03*
X25322Y-39708D03*
X24126Y-40708D03*
X25322Y-40708D03*
X24126Y-41708D03*
X25322Y-41708D03*
X24126Y-42708D03*
X25322Y-42708D03*
G54D21*
X38708Y-42802D03*
G54D22*
X38708Y-41606D03*
X39708Y-42802D03*
X39708Y-41606D03*
X40708Y-42802D03*
X40708Y-41606D03*
X41708Y-42802D03*
X41708Y-41606D03*
X42708Y-42802D03*
X42708Y-41606D03*
G54D19*
X42802Y-39480D03*
G54D20*
X41606Y-39480D03*
X42802Y-38480D03*
X41606Y-38480D03*
X42802Y-37480D03*
X41606Y-37480D03*
X42802Y-36480D03*
X41606Y-36480D03*
X42802Y-35480D03*
X41606Y-35480D03*
G54D17*
X31783Y-42677D03*
G54D18*
X32783Y-42677D03*
G54D21*
X30700Y-26698D03*
G54D22*
X30700Y-25502D03*
X31700Y-26698D03*
X31700Y-25502D03*
X32700Y-26698D03*
X32700Y-25502D03*
X33700Y-26698D03*
X33700Y-25502D03*
G54D23*
X24250Y-36250D03*
G54D24*
X24250Y-35250D03*
X24250Y-34250D03*
X24250Y-33250D03*
X24250Y-32250D03*
X24250Y-31250D03*
X24250Y-30250D03*
X24250Y-29250D03*
X24250Y-28250D03*
G54D19*
X42802Y-33283D03*
G54D20*
X41606Y-33283D03*
X42802Y-32283D03*
X41606Y-32283D03*
X42802Y-31283D03*
X41606Y-31283D03*
G54D10*
G36*
X28171Y-28222D02*
X28589Y-28639D01*
X28226Y-29001D01*
X27809Y-28584D01*
X28171Y-28222D01*
X28171Y-28222D01*
G37*
G36*
X28702Y-27691D02*
X29119Y-28108D01*
X28757Y-28470D01*
X28340Y-28053D01*
X28702Y-27691D01*
X28702Y-27691D01*
G37*
G36*
X27773Y-29455D02*
X27355Y-29037D01*
X27717Y-28675D01*
X28135Y-29093D01*
X27773Y-29455D01*
X27773Y-29455D01*
G37*
G36*
X27242Y-29985D02*
X26825Y-29568D01*
X27187Y-29206D01*
X27604Y-29623D01*
X27242Y-29985D01*
X27242Y-29985D01*
G37*
G36*
X27729Y-33816D02*
X28147Y-33399D01*
X28509Y-33761D01*
X28091Y-34178D01*
X27729Y-33816D01*
X27729Y-33816D01*
G37*
G36*
X27199Y-33286D02*
X27616Y-32868D01*
X27978Y-33230D01*
X27561Y-33648D01*
X27199Y-33286D01*
X27199Y-33286D01*
G37*
G36*
X32670Y-29190D02*
X33088Y-28773D01*
X33450Y-29135D01*
X33032Y-29552D01*
X32670Y-29190D01*
X32670Y-29190D01*
G37*
G36*
X32140Y-28660D02*
X32557Y-28242D01*
X32919Y-28604D01*
X32502Y-29022D01*
X32140Y-28660D01*
X32140Y-28660D01*
G37*
G36*
X27237Y-34308D02*
X27654Y-33891D01*
X28016Y-34253D01*
X27599Y-34670D01*
X27237Y-34308D01*
X27237Y-34308D01*
G37*
G36*
X26707Y-33778D02*
X27124Y-33360D01*
X27486Y-33723D01*
X27069Y-34140D01*
X26707Y-33778D01*
X26707Y-33778D01*
G37*
G36*
X33182Y-28678D02*
X33599Y-28261D01*
X33961Y-28623D01*
X33544Y-29040D01*
X33182Y-28678D01*
X33182Y-28678D01*
G37*
G36*
X32652Y-28148D02*
X33069Y-27731D01*
X33431Y-28093D01*
X33014Y-28510D01*
X32652Y-28148D01*
X32652Y-28148D01*
G37*
G54D25*
X39686Y-27694D03*
X38936Y-27694D03*
X41336Y-26994D03*
X42086Y-26994D03*
G54D10*
G36*
X34116Y-33143D02*
X34533Y-33560D01*
X34171Y-33922D01*
X33754Y-33505D01*
X34116Y-33143D01*
X34116Y-33143D01*
G37*
G36*
X34647Y-32612D02*
X35064Y-33030D01*
X34702Y-33392D01*
X34284Y-32974D01*
X34647Y-32612D01*
X34647Y-32612D01*
G37*
G54D25*
X32934Y-34448D03*
X32184Y-34448D03*
X39686Y-28594D03*
X38936Y-28594D03*
X28367Y-25866D03*
X27617Y-25866D03*
X28367Y-25118D03*
X27617Y-25118D03*
G54D10*
G36*
X29741Y-35636D02*
X29324Y-35219D01*
X29686Y-34857D01*
X30103Y-35274D01*
X29741Y-35636D01*
X29741Y-35636D01*
G37*
G36*
X29211Y-36166D02*
X28794Y-35749D01*
X29156Y-35387D01*
X29573Y-35804D01*
X29211Y-36166D01*
X29211Y-36166D01*
G37*
G54D26*
X33543Y-40530D03*
X33543Y-41280D03*
X36062Y-40451D03*
X36062Y-41201D03*
G54D25*
X35018Y-25472D03*
X35768Y-25472D03*
G54D27*
X30512Y-40196D03*
G54D28*
X28425Y-41476D03*
G54D29*
X28425Y-39113D03*
G54D30*
X36574Y-35925D03*
X37007Y-33858D03*
X36377Y-39960D03*
X36889Y-41496D03*
X36614Y-40157D03*
X28228Y-38346D03*
X36574Y-41417D03*
X36338Y-34173D03*
X39724Y-30905D03*
X34212Y-27755D03*
X26574Y-30275D03*
X26653Y-31574D03*
X42322Y-40629D03*
X41338Y-34566D03*
X28838Y-36102D03*
X28779Y-25826D03*
X36259Y-25590D03*
X37480Y-26574D03*
X40236Y-27362D03*
X40590Y-27362D03*
X40236Y-27047D03*
X32795Y-31811D03*
X31574Y-32992D03*
X29527Y-29960D03*
X28366Y-33267D03*
X31574Y-29842D03*
X39606Y-37992D03*
X26574Y-39685D03*
X40275Y-40433D03*
X40787Y-38976D03*
X40472Y-39685D03*
X26377Y-33070D03*
X36259Y-41633D03*
X26141Y-33385D03*
X29133Y-38149D03*
X33641Y-41692D03*
X27716Y-32677D03*
X26929Y-33208D03*
X26181Y-33838D03*
X25866Y-32755D03*
X34823Y-34488D03*
X35039Y-34488D03*
X35039Y-34173D03*
X32165Y-32401D03*
X33622Y-42047D03*
X33897Y-34488D03*
X31811Y-32755D03*
X24724Y-38110D03*
X39921Y-40787D03*
X40787Y-38031D03*
X33346Y-24881D03*
X28208Y-29625D03*
X27106Y-25118D03*
X30059Y-29586D03*
X29724Y-29685D03*
X32263Y-27972D03*
X31318Y-29606D03*
X31437Y-28405D03*
X31751Y-28248D03*
X28031Y-36535D03*
X27874Y-36181D03*
X25944Y-24881D03*
X26062Y-25236D03*
X26574Y-25708D03*
X29566Y-32874D03*
X33543Y-34527D03*
X33779Y-33937D03*
X25866Y-40078D03*
X39606Y-38346D03*
X41574Y-34842D03*
X38937Y-30118D03*
X31850Y-41122D03*
X31889Y-35590D03*
X31889Y-35905D03*
X32204Y-41062D03*
X26889Y-24468D03*
X28740Y-28799D03*
X31377Y-35000D03*
X31496Y-35590D03*
X31102Y-36023D03*
X31102Y-36417D03*
X31102Y-36811D03*
X31102Y-37598D03*
X31102Y-37204D03*
X30708Y-37598D03*
X30708Y-36811D03*
X30708Y-36417D03*
X30708Y-37204D03*
X30708Y-37992D03*
X33622Y-27992D03*
X25885Y-36102D03*
X27007Y-34291D03*
X30708Y-31653D03*
X30452Y-31082D03*
X25866Y-26062D03*
X26299Y-27480D03*
X27125Y-27086D03*
X31102Y-38779D03*
X30708Y-38385D03*
X31102Y-38385D03*
X32027Y-41417D03*
X37440Y-41082D03*
X39074Y-38877D03*
X38681Y-38779D03*
X38681Y-36023D03*
X37559Y-35275D03*
X38228Y-34330D03*
X35236Y-32362D03*
X37007Y-32598D03*
X37598Y-24488D03*
X37440Y-25748D03*
X38937Y-27244D03*
X40905Y-27834D03*
X38582Y-28149D03*
X40905Y-28228D03*
X41614Y-28031D03*
X42125Y-27519D03*
X38287Y-36023D03*
X38681Y-36417D03*
X38287Y-36417D03*
X38681Y-36811D03*
X38287Y-36811D03*
X38681Y-38385D03*
X38287Y-38779D03*
X38681Y-37992D03*
X38681Y-37204D03*
X38681Y-37598D03*
X30413Y-37401D03*
X30413Y-37795D03*
X30413Y-37007D03*
X31122Y-38011D03*
X37421Y-40531D03*
X37559Y-40787D03*
X37362Y-35551D03*
X37401Y-34960D03*
X26850Y-29921D03*
X32480Y-32086D03*
X31299Y-33267D03*
X29094Y-30393D03*
X28011Y-32933D03*
X32322Y-29173D03*
X28484Y-24566D03*
G54D31*
X36338Y-34173D02*
X36437Y-34073D01*
X36437Y-34073D02*
X36437Y-33779D01*
G54D32*
X29163Y-35776D02*
X28838Y-36102D01*
X29163Y-35776D02*
X29183Y-35776D01*
X28406Y-25826D02*
X28779Y-25826D01*
X28406Y-25826D02*
X28367Y-25866D01*
X35886Y-25590D02*
X35768Y-25472D01*
X36259Y-25590D02*
X35886Y-25590D01*
G54D33*
X40236Y-27362D02*
X40590Y-27362D01*
X40236Y-27047D02*
X40236Y-27362D01*
X40236Y-27643D02*
X40236Y-27362D01*
X40236Y-27643D02*
X40261Y-27669D01*
X39686Y-27694D02*
X39711Y-27669D01*
X39711Y-27669D02*
X40261Y-27669D01*
G54D34*
X32795Y-31836D02*
X32795Y-31811D01*
X33138Y-32179D02*
X32795Y-31836D01*
X31574Y-33122D02*
X31574Y-32992D01*
X31885Y-33432D02*
X31574Y-33122D01*
X29129Y-29562D02*
X29527Y-29960D01*
X29129Y-29562D02*
X29129Y-29562D01*
X28366Y-33265D02*
X28366Y-33267D01*
X28711Y-32920D02*
X28366Y-33265D01*
X31885Y-29467D02*
X31574Y-29777D01*
X31574Y-29777D02*
X31574Y-29842D01*
G54D32*
X29713Y-35246D02*
X30009Y-35541D01*
X30009Y-35541D02*
X30000Y-35551D01*
X31468Y-33849D02*
X31201Y-33582D01*
X26299Y-40633D02*
X25224Y-41708D01*
X26299Y-39251D02*
X26299Y-40633D01*
X31023Y-34527D02*
X30000Y-35551D01*
X30000Y-35551D02*
X26299Y-39251D01*
X31023Y-34251D02*
X31023Y-34527D01*
X30826Y-34055D02*
X31023Y-34251D01*
X30826Y-33818D02*
X30826Y-34055D01*
X31062Y-33582D02*
X30826Y-33818D01*
X31201Y-33582D02*
X31062Y-33582D01*
X33400Y-32997D02*
X34799Y-31597D01*
X34799Y-31597D02*
X37306Y-31597D01*
X39468Y-37145D02*
X39606Y-37283D01*
X37306Y-31597D02*
X39024Y-33315D01*
X39024Y-33315D02*
X39024Y-34220D01*
X39024Y-34220D02*
X39462Y-34658D01*
X39462Y-34658D02*
X39462Y-37139D01*
X39462Y-37139D02*
X39468Y-37145D01*
X39606Y-37283D02*
X39606Y-37992D01*
X32582Y-32736D02*
X32842Y-32997D01*
X32842Y-32997D02*
X33400Y-32997D01*
X33022Y-29997D02*
X37970Y-29997D01*
X32719Y-30300D02*
X33022Y-29997D01*
X37970Y-29997D02*
X40624Y-32652D01*
X40624Y-32652D02*
X40624Y-33557D01*
X40624Y-33557D02*
X41062Y-33995D01*
X41062Y-33995D02*
X41062Y-35838D01*
X41062Y-35838D02*
X41704Y-36480D01*
G54D33*
X40261Y-28419D02*
X39861Y-28419D01*
X39861Y-28419D02*
X39686Y-28594D01*
G54D32*
X31189Y-34128D02*
X31296Y-34234D01*
X26574Y-39206D02*
X26574Y-39685D01*
X31296Y-34485D02*
X26574Y-39206D01*
X31296Y-34234D02*
X31296Y-34485D01*
X33333Y-32837D02*
X34733Y-31437D01*
X34733Y-31437D02*
X37372Y-31437D01*
X39871Y-37322D02*
X39871Y-38907D01*
X37372Y-31437D02*
X39184Y-33249D01*
X39184Y-33249D02*
X39184Y-34154D01*
X39184Y-34154D02*
X39622Y-34592D01*
X39622Y-34592D02*
X39622Y-37073D01*
X39622Y-37073D02*
X39871Y-37322D01*
X39871Y-37322D02*
X39871Y-37322D01*
X39871Y-38907D02*
X40196Y-39232D01*
X40196Y-39232D02*
X40196Y-39805D01*
X40196Y-39805D02*
X40275Y-39884D01*
X40275Y-39884D02*
X40275Y-40433D01*
X32720Y-32597D02*
X32960Y-32837D01*
X32960Y-32837D02*
X33333Y-32837D01*
X32057Y-30738D02*
X32859Y-31540D01*
X40351Y-38540D02*
X40787Y-38976D01*
X40351Y-37123D02*
X40351Y-38540D01*
X40102Y-36874D02*
X40351Y-37123D01*
X40102Y-34393D02*
X40102Y-36874D01*
X39664Y-33955D02*
X40102Y-34393D01*
X39664Y-33050D02*
X39664Y-33955D01*
X37571Y-30957D02*
X39664Y-33050D01*
X33872Y-30957D02*
X37571Y-30957D01*
X33289Y-31540D02*
X33872Y-30957D01*
X32859Y-31540D02*
X33289Y-31540D01*
X32303Y-29885D02*
X32044Y-30143D01*
X32044Y-30725D02*
X32057Y-30738D01*
X32044Y-30143D02*
X32044Y-30725D01*
X31329Y-33989D02*
X31574Y-34234D01*
X31574Y-34432D02*
X27399Y-38608D01*
X31574Y-34234D02*
X31574Y-34432D01*
X27399Y-41104D02*
X25795Y-42708D01*
X25795Y-42708D02*
X25224Y-42708D01*
X27399Y-38608D02*
X27399Y-41104D01*
X39142Y-34791D02*
X39142Y-38276D01*
X40551Y-40511D02*
X40551Y-39763D01*
X40354Y-40708D02*
X40551Y-40511D01*
X40196Y-40708D02*
X40354Y-40708D01*
X40000Y-40511D02*
X40196Y-40708D01*
X40000Y-39261D02*
X40000Y-40511D01*
X39711Y-38973D02*
X40000Y-39261D01*
X39711Y-38845D02*
X39711Y-38973D01*
X39142Y-38276D02*
X39711Y-38845D01*
X40551Y-39763D02*
X40472Y-39685D01*
X40551Y-39763D02*
X40472Y-39685D01*
X32024Y-33293D02*
X32274Y-33543D01*
X32274Y-33543D02*
X33306Y-33543D01*
X33306Y-33543D02*
X34932Y-31917D01*
X34932Y-31917D02*
X37174Y-31917D01*
X37174Y-31917D02*
X38704Y-33448D01*
X38704Y-33448D02*
X38704Y-34353D01*
X38704Y-34353D02*
X39142Y-34791D01*
X32007Y-28582D02*
X33031Y-27559D01*
X38102Y-29677D02*
X40944Y-32519D01*
X35740Y-29677D02*
X38102Y-29677D01*
X33622Y-27559D02*
X35740Y-29677D01*
X33031Y-27559D02*
X33622Y-27559D01*
X40944Y-33425D02*
X41850Y-34330D01*
X40944Y-32519D02*
X40944Y-33425D01*
X41850Y-34330D02*
X41850Y-35334D01*
X41850Y-35334D02*
X41704Y-35480D01*
X32007Y-29067D02*
X32007Y-28582D01*
X31746Y-29328D02*
X32007Y-29067D01*
X27820Y-31412D02*
X26377Y-32854D01*
X26377Y-32854D02*
X26377Y-33070D01*
X36062Y-41201D02*
X36062Y-41437D01*
X36062Y-41437D02*
X36259Y-41633D01*
X28015Y-30675D02*
X28307Y-30967D01*
X28115Y-31412D02*
X27820Y-31412D01*
X28307Y-31220D02*
X28115Y-31412D01*
X28307Y-30967D02*
X28307Y-31220D01*
X33641Y-41692D02*
X33897Y-41948D01*
X33897Y-42125D02*
X33700Y-42322D01*
X33897Y-41948D02*
X33897Y-42125D01*
X33307Y-42322D02*
X32992Y-42007D01*
X33700Y-42322D02*
X33307Y-42322D01*
X27876Y-31129D02*
X26102Y-32903D01*
X26102Y-32903D02*
X26102Y-33346D01*
X26102Y-33346D02*
X26141Y-33385D01*
X29133Y-38149D02*
X29133Y-38543D01*
X29133Y-38543D02*
X29488Y-38897D01*
X29488Y-38897D02*
X29488Y-40590D01*
X29488Y-40590D02*
X30905Y-42007D01*
X30905Y-42007D02*
X32992Y-42007D01*
X33543Y-41594D02*
X33543Y-41280D01*
X33641Y-41692D02*
X33543Y-41594D01*
X27876Y-30815D02*
X27876Y-31129D01*
X26801Y-32204D02*
X26653Y-32204D01*
X27876Y-31129D02*
X26801Y-32204D01*
X27876Y-32084D02*
X27637Y-32323D01*
X27637Y-32598D02*
X27716Y-32677D01*
X27637Y-32323D02*
X27637Y-32598D01*
X28281Y-31732D02*
X27952Y-31732D01*
X27952Y-31732D02*
X26929Y-32755D01*
X26929Y-32755D02*
X26929Y-33208D01*
X28433Y-30257D02*
X28976Y-30800D01*
X28976Y-31037D02*
X28281Y-31732D01*
X28976Y-30800D02*
X28976Y-31037D01*
X27886Y-31572D02*
X26653Y-32805D01*
X26653Y-33366D02*
X26181Y-33838D01*
X26653Y-32805D02*
X26653Y-33366D01*
X28294Y-30397D02*
X28740Y-30843D01*
X28191Y-31572D02*
X27886Y-31572D01*
X28740Y-31023D02*
X28191Y-31572D01*
X28740Y-30843D02*
X28740Y-31023D01*
X28154Y-30536D02*
X27893Y-30275D01*
X25905Y-32716D02*
X25866Y-32755D01*
X25905Y-31761D02*
X25905Y-32716D01*
X27391Y-30275D02*
X25905Y-31761D01*
X27893Y-30275D02*
X27391Y-30275D01*
G54D31*
X34823Y-34508D02*
X34842Y-34527D01*
X34823Y-34488D02*
X34823Y-34508D01*
X35039Y-34488D02*
X34960Y-34409D01*
X34960Y-34409D02*
X35039Y-34488D01*
X35039Y-34488D02*
X35039Y-34330D01*
X35039Y-34330D02*
X35039Y-34330D01*
X35039Y-34330D02*
X34842Y-34527D01*
X35039Y-34173D02*
X35039Y-34330D01*
X34748Y-34622D02*
X34748Y-42677D01*
X34842Y-34527D02*
X34748Y-34622D01*
G54D32*
X32086Y-32798D02*
X32086Y-32480D01*
X32086Y-32480D02*
X32165Y-32401D01*
X32303Y-33014D02*
X32086Y-32798D01*
X33422Y-41847D02*
X31788Y-41847D01*
X31788Y-41847D02*
X31456Y-41515D01*
X31456Y-41515D02*
X31456Y-39763D01*
X31456Y-39763D02*
X30157Y-38464D01*
X33582Y-34921D02*
X32047Y-34921D01*
X31692Y-35275D02*
X31417Y-35275D01*
X32047Y-34921D02*
X31692Y-35275D01*
X33422Y-41847D02*
X33622Y-42047D01*
X30157Y-36535D02*
X30157Y-38464D01*
X31417Y-35275D02*
X30157Y-36535D01*
X33897Y-34606D02*
X33582Y-34921D01*
X33897Y-34488D02*
X33897Y-34606D01*
X31811Y-32801D02*
X31811Y-32755D01*
X32164Y-33154D02*
X31811Y-32801D01*
X28779Y-33740D02*
X25548Y-36970D01*
X24845Y-37989D02*
X24724Y-38110D01*
X25314Y-37989D02*
X24845Y-37989D01*
X25548Y-37755D02*
X25314Y-37989D01*
X25548Y-36970D02*
X25548Y-37755D01*
X29129Y-33337D02*
X28779Y-33687D01*
X27637Y-34881D02*
X27519Y-34881D01*
X28779Y-33739D02*
X28779Y-33740D01*
X28779Y-33740D02*
X27637Y-34881D01*
X28779Y-33687D02*
X28779Y-33739D01*
X38982Y-34881D02*
X38982Y-38343D01*
X39839Y-40706D02*
X39921Y-40787D01*
X39839Y-39327D02*
X39839Y-40706D01*
X39551Y-39039D02*
X39839Y-39327D01*
X39551Y-38911D02*
X39551Y-39039D01*
X38982Y-38343D02*
X39551Y-38911D01*
X31607Y-33710D02*
X31834Y-33937D01*
X38982Y-34857D02*
X38982Y-34881D01*
X38544Y-34419D02*
X38982Y-34857D01*
X38544Y-33514D02*
X38544Y-34419D01*
X37107Y-32077D02*
X38544Y-33514D01*
X34998Y-32077D02*
X37107Y-32077D01*
X33139Y-33937D02*
X34998Y-32077D01*
X31834Y-33937D02*
X33139Y-33937D01*
X40706Y-37014D02*
X40706Y-37950D01*
X40706Y-37950D02*
X40787Y-38031D01*
X32755Y-30984D02*
X32992Y-31220D01*
X40422Y-36731D02*
X40706Y-37014D01*
X40422Y-34260D02*
X40422Y-36731D01*
X39984Y-33822D02*
X40422Y-34260D01*
X39984Y-32917D02*
X39984Y-33822D01*
X37705Y-30637D02*
X39984Y-32917D01*
X33740Y-30637D02*
X37705Y-30637D01*
X33157Y-31220D02*
X33740Y-30637D01*
X32992Y-31220D02*
X33157Y-31220D01*
X32997Y-30579D02*
X32755Y-30821D01*
X32755Y-30821D02*
X32755Y-30984D01*
X29964Y-28726D02*
X29964Y-25291D01*
X29964Y-25291D02*
X30334Y-24921D01*
X32165Y-26134D02*
X31700Y-26600D01*
X30334Y-24921D02*
X31889Y-24921D01*
X31889Y-24921D02*
X32165Y-25196D01*
X32165Y-25196D02*
X32165Y-26134D01*
X30314Y-29842D02*
X30314Y-28455D01*
X31220Y-26079D02*
X31700Y-25600D01*
X31220Y-27549D02*
X31220Y-26079D01*
X30314Y-28455D02*
X31220Y-27549D01*
X29153Y-31082D02*
X29153Y-31086D01*
X29153Y-31086D02*
X29153Y-31082D01*
X29153Y-31003D02*
X29153Y-31086D01*
X30314Y-29842D02*
X29153Y-31003D01*
X33346Y-24881D02*
X34428Y-24881D01*
X34428Y-24881D02*
X35018Y-25472D01*
X28015Y-32224D02*
X29153Y-31086D01*
X29546Y-29144D02*
X29330Y-28929D01*
X29571Y-28498D02*
X29571Y-25457D01*
X29330Y-28740D02*
X29571Y-28498D01*
X29330Y-28929D02*
X29330Y-28740D01*
X29571Y-28321D02*
X29571Y-25457D01*
X32861Y-24761D02*
X33700Y-25600D01*
X29571Y-25457D02*
X30268Y-24761D01*
X30268Y-24761D02*
X32861Y-24761D01*
X29571Y-28321D02*
X29571Y-28188D01*
X27617Y-25118D02*
X27617Y-25866D01*
X28208Y-29625D02*
X27814Y-29625D01*
X25000Y-35500D02*
X24250Y-36250D01*
X25000Y-32440D02*
X25000Y-35500D01*
X27814Y-29625D02*
X25000Y-32440D01*
X28208Y-29755D02*
X28572Y-30119D01*
X28208Y-29625D02*
X28208Y-29755D01*
X27617Y-25118D02*
X27106Y-25118D01*
X25224Y-40708D02*
X25629Y-40708D01*
X26139Y-39137D02*
X26686Y-38590D01*
X26139Y-40199D02*
X26139Y-39137D01*
X25629Y-40708D02*
X26139Y-40199D01*
X29270Y-34309D02*
X26686Y-36893D01*
X29685Y-33894D02*
X29270Y-34309D01*
X26686Y-36893D02*
X26686Y-38590D01*
X32209Y-30664D02*
X32925Y-31380D01*
X40511Y-37046D02*
X40511Y-38110D01*
X40262Y-36798D02*
X40511Y-37046D01*
X40262Y-34327D02*
X40262Y-36798D01*
X39824Y-33889D02*
X40262Y-34327D01*
X39824Y-32983D02*
X39824Y-33889D01*
X37638Y-30797D02*
X39824Y-32983D01*
X33806Y-30797D02*
X37638Y-30797D01*
X33223Y-31380D02*
X33806Y-30797D01*
X32925Y-31380D02*
X33223Y-31380D01*
X40511Y-38110D02*
X40902Y-38501D01*
X41062Y-41350D02*
X40708Y-41704D01*
X41062Y-38897D02*
X41062Y-41350D01*
X40902Y-38737D02*
X41062Y-38897D01*
X40902Y-38501D02*
X40902Y-38737D01*
X32442Y-30024D02*
X32204Y-30262D01*
X32204Y-30659D02*
X32209Y-30664D01*
X32204Y-30262D02*
X32204Y-30659D01*
X33141Y-30157D02*
X37903Y-30157D01*
X41704Y-37334D02*
X41704Y-37480D01*
X40902Y-36532D02*
X41704Y-37334D01*
X40902Y-34062D02*
X40902Y-36532D01*
X40464Y-33624D02*
X40902Y-34062D01*
X40464Y-32718D02*
X40464Y-33624D01*
X37903Y-30157D02*
X40464Y-32718D01*
X32858Y-30440D02*
X33141Y-30157D01*
X29825Y-28866D02*
X30061Y-29102D01*
X30061Y-29102D02*
X30061Y-29584D01*
X30061Y-29584D02*
X30059Y-29586D01*
X29685Y-29005D02*
X29901Y-29221D01*
X29901Y-29221D02*
X29901Y-29389D01*
X29724Y-29566D02*
X29724Y-29685D01*
X29901Y-29389D02*
X29724Y-29566D01*
X26102Y-36643D02*
X25708Y-37037D01*
X24763Y-39169D02*
X24224Y-39708D01*
X24763Y-38503D02*
X24763Y-39169D01*
X25118Y-38149D02*
X24763Y-38503D01*
X25433Y-38149D02*
X25118Y-38149D01*
X25708Y-37874D02*
X25433Y-38149D01*
X25708Y-37037D02*
X25708Y-37874D01*
X29268Y-33477D02*
X26102Y-36643D01*
X33267Y-32677D02*
X34667Y-31277D01*
X34667Y-31277D02*
X37439Y-31277D01*
X32859Y-32458D02*
X33078Y-32677D01*
X39274Y-41276D02*
X39274Y-42177D01*
X39488Y-41062D02*
X39274Y-41276D01*
X40324Y-41062D02*
X39488Y-41062D01*
X40742Y-40644D02*
X40324Y-41062D01*
X40742Y-39551D02*
X40742Y-40644D01*
X40031Y-38840D02*
X40742Y-39551D01*
X40031Y-37256D02*
X40031Y-38840D01*
X39782Y-37007D02*
X40031Y-37256D01*
X39782Y-34526D02*
X39782Y-37007D01*
X39344Y-34087D02*
X39782Y-34526D01*
X39344Y-33183D02*
X39344Y-34087D01*
X37439Y-31277D02*
X39344Y-33183D01*
X39708Y-42611D02*
X39708Y-42704D01*
X39274Y-42177D02*
X39708Y-42611D01*
X33078Y-32677D02*
X33267Y-32677D01*
X33275Y-30857D02*
X33655Y-30477D01*
X41062Y-38661D02*
X41377Y-38976D01*
X41062Y-37942D02*
X41062Y-38661D01*
X40866Y-37745D02*
X41062Y-37942D01*
X40866Y-36948D02*
X40866Y-37745D01*
X40582Y-36665D02*
X40866Y-36948D01*
X40582Y-34194D02*
X40582Y-36665D01*
X40144Y-33756D02*
X40582Y-34194D01*
X40144Y-32851D02*
X40144Y-33756D01*
X37771Y-30477D02*
X40144Y-32851D01*
X33655Y-30477D02*
X37771Y-30477D01*
X42208Y-38976D02*
X42704Y-38480D01*
X41377Y-38976D02*
X42208Y-38976D01*
X26262Y-36760D02*
X26262Y-38501D01*
X24724Y-42208D02*
X24224Y-42708D01*
X24724Y-39448D02*
X24724Y-42208D01*
X25039Y-39133D02*
X24724Y-39448D01*
X25629Y-39133D02*
X25039Y-39133D01*
X26262Y-38501D02*
X25629Y-39133D01*
X29407Y-33615D02*
X26262Y-36760D01*
X33277Y-32040D02*
X34200Y-31117D01*
X34200Y-31117D02*
X37505Y-31117D01*
X40236Y-41850D02*
X40590Y-42204D01*
X40236Y-41377D02*
X40236Y-41850D01*
X40902Y-40711D02*
X40236Y-41377D01*
X40902Y-39485D02*
X40902Y-40711D01*
X40191Y-38774D02*
X40902Y-39485D01*
X40191Y-37189D02*
X40191Y-38774D01*
X39942Y-36940D02*
X40191Y-37189D01*
X39942Y-34459D02*
X39942Y-36940D01*
X39504Y-34021D02*
X39942Y-34459D01*
X39504Y-33116D02*
X39504Y-34021D01*
X37505Y-31117D02*
X39504Y-33116D01*
X42208Y-42204D02*
X42708Y-42704D01*
X40590Y-42204D02*
X42208Y-42204D01*
X33136Y-30718D02*
X33537Y-30317D01*
X41028Y-36884D02*
X41028Y-37682D01*
X40742Y-36599D02*
X41028Y-36884D01*
X40742Y-34128D02*
X40742Y-36599D01*
X40304Y-33690D02*
X40742Y-34128D01*
X40304Y-32784D02*
X40304Y-33690D01*
X37837Y-30317D02*
X40304Y-32784D01*
X33537Y-30317D02*
X37837Y-30317D01*
X41028Y-36929D02*
X41028Y-37682D01*
X42204Y-35980D02*
X42704Y-35480D01*
X41028Y-37682D02*
X41338Y-37992D01*
X41338Y-37992D02*
X42007Y-37992D01*
X42007Y-37992D02*
X42204Y-37795D01*
X42204Y-37795D02*
X42204Y-35980D01*
X41028Y-36929D02*
X41028Y-37204D01*
X30474Y-29908D02*
X30474Y-28521D01*
X31698Y-27298D02*
X32001Y-27298D01*
X30474Y-28521D02*
X31698Y-27298D01*
X29370Y-31013D02*
X29370Y-31148D01*
X30474Y-29908D02*
X29370Y-31013D01*
X29370Y-31148D02*
X29370Y-31141D01*
X29370Y-31141D02*
X29370Y-31148D01*
X32001Y-27298D02*
X32700Y-26600D01*
X28154Y-32363D02*
X29370Y-31148D01*
X30794Y-30039D02*
X30794Y-28653D01*
X31830Y-27618D02*
X32726Y-27618D01*
X30794Y-28653D02*
X31830Y-27618D01*
X28433Y-32642D02*
X29744Y-31331D01*
X29744Y-31331D02*
X29744Y-31092D01*
X30794Y-30039D02*
X30794Y-30041D01*
X29744Y-31092D02*
X29744Y-31331D01*
X30794Y-30041D02*
X29744Y-31092D01*
X33700Y-26644D02*
X33700Y-26600D01*
X32726Y-27618D02*
X33700Y-26644D01*
X30634Y-29960D02*
X30634Y-28587D01*
X31764Y-27458D02*
X32659Y-27458D01*
X30634Y-28587D02*
X31764Y-27458D01*
X28294Y-32502D02*
X29547Y-31249D01*
X29547Y-31249D02*
X29547Y-31062D01*
X30634Y-29960D02*
X30634Y-29975D01*
X29547Y-31062D02*
X29547Y-31249D01*
X30634Y-29975D02*
X29547Y-31062D01*
X33149Y-26049D02*
X32700Y-25600D01*
X32659Y-27458D02*
X33149Y-26968D01*
X33149Y-26968D02*
X33149Y-26049D01*
X31847Y-28949D02*
X31847Y-28516D01*
X31847Y-28516D02*
X32263Y-28100D01*
X32263Y-28100D02*
X32263Y-27972D01*
X31607Y-29189D02*
X31847Y-28949D01*
X31114Y-29402D02*
X31318Y-29606D01*
X31114Y-29124D02*
X31114Y-29402D01*
X31329Y-28910D02*
X31114Y-29124D01*
X31437Y-28524D02*
X31437Y-28405D01*
X31437Y-28524D02*
X31189Y-28771D01*
X31473Y-29045D02*
X31687Y-28830D01*
X31687Y-28830D02*
X31687Y-28312D01*
X31687Y-28312D02*
X31751Y-28248D01*
X31473Y-29045D02*
X31687Y-28830D01*
X29964Y-34173D02*
X28188Y-35948D01*
X28031Y-36535D02*
X28188Y-36377D01*
X28188Y-35948D02*
X28188Y-36377D01*
X29825Y-34033D02*
X27874Y-35984D01*
X27874Y-35984D02*
X27874Y-36181D01*
X29268Y-29422D02*
X29010Y-29164D01*
X29251Y-28366D02*
X29251Y-28031D01*
X29010Y-28607D02*
X29251Y-28366D01*
X29010Y-29164D02*
X29010Y-28607D01*
X27204Y-26692D02*
X26062Y-25551D01*
X29251Y-28031D02*
X27913Y-26692D01*
X27913Y-26692D02*
X27204Y-26692D01*
X26062Y-25551D02*
X26062Y-25236D01*
X29407Y-29284D02*
X29170Y-29047D01*
X29411Y-28432D02*
X29411Y-27965D01*
X29170Y-28673D02*
X29411Y-28432D01*
X29170Y-29047D02*
X29170Y-28673D01*
X29411Y-27965D02*
X27979Y-26532D01*
X27979Y-26532D02*
X27270Y-26532D01*
X27270Y-26532D02*
X26574Y-25836D01*
X26574Y-25836D02*
X26574Y-25708D01*
X28989Y-33198D02*
X29314Y-32874D01*
X29314Y-32874D02*
X29566Y-32874D01*
X33543Y-34527D02*
X33543Y-34291D01*
X34566Y-34055D02*
X34842Y-33779D01*
X34055Y-34055D02*
X34566Y-34055D01*
X33897Y-34212D02*
X34055Y-34055D01*
X33622Y-34212D02*
X33897Y-34212D01*
X33543Y-34291D02*
X33622Y-34212D01*
X34842Y-33779D02*
X35687Y-33779D01*
X33464Y-34448D02*
X32934Y-34448D01*
X33543Y-34527D02*
X33464Y-34448D01*
X34144Y-33572D02*
X34144Y-33532D01*
X33779Y-33937D02*
X34144Y-33572D01*
G54D34*
X33060Y-29162D02*
X33572Y-28650D01*
X28119Y-33788D02*
X27627Y-34280D01*
X28850Y-33059D02*
X28622Y-33287D01*
X28219Y-33788D02*
X28119Y-33788D01*
X28622Y-33385D02*
X28219Y-33788D01*
X28622Y-33287D02*
X28622Y-33385D01*
X32164Y-29745D02*
X28850Y-33059D01*
X33060Y-29162D02*
X32747Y-29162D01*
X32747Y-29162D02*
X32164Y-29745D01*
G54D32*
X26526Y-36774D02*
X29546Y-33755D01*
X26526Y-38473D02*
X26526Y-36774D01*
X25866Y-39133D02*
X26526Y-38473D01*
X25866Y-40078D02*
X25866Y-39133D01*
X32724Y-33157D02*
X33466Y-33157D01*
X33466Y-33157D02*
X34866Y-31757D01*
X34866Y-31757D02*
X37240Y-31757D01*
X39302Y-37165D02*
X39302Y-38043D01*
X39302Y-38043D02*
X39606Y-38346D01*
X32442Y-32875D02*
X32724Y-33157D01*
X39302Y-34724D02*
X39302Y-37165D01*
X38864Y-34286D02*
X39302Y-34724D01*
X38864Y-33382D02*
X38864Y-34286D01*
X37240Y-31757D02*
X38864Y-33382D01*
X40792Y-33498D02*
X41614Y-34320D01*
X41614Y-34803D02*
X41574Y-34842D01*
X41614Y-34320D02*
X41614Y-34803D01*
X32904Y-29837D02*
X38036Y-29837D01*
X40784Y-33491D02*
X40792Y-33498D01*
X40784Y-32585D02*
X40784Y-33491D01*
X38036Y-29837D02*
X40784Y-32585D01*
X32904Y-29837D02*
X32579Y-30161D01*
X33543Y-40530D02*
X32737Y-40530D01*
X32737Y-40530D02*
X32204Y-41062D01*
X28729Y-28081D02*
X28729Y-28788D01*
X28729Y-28788D02*
X28740Y-28799D01*
X31929Y-34448D02*
X31377Y-35000D01*
X32184Y-34448D02*
X31929Y-34448D01*
G54D34*
X33170Y-27992D02*
X33622Y-27992D01*
X33041Y-28120D02*
X33170Y-27992D01*
X27007Y-33839D02*
X27007Y-34291D01*
X27007Y-33839D02*
X27097Y-33750D01*
G54D33*
X38937Y-27693D02*
X38937Y-27244D01*
X38936Y-27694D02*
X38937Y-27693D01*
X41114Y-28044D02*
X40905Y-27834D01*
X41114Y-28044D02*
X41261Y-28044D01*
G54D32*
X38936Y-28503D02*
X38582Y-28149D01*
X38936Y-28594D02*
X38936Y-28503D01*
G54D33*
X41089Y-28044D02*
X40905Y-28228D01*
X41089Y-28044D02*
X41261Y-28044D01*
X41601Y-28044D02*
X41614Y-28031D01*
X41261Y-28044D02*
X41601Y-28044D01*
X42086Y-27480D02*
X42125Y-27519D01*
X42086Y-27480D02*
X42086Y-26994D01*
G54D32*
X36062Y-40451D02*
X37341Y-40451D01*
X37341Y-40451D02*
X37421Y-40531D01*
X27175Y-29595D02*
X26850Y-29921D01*
X27215Y-29595D02*
X27175Y-29595D01*
G54D34*
X32766Y-32086D02*
X32480Y-32086D01*
X32999Y-32319D02*
X32766Y-32086D01*
X31443Y-33267D02*
X31299Y-33267D01*
X31746Y-33571D02*
X31443Y-33267D01*
X29094Y-30363D02*
X29094Y-30393D01*
X28711Y-29979D02*
X29094Y-30363D01*
X28011Y-32933D02*
X27686Y-33258D01*
X27686Y-33258D02*
X27589Y-33258D01*
X28340Y-33011D02*
X28090Y-33011D01*
X28572Y-32780D02*
X28340Y-33011D01*
X28090Y-33011D02*
X28011Y-32933D01*
X32322Y-29173D02*
X32322Y-28839D01*
X32322Y-28839D02*
X32530Y-28632D01*
X32322Y-29308D02*
X32322Y-29173D01*
X32024Y-29606D02*
X32322Y-29308D01*
G54D32*
X28367Y-25118D02*
X28367Y-24684D01*
X28367Y-24684D02*
X28484Y-24566D01*
X34674Y-33002D02*
X35973Y-33002D01*
X35973Y-33002D02*
X36062Y-32913D01*
X28199Y-28611D02*
X27870Y-28282D01*
X27870Y-28282D02*
X27870Y-27523D01*
X28989Y-29701D02*
X28199Y-28910D01*
X28199Y-28910D02*
X28199Y-28611D01*
X27745Y-29065D02*
X27455Y-28775D01*
X27455Y-28775D02*
X26617Y-28775D01*
X28850Y-29840D02*
X28075Y-29065D01*
X28075Y-29065D02*
X27745Y-29065D01*
G54D33*
X41704Y-31283D02*
X41929Y-31059D01*
X41929Y-31059D02*
X41929Y-28419D01*
X41704Y-32283D02*
X41704Y-33283D01*
X41704Y-31283D02*
X41704Y-32283D01*
X41261Y-28419D02*
X41929Y-28419D01*
X41889Y-28425D02*
X41929Y-28425D01*
X41724Y-27669D02*
X41929Y-27874D01*
X41929Y-27874D02*
X41929Y-28425D01*
X41261Y-27669D02*
X41724Y-27669D01*
X41929Y-28419D02*
X41923Y-28425D01*
X41923Y-28425D02*
X41889Y-28425D01*
X41261Y-27669D02*
X41261Y-27069D01*
X41261Y-27069D02*
X41336Y-26994D01*
G54D10*
G36*
X34468Y-39989D02*
X31626Y-39989D01*
X31626Y-39763D01*
X31626Y-39763D01*
X31626Y-39763D01*
X31615Y-39709D01*
X31613Y-39698D01*
X31613Y-39698D01*
X31576Y-39643D01*
X30327Y-38394D01*
X30327Y-36605D01*
X31487Y-35445D01*
X31692Y-35445D01*
X31757Y-35432D01*
X31757Y-35432D01*
X31813Y-35395D01*
X32117Y-35091D01*
X33582Y-35091D01*
X33647Y-35078D01*
X33647Y-35078D01*
X33702Y-35041D01*
X33930Y-34813D01*
X34468Y-34813D01*
X34468Y-39989D01*
X34468Y-39989D01*
G37*
G54D34*
X34468Y-39989D02*
X31626Y-39989D01*
X31626Y-39763D01*
X31626Y-39763D01*
X31626Y-39763D01*
X31615Y-39709D01*
X31613Y-39698D01*
X31613Y-39698D01*
X31576Y-39643D01*
X30327Y-38394D01*
X30327Y-36605D01*
X31487Y-35445D01*
X31692Y-35445D01*
X31757Y-35432D01*
X31757Y-35432D01*
X31813Y-35395D01*
X32117Y-35091D01*
X33582Y-35091D01*
X33647Y-35078D01*
X33647Y-35078D01*
X33702Y-35041D01*
X33930Y-34813D01*
X34468Y-34813D01*
X34468Y-39989D01*
G54D10*
G36*
X38847Y-39082D02*
X38636Y-39082D01*
X38371Y-39191D01*
X38169Y-39394D01*
X38059Y-39659D01*
X38058Y-39945D01*
X38076Y-39989D01*
X36829Y-39989D01*
X36829Y-35874D01*
X36791Y-35780D01*
X36719Y-35709D01*
X36625Y-35670D01*
X36524Y-35670D01*
X36430Y-35708D01*
X36358Y-35780D01*
X36319Y-35874D01*
X36319Y-35975D01*
X36358Y-36069D01*
X36430Y-36141D01*
X36523Y-36180D01*
X36625Y-36180D01*
X36719Y-36141D01*
X36790Y-36069D01*
X36829Y-35976D01*
X36829Y-35874D01*
X36829Y-39989D01*
X36806Y-39989D01*
X36758Y-39941D01*
X36665Y-39902D01*
X36629Y-39902D01*
X36594Y-39816D01*
X36522Y-39744D01*
X36428Y-39705D01*
X36327Y-39705D01*
X36233Y-39744D01*
X36161Y-39815D01*
X36122Y-39909D01*
X36122Y-39989D01*
X35994Y-39989D01*
X35950Y-39945D01*
X35817Y-39945D01*
X35718Y-39945D01*
X35626Y-39983D01*
X35620Y-39989D01*
X35028Y-39989D01*
X35028Y-34813D01*
X35965Y-34813D01*
X36328Y-34451D01*
X36338Y-34453D01*
X36445Y-34431D01*
X36536Y-34371D01*
X36635Y-34271D01*
X36696Y-34180D01*
X36696Y-34180D01*
X36717Y-34073D01*
X36717Y-34061D01*
X36787Y-33992D01*
X36791Y-34002D01*
X36863Y-34074D01*
X36956Y-34113D01*
X37058Y-34113D01*
X37152Y-34074D01*
X37223Y-34002D01*
X37262Y-33909D01*
X37262Y-33807D01*
X37224Y-33714D01*
X37152Y-33642D01*
X37141Y-33637D01*
X37784Y-32994D01*
X38374Y-33585D01*
X38374Y-34419D01*
X38387Y-34484D01*
X38424Y-34539D01*
X38812Y-34927D01*
X38812Y-38343D01*
X38825Y-38408D01*
X38847Y-38440D01*
X38847Y-39082D01*
X38847Y-39082D01*
G37*
G54D34*
X38847Y-39082D02*
X38636Y-39082D01*
X38371Y-39191D01*
X38169Y-39394D01*
X38059Y-39659D01*
X38058Y-39945D01*
X38076Y-39989D01*
X36829Y-39989D01*
X36829Y-35874D01*
X36791Y-35780D01*
X36719Y-35709D01*
X36625Y-35670D01*
X36524Y-35670D01*
X36430Y-35708D01*
X36358Y-35780D01*
X36319Y-35874D01*
X36319Y-35975D01*
X36358Y-36069D01*
X36430Y-36141D01*
X36523Y-36180D01*
X36625Y-36180D01*
X36719Y-36141D01*
X36790Y-36069D01*
X36829Y-35976D01*
X36829Y-35874D01*
X36829Y-39989D01*
X36806Y-39989D01*
X36758Y-39941D01*
X36665Y-39902D01*
X36629Y-39902D01*
X36594Y-39816D01*
X36522Y-39744D01*
X36428Y-39705D01*
X36327Y-39705D01*
X36233Y-39744D01*
X36161Y-39815D01*
X36122Y-39909D01*
X36122Y-39989D01*
X35994Y-39989D01*
X35950Y-39945D01*
X35817Y-39945D01*
X35718Y-39945D01*
X35626Y-39983D01*
X35620Y-39989D01*
X35028Y-39989D01*
X35028Y-34813D01*
X35965Y-34813D01*
X36328Y-34451D01*
X36338Y-34453D01*
X36445Y-34431D01*
X36536Y-34371D01*
X36635Y-34271D01*
X36696Y-34180D01*
X36696Y-34180D01*
X36717Y-34073D01*
X36717Y-34061D01*
X36787Y-33992D01*
X36791Y-34002D01*
X36863Y-34074D01*
X36956Y-34113D01*
X37058Y-34113D01*
X37152Y-34074D01*
X37223Y-34002D01*
X37262Y-33909D01*
X37262Y-33807D01*
X37224Y-33714D01*
X37152Y-33642D01*
X37141Y-33637D01*
X37784Y-32994D01*
X38374Y-33585D01*
X38374Y-34419D01*
X38387Y-34484D01*
X38424Y-34539D01*
X38812Y-34927D01*
X38812Y-38343D01*
X38825Y-38408D01*
X38847Y-38440D01*
X38847Y-39082D01*
G54D10*
G36*
X43147Y-30698D02*
X42592Y-30698D01*
X42592Y-27338D01*
X42592Y-27239D01*
X42592Y-27106D01*
X42592Y-26881D01*
X42592Y-26748D01*
X42592Y-26649D01*
X42554Y-26557D01*
X42484Y-26487D01*
X42392Y-26449D01*
X42199Y-26449D01*
X42136Y-26511D01*
X42136Y-26944D01*
X42530Y-26944D01*
X42592Y-26881D01*
X42592Y-27106D01*
X42530Y-27044D01*
X42136Y-27044D01*
X42136Y-27476D01*
X42199Y-27539D01*
X42392Y-27539D01*
X42484Y-27501D01*
X42554Y-27430D01*
X42592Y-27338D01*
X42592Y-30698D01*
X42159Y-30698D01*
X42159Y-28425D01*
X42159Y-28419D01*
X42159Y-27874D01*
X42141Y-27785D01*
X42141Y-27785D01*
X42091Y-27711D01*
X41919Y-27539D01*
X41974Y-27539D01*
X42036Y-27476D01*
X42036Y-27044D01*
X42028Y-27044D01*
X42028Y-26944D01*
X42036Y-26944D01*
X42036Y-26511D01*
X41974Y-26449D01*
X41781Y-26449D01*
X41689Y-26487D01*
X41618Y-26557D01*
X41614Y-26569D01*
X41566Y-26569D01*
X41054Y-26569D01*
X41007Y-26588D01*
X40970Y-26625D01*
X40950Y-26673D01*
X40950Y-26724D01*
X40950Y-27314D01*
X40970Y-27362D01*
X41007Y-27399D01*
X41031Y-27409D01*
X41031Y-27465D01*
X41001Y-27495D01*
X40981Y-27543D01*
X40981Y-27594D01*
X40981Y-27727D01*
X40970Y-27732D01*
X40899Y-27802D01*
X40861Y-27894D01*
X40861Y-27931D01*
X40924Y-27994D01*
X41211Y-27994D01*
X41211Y-27986D01*
X41311Y-27986D01*
X41311Y-27994D01*
X41599Y-27994D01*
X41661Y-27931D01*
X41699Y-27969D01*
X41699Y-28189D01*
X41661Y-28189D01*
X41661Y-28156D01*
X41599Y-28094D01*
X41311Y-28094D01*
X41311Y-28101D01*
X41211Y-28101D01*
X41211Y-28094D01*
X40924Y-28094D01*
X40861Y-28156D01*
X40861Y-28193D01*
X40899Y-28285D01*
X40970Y-28356D01*
X40981Y-28360D01*
X40981Y-28544D01*
X41001Y-28592D01*
X41038Y-28629D01*
X41085Y-28649D01*
X41137Y-28649D01*
X41261Y-28649D01*
X41437Y-28649D01*
X41699Y-28649D01*
X41699Y-30698D01*
X40845Y-30698D01*
X40845Y-27311D01*
X40806Y-27217D01*
X40735Y-27146D01*
X40641Y-27107D01*
X40540Y-27107D01*
X40479Y-27132D01*
X40477Y-27132D01*
X40491Y-27098D01*
X40491Y-26996D01*
X40452Y-26902D01*
X40380Y-26831D01*
X40287Y-26792D01*
X40185Y-26792D01*
X40091Y-26830D01*
X40020Y-26902D01*
X39981Y-26996D01*
X39981Y-27097D01*
X40006Y-27158D01*
X40006Y-27251D01*
X39994Y-27279D01*
X39968Y-27269D01*
X39916Y-27269D01*
X39409Y-27269D01*
X39404Y-27257D01*
X39334Y-27187D01*
X39242Y-27149D01*
X39049Y-27149D01*
X38986Y-27211D01*
X38986Y-27644D01*
X38994Y-27644D01*
X38994Y-27744D01*
X38986Y-27744D01*
X38986Y-28111D01*
X38986Y-28176D01*
X38986Y-28544D01*
X38994Y-28544D01*
X38994Y-28644D01*
X38986Y-28644D01*
X38986Y-29076D01*
X39049Y-29139D01*
X39242Y-29139D01*
X39334Y-29101D01*
X39404Y-29030D01*
X39409Y-29019D01*
X39456Y-29019D01*
X39968Y-29019D01*
X40016Y-28999D01*
X40053Y-28962D01*
X40072Y-28914D01*
X40072Y-28863D01*
X40072Y-28649D01*
X40085Y-28649D01*
X40137Y-28649D01*
X40261Y-28649D01*
X40437Y-28649D01*
X40485Y-28629D01*
X40522Y-28592D01*
X40541Y-28544D01*
X40541Y-28493D01*
X40541Y-28293D01*
X40522Y-28245D01*
X40485Y-28208D01*
X40437Y-28189D01*
X40385Y-28189D01*
X40261Y-28189D01*
X40085Y-28189D01*
X40016Y-28189D01*
X40016Y-28188D01*
X39968Y-28169D01*
X39916Y-28169D01*
X39409Y-28169D01*
X39404Y-28157D01*
X39391Y-28144D01*
X39404Y-28130D01*
X39409Y-28119D01*
X39456Y-28119D01*
X39968Y-28119D01*
X40016Y-28099D01*
X40053Y-28062D01*
X40072Y-28014D01*
X40072Y-27963D01*
X40072Y-27899D01*
X40085Y-27899D01*
X40137Y-27899D01*
X40261Y-27899D01*
X40437Y-27899D01*
X40485Y-27879D01*
X40522Y-27842D01*
X40541Y-27794D01*
X40541Y-27743D01*
X40541Y-27617D01*
X40641Y-27617D01*
X40734Y-27578D01*
X40806Y-27506D01*
X40845Y-27413D01*
X40845Y-27311D01*
X40845Y-30698D01*
X39877Y-30698D01*
X39869Y-30689D01*
X39775Y-30650D01*
X39673Y-30650D01*
X39580Y-30689D01*
X39571Y-30698D01*
X39430Y-30698D01*
X38886Y-30154D01*
X38886Y-29076D01*
X38886Y-28644D01*
X38886Y-28544D01*
X38886Y-28176D01*
X38886Y-28111D01*
X38886Y-27744D01*
X38886Y-27644D01*
X38886Y-27211D01*
X38824Y-27149D01*
X38631Y-27149D01*
X38539Y-27187D01*
X38468Y-27257D01*
X38430Y-27349D01*
X38430Y-27448D01*
X38430Y-27581D01*
X38493Y-27644D01*
X38886Y-27644D01*
X38886Y-27744D01*
X38493Y-27744D01*
X38430Y-27806D01*
X38430Y-27939D01*
X38430Y-28038D01*
X38468Y-28130D01*
X38482Y-28144D01*
X38468Y-28157D01*
X38430Y-28249D01*
X38430Y-28348D01*
X38430Y-28481D01*
X38493Y-28544D01*
X38886Y-28544D01*
X38886Y-28644D01*
X38493Y-28644D01*
X38430Y-28706D01*
X38430Y-28839D01*
X38430Y-28938D01*
X38468Y-29030D01*
X38539Y-29101D01*
X38631Y-29139D01*
X38824Y-29139D01*
X38886Y-29076D01*
X38886Y-30154D01*
X38170Y-29438D01*
X37735Y-29438D01*
X37735Y-26524D01*
X37696Y-26430D01*
X37624Y-26358D01*
X37531Y-26319D01*
X37429Y-26319D01*
X37336Y-26358D01*
X37264Y-26430D01*
X37225Y-26523D01*
X37225Y-26625D01*
X37264Y-26719D01*
X37335Y-26790D01*
X37429Y-26829D01*
X37530Y-26829D01*
X37624Y-26791D01*
X37696Y-26719D01*
X37735Y-26625D01*
X37735Y-26524D01*
X37735Y-29438D01*
X35768Y-29438D01*
X34318Y-27988D01*
X34356Y-27972D01*
X34428Y-27900D01*
X34467Y-27806D01*
X34467Y-27705D01*
X34428Y-27611D01*
X34357Y-27539D01*
X34301Y-27516D01*
X34301Y-25051D01*
X34357Y-25051D01*
X34632Y-25326D01*
X34632Y-25793D01*
X34652Y-25841D01*
X34689Y-25877D01*
X34736Y-25897D01*
X34788Y-25897D01*
X35300Y-25897D01*
X35348Y-25877D01*
X35384Y-25841D01*
X35393Y-25819D01*
X35402Y-25841D01*
X35439Y-25877D01*
X35486Y-25897D01*
X35538Y-25897D01*
X36050Y-25897D01*
X36098Y-25877D01*
X36134Y-25841D01*
X36144Y-25818D01*
X36208Y-25845D01*
X36310Y-25845D01*
X36404Y-25806D01*
X36475Y-25735D01*
X36514Y-25641D01*
X36514Y-25540D01*
X36476Y-25446D01*
X36404Y-25374D01*
X36310Y-25335D01*
X36209Y-25335D01*
X36154Y-25358D01*
X36154Y-25151D01*
X36134Y-25103D01*
X36098Y-25067D01*
X36050Y-25047D01*
X35998Y-25047D01*
X35486Y-25047D01*
X35439Y-25067D01*
X35402Y-25103D01*
X35393Y-25125D01*
X35384Y-25103D01*
X35348Y-25067D01*
X35300Y-25047D01*
X35248Y-25047D01*
X34834Y-25047D01*
X34548Y-24761D01*
X34493Y-24724D01*
X34428Y-24711D01*
X34301Y-24711D01*
X34301Y-23781D01*
X42897Y-23781D01*
X43001Y-23802D01*
X43076Y-23852D01*
X43126Y-23927D01*
X43147Y-24031D01*
X43147Y-30698D01*
X43147Y-30698D01*
G37*
G54D34*
X43147Y-30698D02*
X42592Y-30698D01*
X42592Y-27338D01*
X42592Y-27239D01*
X42592Y-27106D01*
X42592Y-26881D01*
X42592Y-26748D01*
X42592Y-26649D01*
X42554Y-26557D01*
X42484Y-26487D01*
X42392Y-26449D01*
X42199Y-26449D01*
X42136Y-26511D01*
X42136Y-26944D01*
X42530Y-26944D01*
X42592Y-26881D01*
X42592Y-27106D01*
X42530Y-27044D01*
X42136Y-27044D01*
X42136Y-27476D01*
X42199Y-27539D01*
X42392Y-27539D01*
X42484Y-27501D01*
X42554Y-27430D01*
X42592Y-27338D01*
X42592Y-30698D01*
X42159Y-30698D01*
X42159Y-28425D01*
X42159Y-28419D01*
X42159Y-27874D01*
X42141Y-27785D01*
X42141Y-27785D01*
X42091Y-27711D01*
X41919Y-27539D01*
X41974Y-27539D01*
X42036Y-27476D01*
X42036Y-27044D01*
X42028Y-27044D01*
X42028Y-26944D01*
X42036Y-26944D01*
X42036Y-26511D01*
X41974Y-26449D01*
X41781Y-26449D01*
X41689Y-26487D01*
X41618Y-26557D01*
X41614Y-26569D01*
X41566Y-26569D01*
X41054Y-26569D01*
X41007Y-26588D01*
X40970Y-26625D01*
X40950Y-26673D01*
X40950Y-26724D01*
X40950Y-27314D01*
X40970Y-27362D01*
X41007Y-27399D01*
X41031Y-27409D01*
X41031Y-27465D01*
X41001Y-27495D01*
X40981Y-27543D01*
X40981Y-27594D01*
X40981Y-27727D01*
X40970Y-27732D01*
X40899Y-27802D01*
X40861Y-27894D01*
X40861Y-27931D01*
X40924Y-27994D01*
X41211Y-27994D01*
X41211Y-27986D01*
X41311Y-27986D01*
X41311Y-27994D01*
X41599Y-27994D01*
X41661Y-27931D01*
X41699Y-27969D01*
X41699Y-28189D01*
X41661Y-28189D01*
X41661Y-28156D01*
X41599Y-28094D01*
X41311Y-28094D01*
X41311Y-28101D01*
X41211Y-28101D01*
X41211Y-28094D01*
X40924Y-28094D01*
X40861Y-28156D01*
X40861Y-28193D01*
X40899Y-28285D01*
X40970Y-28356D01*
X40981Y-28360D01*
X40981Y-28544D01*
X41001Y-28592D01*
X41038Y-28629D01*
X41085Y-28649D01*
X41137Y-28649D01*
X41261Y-28649D01*
X41437Y-28649D01*
X41699Y-28649D01*
X41699Y-30698D01*
X40845Y-30698D01*
X40845Y-27311D01*
X40806Y-27217D01*
X40735Y-27146D01*
X40641Y-27107D01*
X40540Y-27107D01*
X40479Y-27132D01*
X40477Y-27132D01*
X40491Y-27098D01*
X40491Y-26996D01*
X40452Y-26902D01*
X40380Y-26831D01*
X40287Y-26792D01*
X40185Y-26792D01*
X40091Y-26830D01*
X40020Y-26902D01*
X39981Y-26996D01*
X39981Y-27097D01*
X40006Y-27158D01*
X40006Y-27251D01*
X39994Y-27279D01*
X39968Y-27269D01*
X39916Y-27269D01*
X39409Y-27269D01*
X39404Y-27257D01*
X39334Y-27187D01*
X39242Y-27149D01*
X39049Y-27149D01*
X38986Y-27211D01*
X38986Y-27644D01*
X38994Y-27644D01*
X38994Y-27744D01*
X38986Y-27744D01*
X38986Y-28111D01*
X38986Y-28176D01*
X38986Y-28544D01*
X38994Y-28544D01*
X38994Y-28644D01*
X38986Y-28644D01*
X38986Y-29076D01*
X39049Y-29139D01*
X39242Y-29139D01*
X39334Y-29101D01*
X39404Y-29030D01*
X39409Y-29019D01*
X39456Y-29019D01*
X39968Y-29019D01*
X40016Y-28999D01*
X40053Y-28962D01*
X40072Y-28914D01*
X40072Y-28863D01*
X40072Y-28649D01*
X40085Y-28649D01*
X40137Y-28649D01*
X40261Y-28649D01*
X40437Y-28649D01*
X40485Y-28629D01*
X40522Y-28592D01*
X40541Y-28544D01*
X40541Y-28493D01*
X40541Y-28293D01*
X40522Y-28245D01*
X40485Y-28208D01*
X40437Y-28189D01*
X40385Y-28189D01*
X40261Y-28189D01*
X40085Y-28189D01*
X40016Y-28189D01*
X40016Y-28188D01*
X39968Y-28169D01*
X39916Y-28169D01*
X39409Y-28169D01*
X39404Y-28157D01*
X39391Y-28144D01*
X39404Y-28130D01*
X39409Y-28119D01*
X39456Y-28119D01*
X39968Y-28119D01*
X40016Y-28099D01*
X40053Y-28062D01*
X40072Y-28014D01*
X40072Y-27963D01*
X40072Y-27899D01*
X40085Y-27899D01*
X40137Y-27899D01*
X40261Y-27899D01*
X40437Y-27899D01*
X40485Y-27879D01*
X40522Y-27842D01*
X40541Y-27794D01*
X40541Y-27743D01*
X40541Y-27617D01*
X40641Y-27617D01*
X40734Y-27578D01*
X40806Y-27506D01*
X40845Y-27413D01*
X40845Y-27311D01*
X40845Y-30698D01*
X39877Y-30698D01*
X39869Y-30689D01*
X39775Y-30650D01*
X39673Y-30650D01*
X39580Y-30689D01*
X39571Y-30698D01*
X39430Y-30698D01*
X38886Y-30154D01*
X38886Y-29076D01*
X38886Y-28644D01*
X38886Y-28544D01*
X38886Y-28176D01*
X38886Y-28111D01*
X38886Y-27744D01*
X38886Y-27644D01*
X38886Y-27211D01*
X38824Y-27149D01*
X38631Y-27149D01*
X38539Y-27187D01*
X38468Y-27257D01*
X38430Y-27349D01*
X38430Y-27448D01*
X38430Y-27581D01*
X38493Y-27644D01*
X38886Y-27644D01*
X38886Y-27744D01*
X38493Y-27744D01*
X38430Y-27806D01*
X38430Y-27939D01*
X38430Y-28038D01*
X38468Y-28130D01*
X38482Y-28144D01*
X38468Y-28157D01*
X38430Y-28249D01*
X38430Y-28348D01*
X38430Y-28481D01*
X38493Y-28544D01*
X38886Y-28544D01*
X38886Y-28644D01*
X38493Y-28644D01*
X38430Y-28706D01*
X38430Y-28839D01*
X38430Y-28938D01*
X38468Y-29030D01*
X38539Y-29101D01*
X38631Y-29139D01*
X38824Y-29139D01*
X38886Y-29076D01*
X38886Y-30154D01*
X38170Y-29438D01*
X37735Y-29438D01*
X37735Y-26524D01*
X37696Y-26430D01*
X37624Y-26358D01*
X37531Y-26319D01*
X37429Y-26319D01*
X37336Y-26358D01*
X37264Y-26430D01*
X37225Y-26523D01*
X37225Y-26625D01*
X37264Y-26719D01*
X37335Y-26790D01*
X37429Y-26829D01*
X37530Y-26829D01*
X37624Y-26791D01*
X37696Y-26719D01*
X37735Y-26625D01*
X37735Y-26524D01*
X37735Y-29438D01*
X35768Y-29438D01*
X34318Y-27988D01*
X34356Y-27972D01*
X34428Y-27900D01*
X34467Y-27806D01*
X34467Y-27705D01*
X34428Y-27611D01*
X34357Y-27539D01*
X34301Y-27516D01*
X34301Y-25051D01*
X34357Y-25051D01*
X34632Y-25326D01*
X34632Y-25793D01*
X34652Y-25841D01*
X34689Y-25877D01*
X34736Y-25897D01*
X34788Y-25897D01*
X35300Y-25897D01*
X35348Y-25877D01*
X35384Y-25841D01*
X35393Y-25819D01*
X35402Y-25841D01*
X35439Y-25877D01*
X35486Y-25897D01*
X35538Y-25897D01*
X36050Y-25897D01*
X36098Y-25877D01*
X36134Y-25841D01*
X36144Y-25818D01*
X36208Y-25845D01*
X36310Y-25845D01*
X36404Y-25806D01*
X36475Y-25735D01*
X36514Y-25641D01*
X36514Y-25540D01*
X36476Y-25446D01*
X36404Y-25374D01*
X36310Y-25335D01*
X36209Y-25335D01*
X36154Y-25358D01*
X36154Y-25151D01*
X36134Y-25103D01*
X36098Y-25067D01*
X36050Y-25047D01*
X35998Y-25047D01*
X35486Y-25047D01*
X35439Y-25067D01*
X35402Y-25103D01*
X35393Y-25125D01*
X35384Y-25103D01*
X35348Y-25067D01*
X35300Y-25047D01*
X35248Y-25047D01*
X34834Y-25047D01*
X34548Y-24761D01*
X34493Y-24724D01*
X34428Y-24711D01*
X34301Y-24711D01*
X34301Y-23781D01*
X42897Y-23781D01*
X43001Y-23802D01*
X43076Y-23852D01*
X43126Y-23927D01*
X43147Y-24031D01*
X43147Y-30698D01*
M02*
