%FSLAX34Y34*%
G04 Gerber Fmt 3.4, Leading zero omitted, Abs format*
G04 (created by PCBNEW (2013-11-08 BZR 4448)-product) date 2013-12-08T10:58:15 CET*
%MOIN*%
G01*
G70*
G90*
G04 APERTURE LIST*
%ADD10C,0.005906*%
%ADD11C,0.118110*%
%ADD12R,0.055100X0.078700*%
%ADD13R,0.096500X0.051200*%
%ADD14R,0.060000X0.086600*%
%ADD15O,0.060000X0.086600*%
%ADD16R,0.078700X0.060000*%
%ADD17O,0.078700X0.060000*%
%ADD18R,0.060000X0.078700*%
%ADD19O,0.060000X0.078700*%
%ADD20R,0.086600X0.060000*%
%ADD21O,0.086600X0.060000*%
%ADD22C,0.157480*%
%ADD23O,0.157500X0.078700*%
%ADD24O,0.177200X0.078700*%
%ADD25C,0.025000*%
%ADD26C,0.008000*%
%ADD27C,0.020000*%
%ADD28C,0.010000*%
G04 APERTURE END LIST*
G54D10*
X42913Y-43307D02*
G75*
G03X43307Y-42913I0J393D01*
G74*
G01*
X23622Y-42913D02*
G75*
G03X24015Y-43307I393J0D01*
G74*
G01*
X24015Y-23622D02*
G75*
G03X23622Y-24015I0J-393D01*
G74*
G01*
X43307Y-24015D02*
G75*
G03X42913Y-23622I-393J0D01*
G74*
G01*
X23622Y-42913D02*
X23622Y-24015D01*
X42913Y-43307D02*
X24015Y-43307D01*
X43307Y-24015D02*
X43307Y-42913D01*
X24015Y-23622D02*
X42913Y-23622D01*
G54D11*
X38779Y-39803D03*
G54D12*
X25443Y-24358D03*
X25443Y-26642D03*
G54D13*
X24309Y-24427D03*
X24309Y-26573D03*
G54D14*
X36748Y-42677D03*
G54D15*
X35748Y-42677D03*
X34748Y-42677D03*
G54D16*
X24126Y-38708D03*
G54D17*
X25322Y-38708D03*
X24126Y-39708D03*
X25322Y-39708D03*
X24126Y-40708D03*
X25322Y-40708D03*
X24126Y-41708D03*
X25322Y-41708D03*
X24126Y-42708D03*
X25322Y-42708D03*
G54D18*
X38708Y-42802D03*
G54D19*
X38708Y-41606D03*
X39708Y-42802D03*
X39708Y-41606D03*
X40708Y-42802D03*
X40708Y-41606D03*
X41708Y-42802D03*
X41708Y-41606D03*
X42708Y-42802D03*
X42708Y-41606D03*
G54D16*
X42802Y-39480D03*
G54D17*
X41606Y-39480D03*
X42802Y-38480D03*
X41606Y-38480D03*
X42802Y-37480D03*
X41606Y-37480D03*
X42802Y-36480D03*
X41606Y-36480D03*
X42802Y-35480D03*
X41606Y-35480D03*
G54D14*
X31783Y-42677D03*
G54D15*
X32783Y-42677D03*
G54D18*
X30700Y-26698D03*
G54D19*
X30700Y-25502D03*
X31700Y-26698D03*
X31700Y-25502D03*
X32700Y-26698D03*
X32700Y-25502D03*
X33700Y-26698D03*
X33700Y-25502D03*
G54D20*
X24250Y-36250D03*
G54D21*
X24250Y-35250D03*
X24250Y-34250D03*
X24250Y-33250D03*
X24250Y-32250D03*
X24250Y-31250D03*
X24250Y-30250D03*
X24250Y-29250D03*
X24250Y-28250D03*
G54D16*
X42802Y-33283D03*
G54D17*
X41606Y-33283D03*
X42802Y-32283D03*
X41606Y-32283D03*
X42802Y-31283D03*
X41606Y-31283D03*
G54D22*
X30512Y-40196D03*
G54D23*
X28425Y-41476D03*
G54D24*
X28425Y-39113D03*
G54D25*
X36574Y-35925D03*
X37007Y-33858D03*
X36377Y-39960D03*
X36889Y-41496D03*
X36614Y-40157D03*
X28228Y-38346D03*
X36574Y-41417D03*
X36338Y-34173D03*
X39724Y-30905D03*
X34212Y-27755D03*
X26574Y-30275D03*
X26653Y-31574D03*
X42322Y-40629D03*
X41338Y-34566D03*
X28838Y-36102D03*
X28779Y-25826D03*
X36259Y-25590D03*
X37480Y-26574D03*
X40236Y-27362D03*
X40590Y-27362D03*
X40236Y-27047D03*
X32795Y-31811D03*
X31574Y-32992D03*
X29527Y-29960D03*
X28366Y-33267D03*
X31574Y-29842D03*
X39606Y-37992D03*
X26574Y-39685D03*
X40275Y-40433D03*
X40787Y-38976D03*
X40472Y-39685D03*
X26377Y-33070D03*
X36259Y-41633D03*
X26141Y-33385D03*
X29133Y-38149D03*
X33641Y-41692D03*
X27716Y-32677D03*
X26929Y-33208D03*
X26181Y-33838D03*
X25866Y-32755D03*
X34823Y-34488D03*
X35039Y-34488D03*
X35039Y-34173D03*
X32165Y-32401D03*
X33622Y-42047D03*
X33897Y-34488D03*
X31811Y-32755D03*
X24724Y-38110D03*
X39921Y-40787D03*
X40787Y-38031D03*
X33346Y-24881D03*
X28208Y-29625D03*
X27106Y-25118D03*
X30059Y-29586D03*
X29724Y-29685D03*
X32263Y-27972D03*
X31318Y-29606D03*
X31437Y-28405D03*
X31751Y-28248D03*
X28031Y-36535D03*
X27874Y-36181D03*
X25944Y-24881D03*
X26062Y-25236D03*
X26574Y-25708D03*
X29566Y-32874D03*
X33543Y-34527D03*
X33779Y-33937D03*
X25866Y-40078D03*
X39606Y-38346D03*
X41574Y-34842D03*
X38937Y-30118D03*
X31850Y-41122D03*
X31889Y-35590D03*
X31889Y-35905D03*
X32204Y-41062D03*
X26889Y-24468D03*
X28740Y-28799D03*
X31377Y-35000D03*
X31496Y-35590D03*
X31102Y-36023D03*
X31102Y-36417D03*
X31102Y-36811D03*
X31102Y-37598D03*
X31102Y-37204D03*
X30708Y-37598D03*
X30708Y-36811D03*
X30708Y-36417D03*
X30708Y-37204D03*
X30708Y-37992D03*
X33622Y-27992D03*
X25885Y-36102D03*
X27007Y-34291D03*
X30708Y-31653D03*
X30452Y-31082D03*
X25866Y-26062D03*
X26299Y-27480D03*
X27125Y-27086D03*
X31102Y-38779D03*
X30708Y-38385D03*
X31102Y-38385D03*
X32027Y-41417D03*
X37440Y-41082D03*
X39074Y-38877D03*
X38681Y-38779D03*
X38681Y-36023D03*
X37559Y-35275D03*
X38228Y-34330D03*
X35236Y-32362D03*
X37007Y-32598D03*
X37598Y-24488D03*
X37440Y-25748D03*
X38937Y-27244D03*
X40905Y-27834D03*
X38582Y-28149D03*
X40905Y-28228D03*
X41614Y-28031D03*
X42125Y-27519D03*
X38287Y-36023D03*
X38681Y-36417D03*
X38287Y-36417D03*
X38681Y-36811D03*
X38287Y-36811D03*
X38681Y-38385D03*
X38287Y-38779D03*
X38681Y-37992D03*
X38681Y-37204D03*
X38681Y-37598D03*
X30413Y-37401D03*
X30413Y-37795D03*
X30413Y-37007D03*
X31122Y-38011D03*
X37421Y-40531D03*
X37559Y-40787D03*
X37362Y-35551D03*
X37401Y-34960D03*
X26850Y-29921D03*
X32480Y-32086D03*
X31299Y-33267D03*
X29094Y-30393D03*
X28011Y-32933D03*
X32322Y-29173D03*
X28484Y-24566D03*
G54D26*
X36574Y-41417D02*
X36889Y-41102D01*
X36889Y-34724D02*
X36338Y-34173D01*
X36889Y-41102D02*
X36889Y-34724D01*
X28228Y-38346D02*
X28937Y-38346D01*
X36496Y-41338D02*
X36574Y-41417D01*
X32598Y-41338D02*
X36496Y-41338D01*
X32204Y-41732D02*
X32598Y-41338D01*
X30629Y-41732D02*
X32204Y-41732D01*
X29527Y-40629D02*
X30629Y-41732D01*
X29527Y-38937D02*
X29527Y-40629D01*
X28937Y-38346D02*
X29527Y-38937D01*
X39724Y-30905D02*
X40236Y-30905D01*
X40236Y-30905D02*
X40236Y-30551D01*
X41338Y-34566D02*
X40236Y-33464D01*
X40236Y-33464D02*
X40236Y-30905D01*
X34212Y-26102D02*
X34212Y-27755D01*
X27007Y-30708D02*
X29527Y-30708D01*
X26574Y-30275D02*
X27007Y-30708D01*
X26653Y-31574D02*
X29527Y-31574D01*
X41338Y-34566D02*
X40354Y-35551D01*
X41653Y-40629D02*
X42322Y-40629D01*
X40905Y-39881D02*
X41653Y-40629D01*
X40905Y-39606D02*
X40905Y-39881D01*
X40354Y-39055D02*
X40905Y-39606D01*
X40354Y-35551D02*
X40354Y-39055D01*
X28366Y-33267D02*
X28838Y-33740D01*
X28838Y-33740D02*
X28838Y-36102D01*
X30688Y-32106D02*
X31181Y-31614D01*
X32598Y-31614D02*
X32795Y-31811D01*
X31181Y-31614D02*
X32598Y-31614D01*
X29527Y-32106D02*
X30688Y-32106D01*
X30688Y-32106D02*
X31574Y-32992D01*
X29527Y-29960D02*
X29527Y-30708D01*
X29527Y-30708D02*
X29527Y-31574D01*
X29527Y-31574D02*
X29527Y-32106D01*
X29527Y-32106D02*
X28366Y-33267D01*
X29527Y-29960D02*
X29566Y-30000D01*
X31417Y-30000D02*
X31574Y-29842D01*
X29566Y-30000D02*
X31417Y-30000D01*
X29055Y-26102D02*
X29055Y-29488D01*
X29055Y-29488D02*
X29527Y-29960D01*
X28779Y-25826D02*
X26356Y-28250D01*
X26356Y-28250D02*
X24250Y-28250D01*
X31202Y-26102D02*
X29055Y-26102D01*
X29055Y-26102D02*
X28779Y-25826D01*
X36259Y-25590D02*
X35748Y-26102D01*
X31202Y-26102D02*
X30700Y-25600D01*
X35748Y-26102D02*
X34212Y-26102D01*
X34212Y-26102D02*
X31202Y-26102D01*
X37480Y-26574D02*
X36496Y-25590D01*
X36496Y-25590D02*
X36259Y-25590D01*
X40236Y-27362D02*
X39448Y-26574D01*
X39448Y-26574D02*
X37480Y-26574D01*
X40236Y-27362D02*
X40236Y-30551D01*
G54D27*
X42704Y-25066D02*
X42704Y-31283D01*
X41692Y-24055D02*
X42704Y-25066D01*
X26771Y-24055D02*
X41692Y-24055D01*
X25944Y-24881D02*
X26771Y-24055D01*
G54D26*
X31783Y-42677D02*
X27677Y-42677D01*
X24728Y-39212D02*
X24224Y-38708D01*
X25629Y-39212D02*
X24728Y-39212D01*
X26732Y-40314D02*
X25629Y-39212D01*
X26732Y-41732D02*
X26732Y-40314D01*
X27677Y-42677D02*
X26732Y-41732D01*
X38708Y-42704D02*
X38051Y-42047D01*
X32531Y-41929D02*
X31783Y-42677D01*
X32952Y-41929D02*
X32531Y-41929D01*
X33464Y-42440D02*
X32952Y-41929D01*
X34015Y-42440D02*
X33464Y-42440D01*
X34409Y-42047D02*
X34015Y-42440D01*
X38051Y-42047D02*
X34409Y-42047D01*
X42704Y-39480D02*
X42637Y-39547D01*
X39208Y-42204D02*
X38708Y-42704D01*
X41929Y-42204D02*
X39208Y-42204D01*
X42204Y-41929D02*
X41929Y-42204D01*
X42204Y-41181D02*
X42204Y-41929D01*
X42637Y-40748D02*
X42204Y-41181D01*
X42637Y-39547D02*
X42637Y-40748D01*
X42704Y-33283D02*
X42244Y-33744D01*
X42244Y-39019D02*
X42704Y-39480D01*
X42244Y-33744D02*
X42244Y-39019D01*
G54D10*
G36*
X43147Y-42897D02*
X43126Y-43001D01*
X43116Y-43017D01*
X43138Y-42906D01*
X43138Y-42698D01*
X43138Y-41710D01*
X43138Y-41502D01*
X43105Y-41338D01*
X43012Y-41198D01*
X42873Y-41105D01*
X42752Y-41081D01*
X42752Y-39967D01*
X42752Y-39530D01*
X42752Y-39430D01*
X42752Y-38992D01*
X42690Y-38930D01*
X42458Y-38930D01*
X42359Y-38930D01*
X42267Y-38968D01*
X42197Y-39038D01*
X42159Y-39130D01*
X42159Y-39367D01*
X42221Y-39430D01*
X42752Y-39430D01*
X42752Y-39530D01*
X42221Y-39530D01*
X42159Y-39592D01*
X42159Y-39830D01*
X42197Y-39921D01*
X42267Y-39992D01*
X42359Y-40030D01*
X42458Y-40030D01*
X42690Y-40030D01*
X42752Y-39967D01*
X42752Y-41081D01*
X42708Y-41072D01*
X42544Y-41105D01*
X42404Y-41198D01*
X42311Y-41338D01*
X42278Y-41502D01*
X42278Y-41710D01*
X42311Y-41875D01*
X42404Y-42014D01*
X42544Y-42107D01*
X42708Y-42140D01*
X42873Y-42107D01*
X43012Y-42014D01*
X43105Y-41875D01*
X43138Y-41710D01*
X43138Y-42698D01*
X43105Y-42534D01*
X43012Y-42394D01*
X42873Y-42301D01*
X42708Y-42268D01*
X42544Y-42301D01*
X42404Y-42394D01*
X42311Y-42534D01*
X42278Y-42698D01*
X42278Y-42906D01*
X42311Y-43071D01*
X42362Y-43147D01*
X42054Y-43147D01*
X42105Y-43071D01*
X42138Y-42906D01*
X42138Y-42698D01*
X42138Y-41710D01*
X42138Y-41502D01*
X42105Y-41338D01*
X42012Y-41198D01*
X41873Y-41105D01*
X41708Y-41072D01*
X41544Y-41105D01*
X41404Y-41198D01*
X41311Y-41338D01*
X41278Y-41502D01*
X41278Y-41710D01*
X41311Y-41875D01*
X41404Y-42014D01*
X41544Y-42107D01*
X41708Y-42140D01*
X41873Y-42107D01*
X42012Y-42014D01*
X42105Y-41875D01*
X42138Y-41710D01*
X42138Y-42698D01*
X42105Y-42534D01*
X42012Y-42394D01*
X41873Y-42301D01*
X41708Y-42268D01*
X41544Y-42301D01*
X41404Y-42394D01*
X41311Y-42534D01*
X41278Y-42698D01*
X41278Y-42906D01*
X41311Y-43071D01*
X41362Y-43147D01*
X41054Y-43147D01*
X41105Y-43071D01*
X41138Y-42906D01*
X41138Y-42698D01*
X41138Y-41710D01*
X41138Y-41502D01*
X41105Y-41338D01*
X41012Y-41198D01*
X40873Y-41105D01*
X40708Y-41072D01*
X40544Y-41105D01*
X40404Y-41198D01*
X40311Y-41338D01*
X40278Y-41502D01*
X40278Y-41710D01*
X40311Y-41875D01*
X40404Y-42014D01*
X40544Y-42107D01*
X40708Y-42140D01*
X40873Y-42107D01*
X41012Y-42014D01*
X41105Y-41875D01*
X41138Y-41710D01*
X41138Y-42698D01*
X41105Y-42534D01*
X41012Y-42394D01*
X40873Y-42301D01*
X40708Y-42268D01*
X40544Y-42301D01*
X40404Y-42394D01*
X40311Y-42534D01*
X40278Y-42698D01*
X40278Y-42906D01*
X40311Y-43071D01*
X40362Y-43147D01*
X40054Y-43147D01*
X40105Y-43071D01*
X40138Y-42906D01*
X40138Y-42698D01*
X40138Y-41710D01*
X40138Y-41502D01*
X40105Y-41338D01*
X40012Y-41198D01*
X39873Y-41105D01*
X39708Y-41072D01*
X39544Y-41105D01*
X39404Y-41198D01*
X39311Y-41338D01*
X39278Y-41502D01*
X39278Y-41710D01*
X39311Y-41875D01*
X39404Y-42014D01*
X39544Y-42107D01*
X39708Y-42140D01*
X39873Y-42107D01*
X40012Y-42014D01*
X40105Y-41875D01*
X40138Y-41710D01*
X40138Y-42698D01*
X40105Y-42534D01*
X40012Y-42394D01*
X39873Y-42301D01*
X39708Y-42268D01*
X39544Y-42301D01*
X39404Y-42394D01*
X39311Y-42534D01*
X39278Y-42698D01*
X39278Y-42906D01*
X39311Y-43071D01*
X39362Y-43147D01*
X39258Y-43147D01*
X39258Y-43146D01*
X39258Y-42915D01*
X39258Y-42690D01*
X39258Y-42458D01*
X39258Y-42359D01*
X39220Y-42267D01*
X39150Y-42197D01*
X39138Y-42192D01*
X39138Y-41710D01*
X39138Y-41502D01*
X39105Y-41338D01*
X39012Y-41198D01*
X38873Y-41105D01*
X38708Y-41072D01*
X38544Y-41105D01*
X38404Y-41198D01*
X38311Y-41338D01*
X38278Y-41502D01*
X38278Y-41710D01*
X38311Y-41875D01*
X38404Y-42014D01*
X38544Y-42107D01*
X38708Y-42140D01*
X38873Y-42107D01*
X39012Y-42014D01*
X39105Y-41875D01*
X39138Y-41710D01*
X39138Y-42192D01*
X39058Y-42159D01*
X38821Y-42159D01*
X38758Y-42221D01*
X38758Y-42752D01*
X39196Y-42752D01*
X39258Y-42690D01*
X39258Y-42915D01*
X39196Y-42852D01*
X38758Y-42852D01*
X38758Y-42860D01*
X38658Y-42860D01*
X38658Y-42852D01*
X38658Y-42752D01*
X38658Y-42221D01*
X38596Y-42159D01*
X38358Y-42159D01*
X38267Y-42197D01*
X38196Y-42267D01*
X38158Y-42359D01*
X38158Y-42458D01*
X38158Y-42690D01*
X38221Y-42752D01*
X38658Y-42752D01*
X38658Y-42852D01*
X38221Y-42852D01*
X38158Y-42915D01*
X38158Y-43146D01*
X38158Y-43147D01*
X37173Y-43147D01*
X37178Y-43136D01*
X37178Y-43084D01*
X37178Y-42218D01*
X37158Y-42170D01*
X37121Y-42133D01*
X37073Y-42114D01*
X37022Y-42114D01*
X36422Y-42114D01*
X36374Y-42133D01*
X36337Y-42170D01*
X36318Y-42218D01*
X36318Y-42270D01*
X36318Y-43136D01*
X36322Y-43147D01*
X36018Y-43147D01*
X36052Y-43125D01*
X36145Y-42985D01*
X36178Y-42821D01*
X36178Y-42533D01*
X36145Y-42368D01*
X36052Y-42229D01*
X35912Y-42135D01*
X35748Y-42103D01*
X35583Y-42135D01*
X35443Y-42229D01*
X35350Y-42368D01*
X35318Y-42533D01*
X35318Y-42821D01*
X35350Y-42985D01*
X35443Y-43125D01*
X35477Y-43147D01*
X35018Y-43147D01*
X35052Y-43125D01*
X35145Y-42985D01*
X35178Y-42821D01*
X35178Y-42533D01*
X35145Y-42368D01*
X35052Y-42229D01*
X34912Y-42135D01*
X34748Y-42103D01*
X34583Y-42135D01*
X34443Y-42229D01*
X34350Y-42368D01*
X34318Y-42533D01*
X34318Y-42821D01*
X34350Y-42985D01*
X34443Y-43125D01*
X34477Y-43147D01*
X33054Y-43147D01*
X33087Y-43125D01*
X33180Y-42985D01*
X33213Y-42821D01*
X33213Y-42533D01*
X33180Y-42368D01*
X33087Y-42229D01*
X32948Y-42135D01*
X32783Y-42103D01*
X32618Y-42135D01*
X32479Y-42229D01*
X32386Y-42368D01*
X32353Y-42533D01*
X32353Y-42821D01*
X32386Y-42985D01*
X32479Y-43125D01*
X32512Y-43147D01*
X32333Y-43147D01*
X32333Y-43060D01*
X32333Y-42789D01*
X32333Y-42564D01*
X32333Y-42293D01*
X32333Y-42194D01*
X32295Y-42102D01*
X32225Y-42032D01*
X32133Y-41994D01*
X31895Y-41994D01*
X31833Y-42056D01*
X31833Y-42627D01*
X32270Y-42627D01*
X32333Y-42564D01*
X32333Y-42789D01*
X32270Y-42727D01*
X31833Y-42727D01*
X31833Y-42735D01*
X31733Y-42735D01*
X31733Y-42727D01*
X31733Y-42627D01*
X31733Y-42056D01*
X31670Y-41994D01*
X31433Y-41994D01*
X31341Y-42032D01*
X31271Y-42102D01*
X31233Y-42194D01*
X31233Y-42293D01*
X31233Y-42564D01*
X31295Y-42627D01*
X31733Y-42627D01*
X31733Y-42727D01*
X31295Y-42727D01*
X31233Y-42789D01*
X31233Y-43060D01*
X31233Y-43147D01*
X26829Y-43147D01*
X26829Y-39634D01*
X26791Y-39540D01*
X26719Y-39468D01*
X26625Y-39430D01*
X26524Y-39429D01*
X26430Y-39468D01*
X26358Y-39540D01*
X26319Y-39634D01*
X26319Y-39735D01*
X26358Y-39829D01*
X26430Y-39901D01*
X26523Y-39939D01*
X26625Y-39940D01*
X26719Y-39901D01*
X26790Y-39829D01*
X26829Y-39735D01*
X26829Y-39634D01*
X26829Y-43147D01*
X26121Y-43147D01*
X26121Y-40028D01*
X26082Y-39934D01*
X26010Y-39862D01*
X25917Y-39823D01*
X25833Y-39823D01*
X25856Y-39708D01*
X25856Y-38708D01*
X25823Y-38544D01*
X25730Y-38404D01*
X25590Y-38311D01*
X25426Y-38278D01*
X25218Y-38278D01*
X25054Y-38311D01*
X24914Y-38404D01*
X24821Y-38544D01*
X24788Y-38708D01*
X24821Y-38873D01*
X24914Y-39012D01*
X25054Y-39105D01*
X25218Y-39138D01*
X25426Y-39138D01*
X25590Y-39105D01*
X25730Y-39012D01*
X25823Y-38873D01*
X25856Y-38708D01*
X25856Y-39708D01*
X25823Y-39544D01*
X25730Y-39404D01*
X25590Y-39311D01*
X25426Y-39278D01*
X25218Y-39278D01*
X25054Y-39311D01*
X24914Y-39404D01*
X24821Y-39544D01*
X24788Y-39708D01*
X24821Y-39873D01*
X24914Y-40012D01*
X25054Y-40105D01*
X25218Y-40138D01*
X25426Y-40138D01*
X25590Y-40105D01*
X25611Y-40092D01*
X25611Y-40129D01*
X25649Y-40222D01*
X25721Y-40294D01*
X25815Y-40333D01*
X25916Y-40333D01*
X26010Y-40295D01*
X26082Y-40223D01*
X26121Y-40129D01*
X26121Y-40028D01*
X26121Y-43147D01*
X25856Y-43147D01*
X25856Y-42708D01*
X25856Y-41708D01*
X25856Y-40708D01*
X25823Y-40544D01*
X25730Y-40404D01*
X25590Y-40311D01*
X25426Y-40278D01*
X25218Y-40278D01*
X25054Y-40311D01*
X24914Y-40404D01*
X24821Y-40544D01*
X24788Y-40708D01*
X24821Y-40873D01*
X24914Y-41012D01*
X25054Y-41105D01*
X25218Y-41138D01*
X25426Y-41138D01*
X25590Y-41105D01*
X25730Y-41012D01*
X25823Y-40873D01*
X25856Y-40708D01*
X25856Y-41708D01*
X25823Y-41544D01*
X25730Y-41404D01*
X25590Y-41311D01*
X25426Y-41278D01*
X25218Y-41278D01*
X25054Y-41311D01*
X24914Y-41404D01*
X24821Y-41544D01*
X24788Y-41708D01*
X24821Y-41873D01*
X24914Y-42012D01*
X25054Y-42105D01*
X25218Y-42138D01*
X25426Y-42138D01*
X25590Y-42105D01*
X25730Y-42012D01*
X25823Y-41873D01*
X25856Y-41708D01*
X25856Y-42708D01*
X25823Y-42544D01*
X25730Y-42404D01*
X25590Y-42311D01*
X25426Y-42278D01*
X25218Y-42278D01*
X25054Y-42311D01*
X24914Y-42404D01*
X24821Y-42544D01*
X24788Y-42708D01*
X24821Y-42873D01*
X24914Y-43012D01*
X25054Y-43105D01*
X25218Y-43138D01*
X25426Y-43138D01*
X25590Y-43105D01*
X25730Y-43012D01*
X25823Y-42873D01*
X25856Y-42708D01*
X25856Y-43147D01*
X24769Y-43147D01*
X24769Y-39058D01*
X24769Y-38821D01*
X24707Y-38758D01*
X24176Y-38758D01*
X24176Y-39196D01*
X24238Y-39258D01*
X24470Y-39258D01*
X24569Y-39258D01*
X24661Y-39220D01*
X24731Y-39150D01*
X24769Y-39058D01*
X24769Y-43147D01*
X24031Y-43147D01*
X23927Y-43126D01*
X23912Y-43116D01*
X24022Y-43138D01*
X24230Y-43138D01*
X24394Y-43105D01*
X24534Y-43012D01*
X24627Y-42873D01*
X24660Y-42708D01*
X24627Y-42544D01*
X24534Y-42404D01*
X24394Y-42311D01*
X24230Y-42278D01*
X24022Y-42278D01*
X23858Y-42311D01*
X23781Y-42362D01*
X23781Y-42054D01*
X23858Y-42105D01*
X24022Y-42138D01*
X24230Y-42138D01*
X24394Y-42105D01*
X24534Y-42012D01*
X24627Y-41873D01*
X24660Y-41708D01*
X24627Y-41544D01*
X24534Y-41404D01*
X24394Y-41311D01*
X24230Y-41278D01*
X24022Y-41278D01*
X23858Y-41311D01*
X23781Y-41362D01*
X23781Y-41054D01*
X23858Y-41105D01*
X24022Y-41138D01*
X24230Y-41138D01*
X24394Y-41105D01*
X24534Y-41012D01*
X24627Y-40873D01*
X24660Y-40708D01*
X24627Y-40544D01*
X24534Y-40404D01*
X24394Y-40311D01*
X24230Y-40278D01*
X24022Y-40278D01*
X23858Y-40311D01*
X23781Y-40362D01*
X23781Y-40054D01*
X23858Y-40105D01*
X24022Y-40138D01*
X24230Y-40138D01*
X24394Y-40105D01*
X24534Y-40012D01*
X24627Y-39873D01*
X24660Y-39708D01*
X24627Y-39544D01*
X24534Y-39404D01*
X24394Y-39311D01*
X24230Y-39278D01*
X24022Y-39278D01*
X23858Y-39311D01*
X23781Y-39362D01*
X23781Y-39258D01*
X23782Y-39258D01*
X24013Y-39258D01*
X24076Y-39196D01*
X24076Y-38758D01*
X24068Y-38758D01*
X24068Y-38658D01*
X24076Y-38658D01*
X24076Y-38221D01*
X24013Y-38158D01*
X23782Y-38158D01*
X23781Y-38158D01*
X23781Y-37924D01*
X24550Y-37924D01*
X24508Y-37965D01*
X24469Y-38059D01*
X24469Y-38158D01*
X24238Y-38158D01*
X24176Y-38221D01*
X24176Y-38658D01*
X24707Y-38658D01*
X24769Y-38596D01*
X24769Y-38365D01*
X24774Y-38365D01*
X24868Y-38326D01*
X24940Y-38254D01*
X24979Y-38161D01*
X24979Y-38059D01*
X24940Y-37965D01*
X24898Y-37924D01*
X27351Y-37924D01*
X27351Y-41821D01*
X27626Y-41821D01*
X27643Y-41846D01*
X27812Y-41960D01*
X28013Y-42000D01*
X28837Y-42000D01*
X29037Y-41960D01*
X29207Y-41846D01*
X29224Y-41821D01*
X30478Y-41821D01*
X30509Y-41852D01*
X30564Y-41889D01*
X30564Y-41889D01*
X30629Y-41902D01*
X32204Y-41902D01*
X32269Y-41889D01*
X32269Y-41889D01*
X32324Y-41852D01*
X32355Y-41821D01*
X33419Y-41821D01*
X33425Y-41837D01*
X33448Y-41860D01*
X33405Y-41902D01*
X33367Y-41996D01*
X33367Y-42097D01*
X33405Y-42191D01*
X33477Y-42263D01*
X33571Y-42302D01*
X33672Y-42302D01*
X33766Y-42263D01*
X33838Y-42191D01*
X33877Y-42098D01*
X33877Y-41996D01*
X33838Y-41902D01*
X33815Y-41879D01*
X33857Y-41837D01*
X33864Y-41821D01*
X36087Y-41821D01*
X36115Y-41849D01*
X36208Y-41888D01*
X36310Y-41888D01*
X36404Y-41850D01*
X36432Y-41821D01*
X37845Y-41821D01*
X37845Y-40916D01*
X39698Y-40916D01*
X39704Y-40931D01*
X39776Y-41003D01*
X39870Y-41042D01*
X39971Y-41042D01*
X40065Y-41003D01*
X40137Y-40932D01*
X40143Y-40916D01*
X41979Y-40916D01*
X41979Y-40799D01*
X42132Y-40799D01*
X42178Y-40845D01*
X42271Y-40884D01*
X42373Y-40884D01*
X42467Y-40846D01*
X42538Y-40774D01*
X42577Y-40680D01*
X42577Y-40579D01*
X42539Y-40485D01*
X42467Y-40413D01*
X42373Y-40374D01*
X42272Y-40374D01*
X42178Y-40413D01*
X42132Y-40459D01*
X41979Y-40459D01*
X41979Y-39808D01*
X42014Y-39784D01*
X42107Y-39644D01*
X42140Y-39480D01*
X42107Y-39315D01*
X42014Y-39176D01*
X41979Y-39152D01*
X41979Y-38808D01*
X42014Y-38784D01*
X42107Y-38644D01*
X42140Y-38480D01*
X42107Y-38315D01*
X42014Y-38176D01*
X41979Y-38152D01*
X41979Y-37808D01*
X42014Y-37784D01*
X42107Y-37644D01*
X42140Y-37480D01*
X42107Y-37315D01*
X42014Y-37176D01*
X41979Y-37152D01*
X41979Y-36808D01*
X42014Y-36784D01*
X42107Y-36644D01*
X42140Y-36480D01*
X42107Y-36315D01*
X42014Y-36176D01*
X41979Y-36152D01*
X41979Y-35808D01*
X42014Y-35784D01*
X42107Y-35644D01*
X42140Y-35480D01*
X42107Y-35315D01*
X42014Y-35176D01*
X41979Y-35152D01*
X41979Y-33611D01*
X42014Y-33587D01*
X42107Y-33448D01*
X42140Y-33283D01*
X42107Y-33118D01*
X42014Y-32979D01*
X41979Y-32955D01*
X41979Y-32845D01*
X42195Y-32845D01*
X42159Y-32933D01*
X42159Y-33170D01*
X42221Y-33233D01*
X42752Y-33233D01*
X42752Y-33225D01*
X42852Y-33225D01*
X42852Y-33233D01*
X42860Y-33233D01*
X42860Y-33333D01*
X42852Y-33333D01*
X42852Y-33770D01*
X42915Y-33833D01*
X43146Y-33833D01*
X43147Y-33833D01*
X43147Y-35134D01*
X43071Y-35083D01*
X42906Y-35050D01*
X42752Y-35050D01*
X42752Y-33770D01*
X42752Y-33333D01*
X42221Y-33333D01*
X42159Y-33395D01*
X42159Y-33633D01*
X42197Y-33725D01*
X42267Y-33795D01*
X42359Y-33833D01*
X42458Y-33833D01*
X42690Y-33833D01*
X42752Y-33770D01*
X42752Y-35050D01*
X42698Y-35050D01*
X42534Y-35083D01*
X42394Y-35176D01*
X42301Y-35315D01*
X42268Y-35480D01*
X42301Y-35644D01*
X42394Y-35784D01*
X42534Y-35877D01*
X42698Y-35910D01*
X42906Y-35910D01*
X43071Y-35877D01*
X43147Y-35826D01*
X43147Y-36134D01*
X43071Y-36083D01*
X42906Y-36050D01*
X42698Y-36050D01*
X42534Y-36083D01*
X42394Y-36176D01*
X42301Y-36315D01*
X42268Y-36480D01*
X42301Y-36644D01*
X42394Y-36784D01*
X42534Y-36877D01*
X42698Y-36910D01*
X42906Y-36910D01*
X43071Y-36877D01*
X43147Y-36826D01*
X43147Y-37134D01*
X43071Y-37083D01*
X42906Y-37050D01*
X42698Y-37050D01*
X42534Y-37083D01*
X42394Y-37176D01*
X42301Y-37315D01*
X42268Y-37480D01*
X42301Y-37644D01*
X42394Y-37784D01*
X42534Y-37877D01*
X42698Y-37910D01*
X42906Y-37910D01*
X43071Y-37877D01*
X43147Y-37826D01*
X43147Y-38134D01*
X43071Y-38083D01*
X42906Y-38050D01*
X42698Y-38050D01*
X42534Y-38083D01*
X42394Y-38176D01*
X42301Y-38315D01*
X42268Y-38480D01*
X42301Y-38644D01*
X42394Y-38784D01*
X42534Y-38877D01*
X42698Y-38910D01*
X42906Y-38910D01*
X43071Y-38877D01*
X43147Y-38826D01*
X43147Y-38930D01*
X43146Y-38930D01*
X42915Y-38930D01*
X42852Y-38992D01*
X42852Y-39430D01*
X42860Y-39430D01*
X42860Y-39530D01*
X42852Y-39530D01*
X42852Y-39967D01*
X42915Y-40030D01*
X43146Y-40030D01*
X43147Y-40030D01*
X43147Y-42897D01*
X43147Y-42897D01*
G37*
G54D28*
X43147Y-42897D02*
X43126Y-43001D01*
X43116Y-43017D01*
X43138Y-42906D01*
X43138Y-42698D01*
X43138Y-41710D01*
X43138Y-41502D01*
X43105Y-41338D01*
X43012Y-41198D01*
X42873Y-41105D01*
X42752Y-41081D01*
X42752Y-39967D01*
X42752Y-39530D01*
X42752Y-39430D01*
X42752Y-38992D01*
X42690Y-38930D01*
X42458Y-38930D01*
X42359Y-38930D01*
X42267Y-38968D01*
X42197Y-39038D01*
X42159Y-39130D01*
X42159Y-39367D01*
X42221Y-39430D01*
X42752Y-39430D01*
X42752Y-39530D01*
X42221Y-39530D01*
X42159Y-39592D01*
X42159Y-39830D01*
X42197Y-39921D01*
X42267Y-39992D01*
X42359Y-40030D01*
X42458Y-40030D01*
X42690Y-40030D01*
X42752Y-39967D01*
X42752Y-41081D01*
X42708Y-41072D01*
X42544Y-41105D01*
X42404Y-41198D01*
X42311Y-41338D01*
X42278Y-41502D01*
X42278Y-41710D01*
X42311Y-41875D01*
X42404Y-42014D01*
X42544Y-42107D01*
X42708Y-42140D01*
X42873Y-42107D01*
X43012Y-42014D01*
X43105Y-41875D01*
X43138Y-41710D01*
X43138Y-42698D01*
X43105Y-42534D01*
X43012Y-42394D01*
X42873Y-42301D01*
X42708Y-42268D01*
X42544Y-42301D01*
X42404Y-42394D01*
X42311Y-42534D01*
X42278Y-42698D01*
X42278Y-42906D01*
X42311Y-43071D01*
X42362Y-43147D01*
X42054Y-43147D01*
X42105Y-43071D01*
X42138Y-42906D01*
X42138Y-42698D01*
X42138Y-41710D01*
X42138Y-41502D01*
X42105Y-41338D01*
X42012Y-41198D01*
X41873Y-41105D01*
X41708Y-41072D01*
X41544Y-41105D01*
X41404Y-41198D01*
X41311Y-41338D01*
X41278Y-41502D01*
X41278Y-41710D01*
X41311Y-41875D01*
X41404Y-42014D01*
X41544Y-42107D01*
X41708Y-42140D01*
X41873Y-42107D01*
X42012Y-42014D01*
X42105Y-41875D01*
X42138Y-41710D01*
X42138Y-42698D01*
X42105Y-42534D01*
X42012Y-42394D01*
X41873Y-42301D01*
X41708Y-42268D01*
X41544Y-42301D01*
X41404Y-42394D01*
X41311Y-42534D01*
X41278Y-42698D01*
X41278Y-42906D01*
X41311Y-43071D01*
X41362Y-43147D01*
X41054Y-43147D01*
X41105Y-43071D01*
X41138Y-42906D01*
X41138Y-42698D01*
X41138Y-41710D01*
X41138Y-41502D01*
X41105Y-41338D01*
X41012Y-41198D01*
X40873Y-41105D01*
X40708Y-41072D01*
X40544Y-41105D01*
X40404Y-41198D01*
X40311Y-41338D01*
X40278Y-41502D01*
X40278Y-41710D01*
X40311Y-41875D01*
X40404Y-42014D01*
X40544Y-42107D01*
X40708Y-42140D01*
X40873Y-42107D01*
X41012Y-42014D01*
X41105Y-41875D01*
X41138Y-41710D01*
X41138Y-42698D01*
X41105Y-42534D01*
X41012Y-42394D01*
X40873Y-42301D01*
X40708Y-42268D01*
X40544Y-42301D01*
X40404Y-42394D01*
X40311Y-42534D01*
X40278Y-42698D01*
X40278Y-42906D01*
X40311Y-43071D01*
X40362Y-43147D01*
X40054Y-43147D01*
X40105Y-43071D01*
X40138Y-42906D01*
X40138Y-42698D01*
X40138Y-41710D01*
X40138Y-41502D01*
X40105Y-41338D01*
X40012Y-41198D01*
X39873Y-41105D01*
X39708Y-41072D01*
X39544Y-41105D01*
X39404Y-41198D01*
X39311Y-41338D01*
X39278Y-41502D01*
X39278Y-41710D01*
X39311Y-41875D01*
X39404Y-42014D01*
X39544Y-42107D01*
X39708Y-42140D01*
X39873Y-42107D01*
X40012Y-42014D01*
X40105Y-41875D01*
X40138Y-41710D01*
X40138Y-42698D01*
X40105Y-42534D01*
X40012Y-42394D01*
X39873Y-42301D01*
X39708Y-42268D01*
X39544Y-42301D01*
X39404Y-42394D01*
X39311Y-42534D01*
X39278Y-42698D01*
X39278Y-42906D01*
X39311Y-43071D01*
X39362Y-43147D01*
X39258Y-43147D01*
X39258Y-43146D01*
X39258Y-42915D01*
X39258Y-42690D01*
X39258Y-42458D01*
X39258Y-42359D01*
X39220Y-42267D01*
X39150Y-42197D01*
X39138Y-42192D01*
X39138Y-41710D01*
X39138Y-41502D01*
X39105Y-41338D01*
X39012Y-41198D01*
X38873Y-41105D01*
X38708Y-41072D01*
X38544Y-41105D01*
X38404Y-41198D01*
X38311Y-41338D01*
X38278Y-41502D01*
X38278Y-41710D01*
X38311Y-41875D01*
X38404Y-42014D01*
X38544Y-42107D01*
X38708Y-42140D01*
X38873Y-42107D01*
X39012Y-42014D01*
X39105Y-41875D01*
X39138Y-41710D01*
X39138Y-42192D01*
X39058Y-42159D01*
X38821Y-42159D01*
X38758Y-42221D01*
X38758Y-42752D01*
X39196Y-42752D01*
X39258Y-42690D01*
X39258Y-42915D01*
X39196Y-42852D01*
X38758Y-42852D01*
X38758Y-42860D01*
X38658Y-42860D01*
X38658Y-42852D01*
X38658Y-42752D01*
X38658Y-42221D01*
X38596Y-42159D01*
X38358Y-42159D01*
X38267Y-42197D01*
X38196Y-42267D01*
X38158Y-42359D01*
X38158Y-42458D01*
X38158Y-42690D01*
X38221Y-42752D01*
X38658Y-42752D01*
X38658Y-42852D01*
X38221Y-42852D01*
X38158Y-42915D01*
X38158Y-43146D01*
X38158Y-43147D01*
X37173Y-43147D01*
X37178Y-43136D01*
X37178Y-43084D01*
X37178Y-42218D01*
X37158Y-42170D01*
X37121Y-42133D01*
X37073Y-42114D01*
X37022Y-42114D01*
X36422Y-42114D01*
X36374Y-42133D01*
X36337Y-42170D01*
X36318Y-42218D01*
X36318Y-42270D01*
X36318Y-43136D01*
X36322Y-43147D01*
X36018Y-43147D01*
X36052Y-43125D01*
X36145Y-42985D01*
X36178Y-42821D01*
X36178Y-42533D01*
X36145Y-42368D01*
X36052Y-42229D01*
X35912Y-42135D01*
X35748Y-42103D01*
X35583Y-42135D01*
X35443Y-42229D01*
X35350Y-42368D01*
X35318Y-42533D01*
X35318Y-42821D01*
X35350Y-42985D01*
X35443Y-43125D01*
X35477Y-43147D01*
X35018Y-43147D01*
X35052Y-43125D01*
X35145Y-42985D01*
X35178Y-42821D01*
X35178Y-42533D01*
X35145Y-42368D01*
X35052Y-42229D01*
X34912Y-42135D01*
X34748Y-42103D01*
X34583Y-42135D01*
X34443Y-42229D01*
X34350Y-42368D01*
X34318Y-42533D01*
X34318Y-42821D01*
X34350Y-42985D01*
X34443Y-43125D01*
X34477Y-43147D01*
X33054Y-43147D01*
X33087Y-43125D01*
X33180Y-42985D01*
X33213Y-42821D01*
X33213Y-42533D01*
X33180Y-42368D01*
X33087Y-42229D01*
X32948Y-42135D01*
X32783Y-42103D01*
X32618Y-42135D01*
X32479Y-42229D01*
X32386Y-42368D01*
X32353Y-42533D01*
X32353Y-42821D01*
X32386Y-42985D01*
X32479Y-43125D01*
X32512Y-43147D01*
X32333Y-43147D01*
X32333Y-43060D01*
X32333Y-42789D01*
X32333Y-42564D01*
X32333Y-42293D01*
X32333Y-42194D01*
X32295Y-42102D01*
X32225Y-42032D01*
X32133Y-41994D01*
X31895Y-41994D01*
X31833Y-42056D01*
X31833Y-42627D01*
X32270Y-42627D01*
X32333Y-42564D01*
X32333Y-42789D01*
X32270Y-42727D01*
X31833Y-42727D01*
X31833Y-42735D01*
X31733Y-42735D01*
X31733Y-42727D01*
X31733Y-42627D01*
X31733Y-42056D01*
X31670Y-41994D01*
X31433Y-41994D01*
X31341Y-42032D01*
X31271Y-42102D01*
X31233Y-42194D01*
X31233Y-42293D01*
X31233Y-42564D01*
X31295Y-42627D01*
X31733Y-42627D01*
X31733Y-42727D01*
X31295Y-42727D01*
X31233Y-42789D01*
X31233Y-43060D01*
X31233Y-43147D01*
X26829Y-43147D01*
X26829Y-39634D01*
X26791Y-39540D01*
X26719Y-39468D01*
X26625Y-39430D01*
X26524Y-39429D01*
X26430Y-39468D01*
X26358Y-39540D01*
X26319Y-39634D01*
X26319Y-39735D01*
X26358Y-39829D01*
X26430Y-39901D01*
X26523Y-39939D01*
X26625Y-39940D01*
X26719Y-39901D01*
X26790Y-39829D01*
X26829Y-39735D01*
X26829Y-39634D01*
X26829Y-43147D01*
X26121Y-43147D01*
X26121Y-40028D01*
X26082Y-39934D01*
X26010Y-39862D01*
X25917Y-39823D01*
X25833Y-39823D01*
X25856Y-39708D01*
X25856Y-38708D01*
X25823Y-38544D01*
X25730Y-38404D01*
X25590Y-38311D01*
X25426Y-38278D01*
X25218Y-38278D01*
X25054Y-38311D01*
X24914Y-38404D01*
X24821Y-38544D01*
X24788Y-38708D01*
X24821Y-38873D01*
X24914Y-39012D01*
X25054Y-39105D01*
X25218Y-39138D01*
X25426Y-39138D01*
X25590Y-39105D01*
X25730Y-39012D01*
X25823Y-38873D01*
X25856Y-38708D01*
X25856Y-39708D01*
X25823Y-39544D01*
X25730Y-39404D01*
X25590Y-39311D01*
X25426Y-39278D01*
X25218Y-39278D01*
X25054Y-39311D01*
X24914Y-39404D01*
X24821Y-39544D01*
X24788Y-39708D01*
X24821Y-39873D01*
X24914Y-40012D01*
X25054Y-40105D01*
X25218Y-40138D01*
X25426Y-40138D01*
X25590Y-40105D01*
X25611Y-40092D01*
X25611Y-40129D01*
X25649Y-40222D01*
X25721Y-40294D01*
X25815Y-40333D01*
X25916Y-40333D01*
X26010Y-40295D01*
X26082Y-40223D01*
X26121Y-40129D01*
X26121Y-40028D01*
X26121Y-43147D01*
X25856Y-43147D01*
X25856Y-42708D01*
X25856Y-41708D01*
X25856Y-40708D01*
X25823Y-40544D01*
X25730Y-40404D01*
X25590Y-40311D01*
X25426Y-40278D01*
X25218Y-40278D01*
X25054Y-40311D01*
X24914Y-40404D01*
X24821Y-40544D01*
X24788Y-40708D01*
X24821Y-40873D01*
X24914Y-41012D01*
X25054Y-41105D01*
X25218Y-41138D01*
X25426Y-41138D01*
X25590Y-41105D01*
X25730Y-41012D01*
X25823Y-40873D01*
X25856Y-40708D01*
X25856Y-41708D01*
X25823Y-41544D01*
X25730Y-41404D01*
X25590Y-41311D01*
X25426Y-41278D01*
X25218Y-41278D01*
X25054Y-41311D01*
X24914Y-41404D01*
X24821Y-41544D01*
X24788Y-41708D01*
X24821Y-41873D01*
X24914Y-42012D01*
X25054Y-42105D01*
X25218Y-42138D01*
X25426Y-42138D01*
X25590Y-42105D01*
X25730Y-42012D01*
X25823Y-41873D01*
X25856Y-41708D01*
X25856Y-42708D01*
X25823Y-42544D01*
X25730Y-42404D01*
X25590Y-42311D01*
X25426Y-42278D01*
X25218Y-42278D01*
X25054Y-42311D01*
X24914Y-42404D01*
X24821Y-42544D01*
X24788Y-42708D01*
X24821Y-42873D01*
X24914Y-43012D01*
X25054Y-43105D01*
X25218Y-43138D01*
X25426Y-43138D01*
X25590Y-43105D01*
X25730Y-43012D01*
X25823Y-42873D01*
X25856Y-42708D01*
X25856Y-43147D01*
X24769Y-43147D01*
X24769Y-39058D01*
X24769Y-38821D01*
X24707Y-38758D01*
X24176Y-38758D01*
X24176Y-39196D01*
X24238Y-39258D01*
X24470Y-39258D01*
X24569Y-39258D01*
X24661Y-39220D01*
X24731Y-39150D01*
X24769Y-39058D01*
X24769Y-43147D01*
X24031Y-43147D01*
X23927Y-43126D01*
X23912Y-43116D01*
X24022Y-43138D01*
X24230Y-43138D01*
X24394Y-43105D01*
X24534Y-43012D01*
X24627Y-42873D01*
X24660Y-42708D01*
X24627Y-42544D01*
X24534Y-42404D01*
X24394Y-42311D01*
X24230Y-42278D01*
X24022Y-42278D01*
X23858Y-42311D01*
X23781Y-42362D01*
X23781Y-42054D01*
X23858Y-42105D01*
X24022Y-42138D01*
X24230Y-42138D01*
X24394Y-42105D01*
X24534Y-42012D01*
X24627Y-41873D01*
X24660Y-41708D01*
X24627Y-41544D01*
X24534Y-41404D01*
X24394Y-41311D01*
X24230Y-41278D01*
X24022Y-41278D01*
X23858Y-41311D01*
X23781Y-41362D01*
X23781Y-41054D01*
X23858Y-41105D01*
X24022Y-41138D01*
X24230Y-41138D01*
X24394Y-41105D01*
X24534Y-41012D01*
X24627Y-40873D01*
X24660Y-40708D01*
X24627Y-40544D01*
X24534Y-40404D01*
X24394Y-40311D01*
X24230Y-40278D01*
X24022Y-40278D01*
X23858Y-40311D01*
X23781Y-40362D01*
X23781Y-40054D01*
X23858Y-40105D01*
X24022Y-40138D01*
X24230Y-40138D01*
X24394Y-40105D01*
X24534Y-40012D01*
X24627Y-39873D01*
X24660Y-39708D01*
X24627Y-39544D01*
X24534Y-39404D01*
X24394Y-39311D01*
X24230Y-39278D01*
X24022Y-39278D01*
X23858Y-39311D01*
X23781Y-39362D01*
X23781Y-39258D01*
X23782Y-39258D01*
X24013Y-39258D01*
X24076Y-39196D01*
X24076Y-38758D01*
X24068Y-38758D01*
X24068Y-38658D01*
X24076Y-38658D01*
X24076Y-38221D01*
X24013Y-38158D01*
X23782Y-38158D01*
X23781Y-38158D01*
X23781Y-37924D01*
X24550Y-37924D01*
X24508Y-37965D01*
X24469Y-38059D01*
X24469Y-38158D01*
X24238Y-38158D01*
X24176Y-38221D01*
X24176Y-38658D01*
X24707Y-38658D01*
X24769Y-38596D01*
X24769Y-38365D01*
X24774Y-38365D01*
X24868Y-38326D01*
X24940Y-38254D01*
X24979Y-38161D01*
X24979Y-38059D01*
X24940Y-37965D01*
X24898Y-37924D01*
X27351Y-37924D01*
X27351Y-41821D01*
X27626Y-41821D01*
X27643Y-41846D01*
X27812Y-41960D01*
X28013Y-42000D01*
X28837Y-42000D01*
X29037Y-41960D01*
X29207Y-41846D01*
X29224Y-41821D01*
X30478Y-41821D01*
X30509Y-41852D01*
X30564Y-41889D01*
X30564Y-41889D01*
X30629Y-41902D01*
X32204Y-41902D01*
X32269Y-41889D01*
X32269Y-41889D01*
X32324Y-41852D01*
X32355Y-41821D01*
X33419Y-41821D01*
X33425Y-41837D01*
X33448Y-41860D01*
X33405Y-41902D01*
X33367Y-41996D01*
X33367Y-42097D01*
X33405Y-42191D01*
X33477Y-42263D01*
X33571Y-42302D01*
X33672Y-42302D01*
X33766Y-42263D01*
X33838Y-42191D01*
X33877Y-42098D01*
X33877Y-41996D01*
X33838Y-41902D01*
X33815Y-41879D01*
X33857Y-41837D01*
X33864Y-41821D01*
X36087Y-41821D01*
X36115Y-41849D01*
X36208Y-41888D01*
X36310Y-41888D01*
X36404Y-41850D01*
X36432Y-41821D01*
X37845Y-41821D01*
X37845Y-40916D01*
X39698Y-40916D01*
X39704Y-40931D01*
X39776Y-41003D01*
X39870Y-41042D01*
X39971Y-41042D01*
X40065Y-41003D01*
X40137Y-40932D01*
X40143Y-40916D01*
X41979Y-40916D01*
X41979Y-40799D01*
X42132Y-40799D01*
X42178Y-40845D01*
X42271Y-40884D01*
X42373Y-40884D01*
X42467Y-40846D01*
X42538Y-40774D01*
X42577Y-40680D01*
X42577Y-40579D01*
X42539Y-40485D01*
X42467Y-40413D01*
X42373Y-40374D01*
X42272Y-40374D01*
X42178Y-40413D01*
X42132Y-40459D01*
X41979Y-40459D01*
X41979Y-39808D01*
X42014Y-39784D01*
X42107Y-39644D01*
X42140Y-39480D01*
X42107Y-39315D01*
X42014Y-39176D01*
X41979Y-39152D01*
X41979Y-38808D01*
X42014Y-38784D01*
X42107Y-38644D01*
X42140Y-38480D01*
X42107Y-38315D01*
X42014Y-38176D01*
X41979Y-38152D01*
X41979Y-37808D01*
X42014Y-37784D01*
X42107Y-37644D01*
X42140Y-37480D01*
X42107Y-37315D01*
X42014Y-37176D01*
X41979Y-37152D01*
X41979Y-36808D01*
X42014Y-36784D01*
X42107Y-36644D01*
X42140Y-36480D01*
X42107Y-36315D01*
X42014Y-36176D01*
X41979Y-36152D01*
X41979Y-35808D01*
X42014Y-35784D01*
X42107Y-35644D01*
X42140Y-35480D01*
X42107Y-35315D01*
X42014Y-35176D01*
X41979Y-35152D01*
X41979Y-33611D01*
X42014Y-33587D01*
X42107Y-33448D01*
X42140Y-33283D01*
X42107Y-33118D01*
X42014Y-32979D01*
X41979Y-32955D01*
X41979Y-32845D01*
X42195Y-32845D01*
X42159Y-32933D01*
X42159Y-33170D01*
X42221Y-33233D01*
X42752Y-33233D01*
X42752Y-33225D01*
X42852Y-33225D01*
X42852Y-33233D01*
X42860Y-33233D01*
X42860Y-33333D01*
X42852Y-33333D01*
X42852Y-33770D01*
X42915Y-33833D01*
X43146Y-33833D01*
X43147Y-33833D01*
X43147Y-35134D01*
X43071Y-35083D01*
X42906Y-35050D01*
X42752Y-35050D01*
X42752Y-33770D01*
X42752Y-33333D01*
X42221Y-33333D01*
X42159Y-33395D01*
X42159Y-33633D01*
X42197Y-33725D01*
X42267Y-33795D01*
X42359Y-33833D01*
X42458Y-33833D01*
X42690Y-33833D01*
X42752Y-33770D01*
X42752Y-35050D01*
X42698Y-35050D01*
X42534Y-35083D01*
X42394Y-35176D01*
X42301Y-35315D01*
X42268Y-35480D01*
X42301Y-35644D01*
X42394Y-35784D01*
X42534Y-35877D01*
X42698Y-35910D01*
X42906Y-35910D01*
X43071Y-35877D01*
X43147Y-35826D01*
X43147Y-36134D01*
X43071Y-36083D01*
X42906Y-36050D01*
X42698Y-36050D01*
X42534Y-36083D01*
X42394Y-36176D01*
X42301Y-36315D01*
X42268Y-36480D01*
X42301Y-36644D01*
X42394Y-36784D01*
X42534Y-36877D01*
X42698Y-36910D01*
X42906Y-36910D01*
X43071Y-36877D01*
X43147Y-36826D01*
X43147Y-37134D01*
X43071Y-37083D01*
X42906Y-37050D01*
X42698Y-37050D01*
X42534Y-37083D01*
X42394Y-37176D01*
X42301Y-37315D01*
X42268Y-37480D01*
X42301Y-37644D01*
X42394Y-37784D01*
X42534Y-37877D01*
X42698Y-37910D01*
X42906Y-37910D01*
X43071Y-37877D01*
X43147Y-37826D01*
X43147Y-38134D01*
X43071Y-38083D01*
X42906Y-38050D01*
X42698Y-38050D01*
X42534Y-38083D01*
X42394Y-38176D01*
X42301Y-38315D01*
X42268Y-38480D01*
X42301Y-38644D01*
X42394Y-38784D01*
X42534Y-38877D01*
X42698Y-38910D01*
X42906Y-38910D01*
X43071Y-38877D01*
X43147Y-38826D01*
X43147Y-38930D01*
X43146Y-38930D01*
X42915Y-38930D01*
X42852Y-38992D01*
X42852Y-39430D01*
X42860Y-39430D01*
X42860Y-39530D01*
X42852Y-39530D01*
X42852Y-39967D01*
X42915Y-40030D01*
X43146Y-40030D01*
X43147Y-40030D01*
X43147Y-42897D01*
G54D10*
G36*
X37824Y-40698D02*
X37814Y-40698D01*
X37814Y-35225D01*
X37775Y-35131D01*
X37703Y-35059D01*
X37646Y-35035D01*
X37656Y-35011D01*
X37656Y-34910D01*
X37617Y-34816D01*
X37546Y-34744D01*
X37452Y-34705D01*
X37351Y-34705D01*
X37257Y-34744D01*
X37185Y-34815D01*
X37146Y-34909D01*
X37146Y-35011D01*
X37185Y-35104D01*
X37256Y-35176D01*
X37314Y-35200D01*
X37304Y-35224D01*
X37304Y-35299D01*
X37217Y-35334D01*
X37146Y-35406D01*
X37107Y-35500D01*
X37107Y-35601D01*
X37145Y-35695D01*
X37217Y-35767D01*
X37311Y-35806D01*
X37412Y-35806D01*
X37506Y-35767D01*
X37578Y-35695D01*
X37617Y-35602D01*
X37617Y-35527D01*
X37703Y-35491D01*
X37775Y-35420D01*
X37814Y-35326D01*
X37814Y-35225D01*
X37814Y-40698D01*
X37798Y-40698D01*
X37775Y-40643D01*
X37703Y-40571D01*
X37676Y-40559D01*
X37676Y-40480D01*
X37637Y-40387D01*
X37565Y-40315D01*
X37472Y-40276D01*
X37370Y-40276D01*
X37277Y-40315D01*
X37205Y-40386D01*
X37166Y-40480D01*
X37166Y-40581D01*
X37204Y-40675D01*
X37276Y-40747D01*
X37304Y-40758D01*
X37304Y-40837D01*
X37312Y-40859D01*
X37296Y-40866D01*
X37224Y-40938D01*
X37185Y-41031D01*
X37185Y-41133D01*
X37224Y-41226D01*
X37296Y-41298D01*
X37389Y-41337D01*
X37491Y-41337D01*
X37585Y-41298D01*
X37627Y-41257D01*
X37627Y-41603D01*
X36514Y-41603D01*
X36514Y-41583D01*
X36476Y-41489D01*
X36404Y-41417D01*
X36310Y-41378D01*
X36209Y-41378D01*
X36115Y-41417D01*
X36043Y-41489D01*
X36004Y-41582D01*
X36004Y-41603D01*
X33880Y-41603D01*
X33858Y-41548D01*
X33786Y-41476D01*
X33692Y-41437D01*
X33591Y-41437D01*
X33497Y-41476D01*
X33425Y-41548D01*
X33402Y-41603D01*
X32201Y-41603D01*
X32243Y-41561D01*
X32282Y-41468D01*
X32282Y-41366D01*
X32261Y-41315D01*
X32348Y-41279D01*
X32420Y-41207D01*
X32459Y-41113D01*
X32459Y-41012D01*
X32421Y-40918D01*
X32349Y-40846D01*
X32255Y-40808D01*
X32154Y-40807D01*
X32060Y-40846D01*
X31998Y-40909D01*
X31995Y-40905D01*
X31901Y-40867D01*
X31799Y-40867D01*
X31706Y-40905D01*
X31634Y-40977D01*
X31595Y-41071D01*
X31595Y-41172D01*
X31634Y-41266D01*
X31705Y-41338D01*
X31772Y-41365D01*
X31772Y-41366D01*
X31772Y-41467D01*
X31811Y-41561D01*
X31853Y-41603D01*
X29543Y-41603D01*
X29543Y-39263D01*
X29543Y-38964D01*
X29531Y-38913D01*
X29408Y-38694D01*
X29210Y-38538D01*
X28967Y-38470D01*
X28475Y-38470D01*
X28475Y-39063D01*
X29496Y-39063D01*
X29543Y-38964D01*
X29543Y-39263D01*
X29496Y-39163D01*
X28475Y-39163D01*
X28475Y-39757D01*
X28967Y-39757D01*
X29210Y-39689D01*
X29408Y-39533D01*
X29531Y-39313D01*
X29543Y-39263D01*
X29543Y-41603D01*
X29335Y-41603D01*
X29360Y-41476D01*
X29320Y-41276D01*
X29207Y-41106D01*
X29037Y-40993D01*
X28837Y-40953D01*
X28013Y-40953D01*
X27812Y-40993D01*
X27643Y-41106D01*
X27569Y-41216D01*
X27569Y-39633D01*
X27640Y-39689D01*
X27882Y-39757D01*
X28375Y-39757D01*
X28375Y-39163D01*
X28367Y-39163D01*
X28367Y-39063D01*
X28375Y-39063D01*
X28375Y-38470D01*
X27882Y-38470D01*
X27640Y-38538D01*
X27569Y-38593D01*
X27569Y-38238D01*
X28894Y-38238D01*
X28917Y-38293D01*
X28989Y-38365D01*
X29082Y-38404D01*
X29184Y-38404D01*
X29278Y-38365D01*
X29349Y-38294D01*
X29372Y-38238D01*
X29664Y-38238D01*
X30711Y-39286D01*
X30695Y-39279D01*
X30330Y-39279D01*
X29993Y-39418D01*
X29734Y-39676D01*
X29594Y-40013D01*
X29594Y-40378D01*
X29734Y-40715D01*
X29991Y-40974D01*
X30328Y-41114D01*
X30693Y-41114D01*
X31031Y-40974D01*
X31289Y-40717D01*
X31429Y-40380D01*
X31429Y-40015D01*
X31422Y-39996D01*
X31711Y-40286D01*
X36270Y-40286D01*
X36270Y-33750D01*
X37824Y-33750D01*
X37824Y-40698D01*
X37824Y-40698D01*
G37*
G54D28*
X37824Y-40698D02*
X37814Y-40698D01*
X37814Y-35225D01*
X37775Y-35131D01*
X37703Y-35059D01*
X37646Y-35035D01*
X37656Y-35011D01*
X37656Y-34910D01*
X37617Y-34816D01*
X37546Y-34744D01*
X37452Y-34705D01*
X37351Y-34705D01*
X37257Y-34744D01*
X37185Y-34815D01*
X37146Y-34909D01*
X37146Y-35011D01*
X37185Y-35104D01*
X37256Y-35176D01*
X37314Y-35200D01*
X37304Y-35224D01*
X37304Y-35299D01*
X37217Y-35334D01*
X37146Y-35406D01*
X37107Y-35500D01*
X37107Y-35601D01*
X37145Y-35695D01*
X37217Y-35767D01*
X37311Y-35806D01*
X37412Y-35806D01*
X37506Y-35767D01*
X37578Y-35695D01*
X37617Y-35602D01*
X37617Y-35527D01*
X37703Y-35491D01*
X37775Y-35420D01*
X37814Y-35326D01*
X37814Y-35225D01*
X37814Y-40698D01*
X37798Y-40698D01*
X37775Y-40643D01*
X37703Y-40571D01*
X37676Y-40559D01*
X37676Y-40480D01*
X37637Y-40387D01*
X37565Y-40315D01*
X37472Y-40276D01*
X37370Y-40276D01*
X37277Y-40315D01*
X37205Y-40386D01*
X37166Y-40480D01*
X37166Y-40581D01*
X37204Y-40675D01*
X37276Y-40747D01*
X37304Y-40758D01*
X37304Y-40837D01*
X37312Y-40859D01*
X37296Y-40866D01*
X37224Y-40938D01*
X37185Y-41031D01*
X37185Y-41133D01*
X37224Y-41226D01*
X37296Y-41298D01*
X37389Y-41337D01*
X37491Y-41337D01*
X37585Y-41298D01*
X37627Y-41257D01*
X37627Y-41603D01*
X36514Y-41603D01*
X36514Y-41583D01*
X36476Y-41489D01*
X36404Y-41417D01*
X36310Y-41378D01*
X36209Y-41378D01*
X36115Y-41417D01*
X36043Y-41489D01*
X36004Y-41582D01*
X36004Y-41603D01*
X33880Y-41603D01*
X33858Y-41548D01*
X33786Y-41476D01*
X33692Y-41437D01*
X33591Y-41437D01*
X33497Y-41476D01*
X33425Y-41548D01*
X33402Y-41603D01*
X32201Y-41603D01*
X32243Y-41561D01*
X32282Y-41468D01*
X32282Y-41366D01*
X32261Y-41315D01*
X32348Y-41279D01*
X32420Y-41207D01*
X32459Y-41113D01*
X32459Y-41012D01*
X32421Y-40918D01*
X32349Y-40846D01*
X32255Y-40808D01*
X32154Y-40807D01*
X32060Y-40846D01*
X31998Y-40909D01*
X31995Y-40905D01*
X31901Y-40867D01*
X31799Y-40867D01*
X31706Y-40905D01*
X31634Y-40977D01*
X31595Y-41071D01*
X31595Y-41172D01*
X31634Y-41266D01*
X31705Y-41338D01*
X31772Y-41365D01*
X31772Y-41366D01*
X31772Y-41467D01*
X31811Y-41561D01*
X31853Y-41603D01*
X29543Y-41603D01*
X29543Y-39263D01*
X29543Y-38964D01*
X29531Y-38913D01*
X29408Y-38694D01*
X29210Y-38538D01*
X28967Y-38470D01*
X28475Y-38470D01*
X28475Y-39063D01*
X29496Y-39063D01*
X29543Y-38964D01*
X29543Y-39263D01*
X29496Y-39163D01*
X28475Y-39163D01*
X28475Y-39757D01*
X28967Y-39757D01*
X29210Y-39689D01*
X29408Y-39533D01*
X29531Y-39313D01*
X29543Y-39263D01*
X29543Y-41603D01*
X29335Y-41603D01*
X29360Y-41476D01*
X29320Y-41276D01*
X29207Y-41106D01*
X29037Y-40993D01*
X28837Y-40953D01*
X28013Y-40953D01*
X27812Y-40993D01*
X27643Y-41106D01*
X27569Y-41216D01*
X27569Y-39633D01*
X27640Y-39689D01*
X27882Y-39757D01*
X28375Y-39757D01*
X28375Y-39163D01*
X28367Y-39163D01*
X28367Y-39063D01*
X28375Y-39063D01*
X28375Y-38470D01*
X27882Y-38470D01*
X27640Y-38538D01*
X27569Y-38593D01*
X27569Y-38238D01*
X28894Y-38238D01*
X28917Y-38293D01*
X28989Y-38365D01*
X29082Y-38404D01*
X29184Y-38404D01*
X29278Y-38365D01*
X29349Y-38294D01*
X29372Y-38238D01*
X29664Y-38238D01*
X30711Y-39286D01*
X30695Y-39279D01*
X30330Y-39279D01*
X29993Y-39418D01*
X29734Y-39676D01*
X29594Y-40013D01*
X29594Y-40378D01*
X29734Y-40715D01*
X29991Y-40974D01*
X30328Y-41114D01*
X30693Y-41114D01*
X31031Y-40974D01*
X31289Y-40717D01*
X31429Y-40380D01*
X31429Y-40015D01*
X31422Y-39996D01*
X31711Y-40286D01*
X36270Y-40286D01*
X36270Y-33750D01*
X37824Y-33750D01*
X37824Y-40698D01*
G54D10*
G36*
X43147Y-31937D02*
X43071Y-31886D01*
X42906Y-31853D01*
X42698Y-31853D01*
X42534Y-31886D01*
X42394Y-31979D01*
X42301Y-32118D01*
X42268Y-32283D01*
X42301Y-32448D01*
X42368Y-32548D01*
X42040Y-32548D01*
X42107Y-32448D01*
X42140Y-32283D01*
X42140Y-31283D01*
X42107Y-31118D01*
X42014Y-30979D01*
X41875Y-30886D01*
X41869Y-30885D01*
X41869Y-27980D01*
X41830Y-27887D01*
X41758Y-27815D01*
X41665Y-27776D01*
X41563Y-27776D01*
X41469Y-27815D01*
X41398Y-27886D01*
X41359Y-27980D01*
X41359Y-28081D01*
X41397Y-28175D01*
X41469Y-28247D01*
X41563Y-28286D01*
X41664Y-28286D01*
X41758Y-28247D01*
X41830Y-28176D01*
X41869Y-28082D01*
X41869Y-27980D01*
X41869Y-30885D01*
X41710Y-30853D01*
X41502Y-30853D01*
X41338Y-30886D01*
X41198Y-30979D01*
X41160Y-31036D01*
X41160Y-28177D01*
X41121Y-28084D01*
X41069Y-28031D01*
X41121Y-27979D01*
X41160Y-27885D01*
X41160Y-27784D01*
X41121Y-27690D01*
X41050Y-27618D01*
X40956Y-27579D01*
X40855Y-27579D01*
X40761Y-27618D01*
X40689Y-27690D01*
X40650Y-27783D01*
X40650Y-27885D01*
X40689Y-27978D01*
X40741Y-28031D01*
X40689Y-28083D01*
X40650Y-28177D01*
X40650Y-28278D01*
X40689Y-28372D01*
X40760Y-28444D01*
X40854Y-28483D01*
X40956Y-28483D01*
X41049Y-28444D01*
X41121Y-28372D01*
X41160Y-28279D01*
X41160Y-28177D01*
X41160Y-31036D01*
X41105Y-31118D01*
X41072Y-31283D01*
X41105Y-31448D01*
X41198Y-31587D01*
X41338Y-31680D01*
X41502Y-31713D01*
X41710Y-31713D01*
X41875Y-31680D01*
X42014Y-31587D01*
X42107Y-31448D01*
X42140Y-31283D01*
X42140Y-32283D01*
X42107Y-32118D01*
X42014Y-31979D01*
X41875Y-31886D01*
X41710Y-31853D01*
X41502Y-31853D01*
X41338Y-31886D01*
X41198Y-31979D01*
X41105Y-32118D01*
X41072Y-32283D01*
X41105Y-32448D01*
X41198Y-32587D01*
X41338Y-32680D01*
X41502Y-32713D01*
X41704Y-32713D01*
X41682Y-32735D01*
X41682Y-32853D01*
X41502Y-32853D01*
X41338Y-32886D01*
X41198Y-32979D01*
X41105Y-33118D01*
X41072Y-33283D01*
X41105Y-33448D01*
X41198Y-33587D01*
X41338Y-33680D01*
X41502Y-33713D01*
X41682Y-33713D01*
X41682Y-34611D01*
X41625Y-34587D01*
X41524Y-34587D01*
X41430Y-34626D01*
X41358Y-34697D01*
X41319Y-34791D01*
X41319Y-34893D01*
X41358Y-34986D01*
X41430Y-35058D01*
X41440Y-35062D01*
X41338Y-35083D01*
X41198Y-35176D01*
X41105Y-35315D01*
X41072Y-35480D01*
X41105Y-35644D01*
X41198Y-35784D01*
X41338Y-35877D01*
X41502Y-35910D01*
X41682Y-35910D01*
X41682Y-36050D01*
X41502Y-36050D01*
X41338Y-36083D01*
X41198Y-36176D01*
X41105Y-36315D01*
X41072Y-36480D01*
X41105Y-36644D01*
X41198Y-36784D01*
X41338Y-36877D01*
X41502Y-36910D01*
X41682Y-36910D01*
X41682Y-37050D01*
X41502Y-37050D01*
X41338Y-37083D01*
X41198Y-37176D01*
X41105Y-37315D01*
X41072Y-37480D01*
X41105Y-37644D01*
X41198Y-37784D01*
X41338Y-37877D01*
X41502Y-37910D01*
X41682Y-37910D01*
X41682Y-38050D01*
X41502Y-38050D01*
X41338Y-38083D01*
X41198Y-38176D01*
X41105Y-38315D01*
X41072Y-38480D01*
X41105Y-38644D01*
X41198Y-38784D01*
X41338Y-38877D01*
X41502Y-38910D01*
X41682Y-38910D01*
X41682Y-39050D01*
X41502Y-39050D01*
X41338Y-39083D01*
X41198Y-39176D01*
X41105Y-39315D01*
X41072Y-39480D01*
X41105Y-39644D01*
X41198Y-39784D01*
X41338Y-39877D01*
X41502Y-39910D01*
X41682Y-39910D01*
X41682Y-40698D01*
X41042Y-40698D01*
X41042Y-38925D01*
X41042Y-37980D01*
X41003Y-37887D01*
X40932Y-37815D01*
X40838Y-37776D01*
X40736Y-37776D01*
X40643Y-37815D01*
X40571Y-37886D01*
X40532Y-37980D01*
X40532Y-38081D01*
X40571Y-38175D01*
X40642Y-38247D01*
X40736Y-38286D01*
X40837Y-38286D01*
X40931Y-38247D01*
X41003Y-38176D01*
X41042Y-38082D01*
X41042Y-37980D01*
X41042Y-38925D01*
X41003Y-38832D01*
X40932Y-38760D01*
X40838Y-38721D01*
X40736Y-38721D01*
X40643Y-38760D01*
X40571Y-38831D01*
X40532Y-38925D01*
X40532Y-39026D01*
X40571Y-39120D01*
X40642Y-39192D01*
X40736Y-39231D01*
X40837Y-39231D01*
X40931Y-39192D01*
X41003Y-39121D01*
X41042Y-39027D01*
X41042Y-38925D01*
X41042Y-40698D01*
X40727Y-40698D01*
X40727Y-39634D01*
X40688Y-39540D01*
X40617Y-39468D01*
X40523Y-39430D01*
X40421Y-39429D01*
X40328Y-39468D01*
X40256Y-39540D01*
X40217Y-39634D01*
X40217Y-39735D01*
X40256Y-39829D01*
X40327Y-39901D01*
X40421Y-39939D01*
X40522Y-39940D01*
X40616Y-39901D01*
X40688Y-39829D01*
X40727Y-39735D01*
X40727Y-39634D01*
X40727Y-40698D01*
X40160Y-40698D01*
X40141Y-40653D01*
X40224Y-40688D01*
X40326Y-40688D01*
X40419Y-40649D01*
X40491Y-40577D01*
X40530Y-40484D01*
X40530Y-40382D01*
X40491Y-40288D01*
X40420Y-40217D01*
X40326Y-40178D01*
X40225Y-40178D01*
X40131Y-40216D01*
X40059Y-40288D01*
X40020Y-40382D01*
X40020Y-40483D01*
X40054Y-40566D01*
X39972Y-40532D01*
X39870Y-40532D01*
X39861Y-40536D01*
X39861Y-38295D01*
X39822Y-38202D01*
X39789Y-38169D01*
X39822Y-38136D01*
X39861Y-38043D01*
X39861Y-37941D01*
X39822Y-37847D01*
X39750Y-37776D01*
X39657Y-37737D01*
X39555Y-37737D01*
X39462Y-37775D01*
X39390Y-37847D01*
X39351Y-37941D01*
X39351Y-38042D01*
X39389Y-38136D01*
X39422Y-38169D01*
X39390Y-38201D01*
X39351Y-38295D01*
X39351Y-38396D01*
X39389Y-38490D01*
X39461Y-38562D01*
X39555Y-38601D01*
X39656Y-38601D01*
X39750Y-38562D01*
X39822Y-38491D01*
X39861Y-38397D01*
X39861Y-38295D01*
X39861Y-40536D01*
X39777Y-40571D01*
X39705Y-40642D01*
X39682Y-40698D01*
X38120Y-40698D01*
X38120Y-40095D01*
X38168Y-40210D01*
X38370Y-40413D01*
X38635Y-40523D01*
X38922Y-40523D01*
X39187Y-40414D01*
X39390Y-40211D01*
X39499Y-39947D01*
X39500Y-39660D01*
X39390Y-39395D01*
X39188Y-39192D01*
X39044Y-39132D01*
X39125Y-39132D01*
X39219Y-39094D01*
X39290Y-39022D01*
X39329Y-38928D01*
X39329Y-38827D01*
X39291Y-38733D01*
X39219Y-38661D01*
X39192Y-38650D01*
X39192Y-30067D01*
X39192Y-27193D01*
X39153Y-27099D01*
X39081Y-27028D01*
X38987Y-26989D01*
X38886Y-26989D01*
X38792Y-27027D01*
X38720Y-27099D01*
X38682Y-27193D01*
X38681Y-27294D01*
X38720Y-27388D01*
X38792Y-27460D01*
X38886Y-27499D01*
X38987Y-27499D01*
X39081Y-27460D01*
X39153Y-27388D01*
X39191Y-27295D01*
X39192Y-27193D01*
X39192Y-30067D01*
X39153Y-29973D01*
X39081Y-29902D01*
X38987Y-29863D01*
X38886Y-29863D01*
X38837Y-29883D01*
X38837Y-28099D01*
X38798Y-28005D01*
X38727Y-27933D01*
X38633Y-27894D01*
X38532Y-27894D01*
X38438Y-27933D01*
X38366Y-28004D01*
X38327Y-28098D01*
X38327Y-28200D01*
X38366Y-28293D01*
X38438Y-28365D01*
X38531Y-28404D01*
X38633Y-28404D01*
X38726Y-28365D01*
X38798Y-28294D01*
X38837Y-28200D01*
X38837Y-28099D01*
X38837Y-29883D01*
X38792Y-29901D01*
X38720Y-29973D01*
X38682Y-30067D01*
X38681Y-30168D01*
X38720Y-30262D01*
X38792Y-30334D01*
X38886Y-30373D01*
X38987Y-30373D01*
X39081Y-30334D01*
X39153Y-30262D01*
X39191Y-30169D01*
X39192Y-30067D01*
X39192Y-38650D01*
X39125Y-38622D01*
X39024Y-38622D01*
X38930Y-38661D01*
X38914Y-38677D01*
X38897Y-38635D01*
X38844Y-38582D01*
X38897Y-38530D01*
X38936Y-38436D01*
X38936Y-38335D01*
X38897Y-38241D01*
X38844Y-38188D01*
X38897Y-38136D01*
X38936Y-38043D01*
X38936Y-37941D01*
X38897Y-37847D01*
X38844Y-37795D01*
X38897Y-37743D01*
X38936Y-37649D01*
X38936Y-37547D01*
X38897Y-37454D01*
X38844Y-37401D01*
X38897Y-37349D01*
X38936Y-37255D01*
X38936Y-37154D01*
X38897Y-37060D01*
X38844Y-37007D01*
X38897Y-36955D01*
X38936Y-36861D01*
X38936Y-36760D01*
X38897Y-36666D01*
X38844Y-36614D01*
X38897Y-36561D01*
X38936Y-36468D01*
X38936Y-36366D01*
X38897Y-36273D01*
X38844Y-36220D01*
X38897Y-36168D01*
X38936Y-36074D01*
X38936Y-35973D01*
X38897Y-35879D01*
X38825Y-35807D01*
X38732Y-35768D01*
X38630Y-35768D01*
X38536Y-35807D01*
X38484Y-35859D01*
X38432Y-35807D01*
X38338Y-35768D01*
X38236Y-35768D01*
X38143Y-35807D01*
X38120Y-35829D01*
X38120Y-34562D01*
X38177Y-34585D01*
X38278Y-34585D01*
X38372Y-34547D01*
X38444Y-34475D01*
X38483Y-34381D01*
X38483Y-34280D01*
X38444Y-34186D01*
X38372Y-34114D01*
X38279Y-34075D01*
X38177Y-34075D01*
X38120Y-34099D01*
X38120Y-33532D01*
X37695Y-33532D01*
X37695Y-25697D01*
X37657Y-25603D01*
X37585Y-25531D01*
X37491Y-25493D01*
X37390Y-25492D01*
X37296Y-25531D01*
X37224Y-25603D01*
X37185Y-25697D01*
X37185Y-25798D01*
X37224Y-25892D01*
X37296Y-25964D01*
X37389Y-26002D01*
X37491Y-26003D01*
X37585Y-25964D01*
X37656Y-25892D01*
X37695Y-25798D01*
X37695Y-25697D01*
X37695Y-33532D01*
X37262Y-33532D01*
X37262Y-32547D01*
X37224Y-32454D01*
X37152Y-32382D01*
X37058Y-32343D01*
X36957Y-32343D01*
X36863Y-32382D01*
X36791Y-32453D01*
X36752Y-32547D01*
X36752Y-32648D01*
X36791Y-32742D01*
X36863Y-32814D01*
X36956Y-32853D01*
X37058Y-32853D01*
X37152Y-32814D01*
X37223Y-32743D01*
X37262Y-32649D01*
X37262Y-32547D01*
X37262Y-33532D01*
X36052Y-33532D01*
X36052Y-40068D01*
X35491Y-40068D01*
X35491Y-32311D01*
X35452Y-32217D01*
X35380Y-32146D01*
X35287Y-32107D01*
X35185Y-32107D01*
X35091Y-32145D01*
X35020Y-32217D01*
X34981Y-32311D01*
X34981Y-32412D01*
X35019Y-32506D01*
X35091Y-32578D01*
X35185Y-32617D01*
X35286Y-32617D01*
X35380Y-32578D01*
X35452Y-32506D01*
X35491Y-32413D01*
X35491Y-32311D01*
X35491Y-40068D01*
X35294Y-40068D01*
X35294Y-34437D01*
X35255Y-34343D01*
X35242Y-34330D01*
X35255Y-34317D01*
X35294Y-34224D01*
X35294Y-34122D01*
X35255Y-34028D01*
X35184Y-33957D01*
X35090Y-33918D01*
X34988Y-33918D01*
X34895Y-33956D01*
X34823Y-34028D01*
X34784Y-34122D01*
X34784Y-34223D01*
X34788Y-34233D01*
X34772Y-34233D01*
X34678Y-34271D01*
X34607Y-34343D01*
X34568Y-34437D01*
X34568Y-34538D01*
X34606Y-34632D01*
X34678Y-34704D01*
X34772Y-34743D01*
X34873Y-34743D01*
X34931Y-34719D01*
X34988Y-34743D01*
X35089Y-34743D01*
X35183Y-34704D01*
X35255Y-34632D01*
X35294Y-34539D01*
X35294Y-34437D01*
X35294Y-40068D01*
X34152Y-40068D01*
X34152Y-34437D01*
X34130Y-34382D01*
X34130Y-26801D01*
X34130Y-26594D01*
X34130Y-25605D01*
X34130Y-25398D01*
X34097Y-25233D01*
X34004Y-25094D01*
X33864Y-25000D01*
X33700Y-24968D01*
X33576Y-24992D01*
X33601Y-24932D01*
X33601Y-24831D01*
X33562Y-24737D01*
X33491Y-24665D01*
X33397Y-24626D01*
X33295Y-24626D01*
X33202Y-24665D01*
X33130Y-24737D01*
X33091Y-24830D01*
X33091Y-24932D01*
X33130Y-25026D01*
X33201Y-25097D01*
X33295Y-25136D01*
X33367Y-25136D01*
X33302Y-25233D01*
X33270Y-25398D01*
X33270Y-25605D01*
X33302Y-25770D01*
X33395Y-25909D01*
X33535Y-26003D01*
X33700Y-26035D01*
X33864Y-26003D01*
X34004Y-25909D01*
X34097Y-25770D01*
X34130Y-25605D01*
X34130Y-26594D01*
X34097Y-26429D01*
X34004Y-26290D01*
X33864Y-26196D01*
X33700Y-26164D01*
X33535Y-26196D01*
X33395Y-26290D01*
X33302Y-26429D01*
X33270Y-26594D01*
X33270Y-26801D01*
X33302Y-26966D01*
X33395Y-27105D01*
X33535Y-27199D01*
X33700Y-27231D01*
X33864Y-27199D01*
X34004Y-27105D01*
X34097Y-26966D01*
X34130Y-26801D01*
X34130Y-34382D01*
X34113Y-34343D01*
X34042Y-34272D01*
X34034Y-34268D01*
X34034Y-33886D01*
X33995Y-33792D01*
X33924Y-33720D01*
X33877Y-33701D01*
X33877Y-27941D01*
X33838Y-27847D01*
X33766Y-27776D01*
X33672Y-27737D01*
X33571Y-27737D01*
X33477Y-27775D01*
X33405Y-27847D01*
X33367Y-27941D01*
X33367Y-28042D01*
X33405Y-28136D01*
X33477Y-28208D01*
X33571Y-28247D01*
X33672Y-28247D01*
X33766Y-28208D01*
X33838Y-28136D01*
X33877Y-28043D01*
X33877Y-27941D01*
X33877Y-33701D01*
X33830Y-33682D01*
X33729Y-33681D01*
X33635Y-33720D01*
X33563Y-33792D01*
X33524Y-33886D01*
X33524Y-33987D01*
X33563Y-34081D01*
X33634Y-34153D01*
X33728Y-34191D01*
X33830Y-34192D01*
X33923Y-34153D01*
X33995Y-34081D01*
X34034Y-33987D01*
X34034Y-33886D01*
X34034Y-34268D01*
X33948Y-34233D01*
X33847Y-34233D01*
X33753Y-34271D01*
X33700Y-34324D01*
X33687Y-34311D01*
X33594Y-34272D01*
X33492Y-34272D01*
X33399Y-34311D01*
X33327Y-34382D01*
X33288Y-34476D01*
X33288Y-34578D01*
X33327Y-34671D01*
X33398Y-34743D01*
X33492Y-34782D01*
X33593Y-34782D01*
X33687Y-34743D01*
X33740Y-34691D01*
X33753Y-34704D01*
X33846Y-34743D01*
X33948Y-34743D01*
X34041Y-34704D01*
X34113Y-34632D01*
X34152Y-34539D01*
X34152Y-34437D01*
X34152Y-40068D01*
X33130Y-40068D01*
X33130Y-26801D01*
X33130Y-26594D01*
X33130Y-25605D01*
X33130Y-25398D01*
X33097Y-25233D01*
X33004Y-25094D01*
X32864Y-25000D01*
X32700Y-24968D01*
X32535Y-25000D01*
X32395Y-25094D01*
X32302Y-25233D01*
X32270Y-25398D01*
X32270Y-25605D01*
X32302Y-25770D01*
X32395Y-25909D01*
X32535Y-26003D01*
X32700Y-26035D01*
X32864Y-26003D01*
X33004Y-25909D01*
X33097Y-25770D01*
X33130Y-25605D01*
X33130Y-26594D01*
X33097Y-26429D01*
X33004Y-26290D01*
X32864Y-26196D01*
X32700Y-26164D01*
X32535Y-26196D01*
X32395Y-26290D01*
X32302Y-26429D01*
X32270Y-26594D01*
X32270Y-26801D01*
X32302Y-26966D01*
X32395Y-27105D01*
X32535Y-27199D01*
X32700Y-27231D01*
X32864Y-27199D01*
X33004Y-27105D01*
X33097Y-26966D01*
X33130Y-26801D01*
X33130Y-40068D01*
X32735Y-40068D01*
X32735Y-32036D01*
X32696Y-31942D01*
X32624Y-31870D01*
X32577Y-31851D01*
X32577Y-29122D01*
X32539Y-29028D01*
X32518Y-29008D01*
X32518Y-27921D01*
X32480Y-27828D01*
X32408Y-27756D01*
X32314Y-27717D01*
X32213Y-27717D01*
X32130Y-27751D01*
X32130Y-26801D01*
X32130Y-26594D01*
X32130Y-25605D01*
X32130Y-25398D01*
X32097Y-25233D01*
X32004Y-25094D01*
X31864Y-25000D01*
X31700Y-24968D01*
X31535Y-25000D01*
X31395Y-25094D01*
X31302Y-25233D01*
X31270Y-25398D01*
X31270Y-25605D01*
X31302Y-25770D01*
X31395Y-25909D01*
X31535Y-26003D01*
X31700Y-26035D01*
X31864Y-26003D01*
X32004Y-25909D01*
X32097Y-25770D01*
X32130Y-25605D01*
X32130Y-26594D01*
X32097Y-26429D01*
X32004Y-26290D01*
X31864Y-26196D01*
X31700Y-26164D01*
X31535Y-26196D01*
X31395Y-26290D01*
X31302Y-26429D01*
X31270Y-26594D01*
X31270Y-26801D01*
X31302Y-26966D01*
X31395Y-27105D01*
X31535Y-27199D01*
X31700Y-27231D01*
X31864Y-27199D01*
X32004Y-27105D01*
X32097Y-26966D01*
X32130Y-26801D01*
X32130Y-27751D01*
X32119Y-27756D01*
X32047Y-27827D01*
X32008Y-27921D01*
X32008Y-28022D01*
X32047Y-28116D01*
X32119Y-28188D01*
X32212Y-28227D01*
X32314Y-28227D01*
X32408Y-28188D01*
X32479Y-28117D01*
X32518Y-28023D01*
X32518Y-27921D01*
X32518Y-29008D01*
X32467Y-28957D01*
X32373Y-28918D01*
X32272Y-28918D01*
X32178Y-28956D01*
X32106Y-29028D01*
X32067Y-29122D01*
X32067Y-29223D01*
X32106Y-29317D01*
X32178Y-29389D01*
X32271Y-29428D01*
X32373Y-29428D01*
X32467Y-29389D01*
X32538Y-29317D01*
X32577Y-29224D01*
X32577Y-29122D01*
X32577Y-31851D01*
X32531Y-31831D01*
X32429Y-31831D01*
X32336Y-31870D01*
X32264Y-31941D01*
X32225Y-32035D01*
X32225Y-32137D01*
X32231Y-32153D01*
X32216Y-32146D01*
X32114Y-32146D01*
X32021Y-32185D01*
X32007Y-32199D01*
X32007Y-28197D01*
X31968Y-28103D01*
X31896Y-28031D01*
X31802Y-27993D01*
X31701Y-27992D01*
X31607Y-28031D01*
X31535Y-28103D01*
X31512Y-28160D01*
X31487Y-28150D01*
X31386Y-28150D01*
X31292Y-28189D01*
X31251Y-28229D01*
X31251Y-25638D01*
X31251Y-25365D01*
X31193Y-25157D01*
X31059Y-24987D01*
X30871Y-24881D01*
X30835Y-24875D01*
X30750Y-24923D01*
X30750Y-25452D01*
X31189Y-25452D01*
X31251Y-25365D01*
X31251Y-25638D01*
X31189Y-25552D01*
X30750Y-25552D01*
X30750Y-26080D01*
X30835Y-26128D01*
X30871Y-26122D01*
X31059Y-26016D01*
X31193Y-25846D01*
X31251Y-25638D01*
X31251Y-28229D01*
X31220Y-28260D01*
X31182Y-28354D01*
X31181Y-28456D01*
X31220Y-28549D01*
X31292Y-28621D01*
X31386Y-28660D01*
X31487Y-28660D01*
X31581Y-28621D01*
X31653Y-28550D01*
X31676Y-28492D01*
X31701Y-28502D01*
X31802Y-28503D01*
X31896Y-28464D01*
X31968Y-28392D01*
X32006Y-28298D01*
X32007Y-28197D01*
X32007Y-32199D01*
X31949Y-32256D01*
X31910Y-32350D01*
X31910Y-32452D01*
X31944Y-32535D01*
X31861Y-32500D01*
X31760Y-32500D01*
X31666Y-32539D01*
X31594Y-32611D01*
X31573Y-32661D01*
X31573Y-29555D01*
X31535Y-29462D01*
X31463Y-29390D01*
X31369Y-29351D01*
X31268Y-29351D01*
X31174Y-29389D01*
X31130Y-29434D01*
X31130Y-27117D01*
X31130Y-27065D01*
X31130Y-26278D01*
X31110Y-26230D01*
X31073Y-26194D01*
X31025Y-26174D01*
X30974Y-26174D01*
X30650Y-26174D01*
X30650Y-26080D01*
X30650Y-25552D01*
X30650Y-25452D01*
X30650Y-24923D01*
X30564Y-24875D01*
X30528Y-24881D01*
X30340Y-24987D01*
X30206Y-25157D01*
X30148Y-25365D01*
X30210Y-25452D01*
X30650Y-25452D01*
X30650Y-25552D01*
X30210Y-25552D01*
X30148Y-25638D01*
X30206Y-25846D01*
X30340Y-26016D01*
X30528Y-26122D01*
X30564Y-26128D01*
X30650Y-26080D01*
X30650Y-26174D01*
X30374Y-26174D01*
X30326Y-26194D01*
X30289Y-26230D01*
X30270Y-26278D01*
X30270Y-26330D01*
X30270Y-27117D01*
X30289Y-27165D01*
X30326Y-27201D01*
X30374Y-27221D01*
X30425Y-27221D01*
X31025Y-27221D01*
X31073Y-27201D01*
X31110Y-27165D01*
X31130Y-27117D01*
X31130Y-29434D01*
X31102Y-29461D01*
X31063Y-29555D01*
X31063Y-29656D01*
X31102Y-29750D01*
X31174Y-29822D01*
X31267Y-29861D01*
X31369Y-29861D01*
X31463Y-29822D01*
X31534Y-29750D01*
X31573Y-29657D01*
X31573Y-29555D01*
X31573Y-32661D01*
X31556Y-32704D01*
X31555Y-32806D01*
X31594Y-32900D01*
X31666Y-32971D01*
X31760Y-33010D01*
X31861Y-33010D01*
X31955Y-32972D01*
X32027Y-32900D01*
X32065Y-32806D01*
X32066Y-32705D01*
X32031Y-32622D01*
X32114Y-32656D01*
X32215Y-32656D01*
X32309Y-32617D01*
X32381Y-32546D01*
X32420Y-32452D01*
X32420Y-32351D01*
X32413Y-32335D01*
X32429Y-32341D01*
X32530Y-32341D01*
X32624Y-32302D01*
X32696Y-32231D01*
X32735Y-32137D01*
X32735Y-32036D01*
X32735Y-40068D01*
X32144Y-40068D01*
X32144Y-35855D01*
X32106Y-35761D01*
X32092Y-35748D01*
X32105Y-35735D01*
X32144Y-35641D01*
X32144Y-35540D01*
X32106Y-35446D01*
X32034Y-35374D01*
X31940Y-35335D01*
X31839Y-35335D01*
X31745Y-35374D01*
X31692Y-35426D01*
X31640Y-35374D01*
X31632Y-35371D01*
X31632Y-34949D01*
X31594Y-34855D01*
X31554Y-34815D01*
X31554Y-33217D01*
X31515Y-33123D01*
X31443Y-33051D01*
X31350Y-33012D01*
X31248Y-33012D01*
X31154Y-33051D01*
X31083Y-33123D01*
X31044Y-33216D01*
X31044Y-33318D01*
X31082Y-33411D01*
X31154Y-33483D01*
X31248Y-33522D01*
X31349Y-33522D01*
X31443Y-33484D01*
X31515Y-33412D01*
X31554Y-33318D01*
X31554Y-33217D01*
X31554Y-34815D01*
X31522Y-34783D01*
X31428Y-34745D01*
X31327Y-34744D01*
X31233Y-34783D01*
X31161Y-34855D01*
X31122Y-34949D01*
X31122Y-35050D01*
X31161Y-35144D01*
X31233Y-35216D01*
X31327Y-35254D01*
X31428Y-35255D01*
X31522Y-35216D01*
X31594Y-35144D01*
X31632Y-35050D01*
X31632Y-34949D01*
X31632Y-35371D01*
X31547Y-35335D01*
X31445Y-35335D01*
X31351Y-35374D01*
X31280Y-35445D01*
X31241Y-35539D01*
X31241Y-35641D01*
X31279Y-35734D01*
X31351Y-35806D01*
X31445Y-35845D01*
X31546Y-35845D01*
X31640Y-35806D01*
X31664Y-35782D01*
X31634Y-35854D01*
X31634Y-35956D01*
X31673Y-36049D01*
X31745Y-36121D01*
X31838Y-36160D01*
X31940Y-36160D01*
X32034Y-36121D01*
X32105Y-36050D01*
X32144Y-35956D01*
X32144Y-35855D01*
X32144Y-40068D01*
X31752Y-40068D01*
X31377Y-39692D01*
X31377Y-37961D01*
X31338Y-37867D01*
X31266Y-37795D01*
X31265Y-37795D01*
X31318Y-37743D01*
X31357Y-37649D01*
X31357Y-37547D01*
X31318Y-37454D01*
X31266Y-37401D01*
X31318Y-37349D01*
X31357Y-37255D01*
X31357Y-37154D01*
X31318Y-37060D01*
X31266Y-37007D01*
X31318Y-36955D01*
X31357Y-36861D01*
X31357Y-36760D01*
X31318Y-36666D01*
X31266Y-36614D01*
X31318Y-36561D01*
X31357Y-36468D01*
X31357Y-36366D01*
X31318Y-36273D01*
X31266Y-36220D01*
X31318Y-36168D01*
X31357Y-36074D01*
X31357Y-35973D01*
X31318Y-35879D01*
X31246Y-35807D01*
X31153Y-35768D01*
X31051Y-35768D01*
X30963Y-35805D01*
X30963Y-31603D01*
X30924Y-31509D01*
X30853Y-31437D01*
X30759Y-31398D01*
X30707Y-31398D01*
X30707Y-31032D01*
X30669Y-30938D01*
X30597Y-30866D01*
X30503Y-30827D01*
X30402Y-30827D01*
X30314Y-30864D01*
X30314Y-29536D01*
X30275Y-29442D01*
X30203Y-29370D01*
X30110Y-29331D01*
X30008Y-29331D01*
X29914Y-29370D01*
X29843Y-29441D01*
X29837Y-29455D01*
X29775Y-29430D01*
X29673Y-29429D01*
X29580Y-29468D01*
X29508Y-29540D01*
X29469Y-29634D01*
X29469Y-29735D01*
X29508Y-29829D01*
X29579Y-29901D01*
X29673Y-29939D01*
X29774Y-29940D01*
X29868Y-29901D01*
X29940Y-29829D01*
X29946Y-29815D01*
X30008Y-29841D01*
X30109Y-29841D01*
X30203Y-29802D01*
X30275Y-29731D01*
X30314Y-29637D01*
X30314Y-29536D01*
X30314Y-30864D01*
X30308Y-30866D01*
X30236Y-30938D01*
X30197Y-31031D01*
X30197Y-31133D01*
X30236Y-31226D01*
X30308Y-31298D01*
X30401Y-31337D01*
X30503Y-31337D01*
X30597Y-31298D01*
X30668Y-31227D01*
X30707Y-31133D01*
X30707Y-31032D01*
X30707Y-31398D01*
X30658Y-31398D01*
X30564Y-31437D01*
X30492Y-31508D01*
X30453Y-31602D01*
X30453Y-31704D01*
X30492Y-31797D01*
X30564Y-31869D01*
X30657Y-31908D01*
X30759Y-31908D01*
X30852Y-31869D01*
X30924Y-31798D01*
X30963Y-31704D01*
X30963Y-31603D01*
X30963Y-35805D01*
X30958Y-35807D01*
X30886Y-35878D01*
X30847Y-35972D01*
X30847Y-36074D01*
X30886Y-36167D01*
X30938Y-36220D01*
X30905Y-36253D01*
X30853Y-36201D01*
X30759Y-36162D01*
X30658Y-36162D01*
X30564Y-36201D01*
X30492Y-36272D01*
X30453Y-36366D01*
X30453Y-36467D01*
X30492Y-36561D01*
X30544Y-36614D01*
X30492Y-36666D01*
X30456Y-36752D01*
X30362Y-36752D01*
X30269Y-36791D01*
X30197Y-36863D01*
X30158Y-36956D01*
X30158Y-37058D01*
X30197Y-37152D01*
X30249Y-37204D01*
X30197Y-37256D01*
X30158Y-37350D01*
X30158Y-37452D01*
X30197Y-37545D01*
X30249Y-37598D01*
X30197Y-37650D01*
X30158Y-37744D01*
X30158Y-37845D01*
X30197Y-37939D01*
X30268Y-38011D01*
X30362Y-38050D01*
X30456Y-38050D01*
X30492Y-38136D01*
X30544Y-38189D01*
X30492Y-38241D01*
X30453Y-38334D01*
X30453Y-38436D01*
X30492Y-38530D01*
X30564Y-38601D01*
X30657Y-38640D01*
X30759Y-38640D01*
X30852Y-38602D01*
X30905Y-38549D01*
X30938Y-38582D01*
X30886Y-38634D01*
X30847Y-38728D01*
X30847Y-38830D01*
X30886Y-38923D01*
X30957Y-38995D01*
X31051Y-39034D01*
X31152Y-39034D01*
X31246Y-38995D01*
X31318Y-38924D01*
X31357Y-38830D01*
X31357Y-38729D01*
X31318Y-38635D01*
X31266Y-38582D01*
X31318Y-38530D01*
X31357Y-38436D01*
X31357Y-38335D01*
X31318Y-38241D01*
X31285Y-38208D01*
X31338Y-38156D01*
X31377Y-38062D01*
X31377Y-37961D01*
X31377Y-39692D01*
X29821Y-38137D01*
X29821Y-32823D01*
X29783Y-32729D01*
X29711Y-32657D01*
X29617Y-32619D01*
X29516Y-32618D01*
X29422Y-32657D01*
X29350Y-32729D01*
X29349Y-32732D01*
X29349Y-30343D01*
X29310Y-30249D01*
X29239Y-30177D01*
X29145Y-30138D01*
X29043Y-30138D01*
X28995Y-30158D01*
X28995Y-28748D01*
X28956Y-28654D01*
X28884Y-28583D01*
X28791Y-28544D01*
X28739Y-28544D01*
X28739Y-24516D01*
X28700Y-24422D01*
X28628Y-24350D01*
X28535Y-24311D01*
X28433Y-24311D01*
X28339Y-24350D01*
X28268Y-24422D01*
X28229Y-24515D01*
X28229Y-24617D01*
X28267Y-24711D01*
X28339Y-24782D01*
X28433Y-24821D01*
X28534Y-24821D01*
X28628Y-24783D01*
X28700Y-24711D01*
X28739Y-24617D01*
X28739Y-24516D01*
X28739Y-28544D01*
X28689Y-28544D01*
X28595Y-28582D01*
X28524Y-28654D01*
X28485Y-28748D01*
X28485Y-28849D01*
X28523Y-28943D01*
X28595Y-29015D01*
X28689Y-29054D01*
X28790Y-29054D01*
X28884Y-29015D01*
X28956Y-28943D01*
X28995Y-28850D01*
X28995Y-28748D01*
X28995Y-30158D01*
X28950Y-30177D01*
X28878Y-30249D01*
X28839Y-30342D01*
X28839Y-30444D01*
X28878Y-30537D01*
X28949Y-30609D01*
X29043Y-30648D01*
X29144Y-30648D01*
X29238Y-30610D01*
X29310Y-30538D01*
X29349Y-30444D01*
X29349Y-30343D01*
X29349Y-32732D01*
X29311Y-32823D01*
X29311Y-32924D01*
X29350Y-33018D01*
X29422Y-33090D01*
X29515Y-33128D01*
X29617Y-33129D01*
X29711Y-33090D01*
X29782Y-33018D01*
X29821Y-32924D01*
X29821Y-32823D01*
X29821Y-38137D01*
X29705Y-38020D01*
X29356Y-38020D01*
X29350Y-38005D01*
X29278Y-37933D01*
X29184Y-37894D01*
X29083Y-37894D01*
X28989Y-37933D01*
X28917Y-38004D01*
X28911Y-38020D01*
X28463Y-38020D01*
X28463Y-29575D01*
X28424Y-29481D01*
X28353Y-29409D01*
X28259Y-29371D01*
X28158Y-29370D01*
X28064Y-29409D01*
X27992Y-29481D01*
X27953Y-29575D01*
X27953Y-29676D01*
X27992Y-29770D01*
X28064Y-29842D01*
X28157Y-29880D01*
X28259Y-29881D01*
X28352Y-29842D01*
X28424Y-29770D01*
X28463Y-29676D01*
X28463Y-29575D01*
X28463Y-38020D01*
X28286Y-38020D01*
X28286Y-36484D01*
X28266Y-36437D01*
X28266Y-32882D01*
X28228Y-32788D01*
X28156Y-32717D01*
X28062Y-32678D01*
X27971Y-32678D01*
X27971Y-32626D01*
X27932Y-32532D01*
X27861Y-32461D01*
X27767Y-32422D01*
X27666Y-32422D01*
X27572Y-32460D01*
X27500Y-32532D01*
X27461Y-32626D01*
X27461Y-32727D01*
X27500Y-32821D01*
X27571Y-32893D01*
X27665Y-32932D01*
X27756Y-32932D01*
X27756Y-32983D01*
X27795Y-33077D01*
X27867Y-33149D01*
X27960Y-33188D01*
X28062Y-33188D01*
X28156Y-33149D01*
X28227Y-33077D01*
X28266Y-32984D01*
X28266Y-32882D01*
X28266Y-36437D01*
X28247Y-36391D01*
X28176Y-36319D01*
X28104Y-36289D01*
X28128Y-36232D01*
X28129Y-36130D01*
X28090Y-36036D01*
X28018Y-35965D01*
X27924Y-35926D01*
X27823Y-35926D01*
X27729Y-35964D01*
X27657Y-36036D01*
X27619Y-36130D01*
X27618Y-36231D01*
X27657Y-36325D01*
X27729Y-36397D01*
X27800Y-36426D01*
X27776Y-36484D01*
X27776Y-36585D01*
X27815Y-36679D01*
X27886Y-36751D01*
X27980Y-36790D01*
X28081Y-36790D01*
X28175Y-36751D01*
X28247Y-36680D01*
X28286Y-36586D01*
X28286Y-36484D01*
X28286Y-38020D01*
X27569Y-38020D01*
X27569Y-37705D01*
X27381Y-37705D01*
X27381Y-27036D01*
X27361Y-26988D01*
X27361Y-25067D01*
X27322Y-24973D01*
X27250Y-24902D01*
X27157Y-24863D01*
X27055Y-24863D01*
X26962Y-24901D01*
X26890Y-24973D01*
X26851Y-25067D01*
X26851Y-25168D01*
X26889Y-25262D01*
X26961Y-25334D01*
X27055Y-25373D01*
X27156Y-25373D01*
X27250Y-25334D01*
X27322Y-25262D01*
X27361Y-25169D01*
X27361Y-25067D01*
X27361Y-26988D01*
X27342Y-26942D01*
X27270Y-26870D01*
X27176Y-26831D01*
X27075Y-26831D01*
X26981Y-26870D01*
X26909Y-26941D01*
X26871Y-27035D01*
X26870Y-27137D01*
X26909Y-27230D01*
X26981Y-27302D01*
X27075Y-27341D01*
X27176Y-27341D01*
X27270Y-27302D01*
X27342Y-27231D01*
X27380Y-27137D01*
X27381Y-27036D01*
X27381Y-37705D01*
X27262Y-37705D01*
X27262Y-34240D01*
X27224Y-34147D01*
X27184Y-34107D01*
X27184Y-33158D01*
X27145Y-33064D01*
X27105Y-33024D01*
X27105Y-29870D01*
X27066Y-29777D01*
X26995Y-29705D01*
X26901Y-29666D01*
X26829Y-29666D01*
X26829Y-25658D01*
X26791Y-25564D01*
X26719Y-25492D01*
X26625Y-25453D01*
X26524Y-25453D01*
X26430Y-25492D01*
X26358Y-25564D01*
X26319Y-25657D01*
X26319Y-25759D01*
X26358Y-25852D01*
X26430Y-25924D01*
X26523Y-25963D01*
X26625Y-25963D01*
X26719Y-25924D01*
X26790Y-25853D01*
X26829Y-25759D01*
X26829Y-25658D01*
X26829Y-29666D01*
X26799Y-29666D01*
X26706Y-29704D01*
X26634Y-29776D01*
X26595Y-29870D01*
X26595Y-29971D01*
X26634Y-30065D01*
X26705Y-30137D01*
X26799Y-30176D01*
X26900Y-30176D01*
X26994Y-30137D01*
X27066Y-30065D01*
X27105Y-29972D01*
X27105Y-29870D01*
X27105Y-33024D01*
X27073Y-32992D01*
X26980Y-32953D01*
X26878Y-32953D01*
X26784Y-32992D01*
X26713Y-33064D01*
X26674Y-33157D01*
X26674Y-33259D01*
X26712Y-33352D01*
X26784Y-33424D01*
X26878Y-33463D01*
X26979Y-33463D01*
X27073Y-33424D01*
X27145Y-33353D01*
X27184Y-33259D01*
X27184Y-33158D01*
X27184Y-34107D01*
X27152Y-34075D01*
X27058Y-34036D01*
X26957Y-34036D01*
X26863Y-34075D01*
X26791Y-34146D01*
X26752Y-34240D01*
X26752Y-34341D01*
X26791Y-34435D01*
X26863Y-34507D01*
X26956Y-34546D01*
X27058Y-34546D01*
X27152Y-34507D01*
X27223Y-34435D01*
X27262Y-34342D01*
X27262Y-34240D01*
X27262Y-37705D01*
X26632Y-37705D01*
X26632Y-33020D01*
X26594Y-32926D01*
X26554Y-32886D01*
X26554Y-27429D01*
X26515Y-27336D01*
X26443Y-27264D01*
X26350Y-27225D01*
X26248Y-27225D01*
X26154Y-27264D01*
X26121Y-27297D01*
X26121Y-26012D01*
X26082Y-25918D01*
X26010Y-25846D01*
X25917Y-25808D01*
X25815Y-25807D01*
X25721Y-25846D01*
X25650Y-25918D01*
X25611Y-26012D01*
X25611Y-26113D01*
X25613Y-26118D01*
X25141Y-26118D01*
X25093Y-26138D01*
X25057Y-26174D01*
X25037Y-26222D01*
X25037Y-26274D01*
X25037Y-27061D01*
X25057Y-27109D01*
X25093Y-27145D01*
X25141Y-27165D01*
X25193Y-27165D01*
X25744Y-27165D01*
X25792Y-27145D01*
X25828Y-27109D01*
X25848Y-27061D01*
X25848Y-27009D01*
X25848Y-26317D01*
X25916Y-26318D01*
X26010Y-26279D01*
X26082Y-26207D01*
X26121Y-26113D01*
X26121Y-26012D01*
X26121Y-27297D01*
X26083Y-27335D01*
X26044Y-27429D01*
X26044Y-27530D01*
X26082Y-27624D01*
X26154Y-27696D01*
X26248Y-27735D01*
X26349Y-27735D01*
X26443Y-27696D01*
X26515Y-27624D01*
X26554Y-27531D01*
X26554Y-27429D01*
X26554Y-32886D01*
X26522Y-32854D01*
X26428Y-32815D01*
X26327Y-32815D01*
X26233Y-32854D01*
X26161Y-32926D01*
X26122Y-33019D01*
X26122Y-33121D01*
X26126Y-33130D01*
X26121Y-33130D01*
X26121Y-32705D01*
X26082Y-32611D01*
X26010Y-32539D01*
X25917Y-32500D01*
X25815Y-32500D01*
X25721Y-32539D01*
X25650Y-32611D01*
X25611Y-32704D01*
X25611Y-32806D01*
X25649Y-32900D01*
X25721Y-32971D01*
X25815Y-33010D01*
X25916Y-33010D01*
X26010Y-32972D01*
X26082Y-32900D01*
X26121Y-32806D01*
X26121Y-32705D01*
X26121Y-33130D01*
X26091Y-33130D01*
X25997Y-33169D01*
X25925Y-33241D01*
X25886Y-33334D01*
X25886Y-33436D01*
X25925Y-33530D01*
X25997Y-33601D01*
X26041Y-33620D01*
X26036Y-33622D01*
X25965Y-33693D01*
X25926Y-33787D01*
X25926Y-33889D01*
X25964Y-33982D01*
X26036Y-34054D01*
X26130Y-34093D01*
X26231Y-34093D01*
X26325Y-34054D01*
X26397Y-33983D01*
X26436Y-33889D01*
X26436Y-33788D01*
X26397Y-33694D01*
X26325Y-33622D01*
X26281Y-33604D01*
X26285Y-33602D01*
X26357Y-33530D01*
X26396Y-33436D01*
X26396Y-33335D01*
X26392Y-33325D01*
X26428Y-33325D01*
X26522Y-33287D01*
X26594Y-33215D01*
X26632Y-33121D01*
X26632Y-33020D01*
X26632Y-37705D01*
X26140Y-37705D01*
X26140Y-36051D01*
X26102Y-35958D01*
X26030Y-35886D01*
X25936Y-35847D01*
X25835Y-35847D01*
X25741Y-35886D01*
X25669Y-35957D01*
X25630Y-36051D01*
X25630Y-36152D01*
X25669Y-36246D01*
X25741Y-36318D01*
X25834Y-36357D01*
X25936Y-36357D01*
X26030Y-36318D01*
X26101Y-36246D01*
X26140Y-36153D01*
X26140Y-36051D01*
X26140Y-37705D01*
X24916Y-37705D01*
X24916Y-28385D01*
X24916Y-28114D01*
X24910Y-28085D01*
X24807Y-27896D01*
X24639Y-27761D01*
X24433Y-27700D01*
X24300Y-27700D01*
X24300Y-28200D01*
X24867Y-28200D01*
X24916Y-28114D01*
X24916Y-28385D01*
X24867Y-28300D01*
X24300Y-28300D01*
X24300Y-28800D01*
X24433Y-28800D01*
X24639Y-28738D01*
X24807Y-28603D01*
X24910Y-28414D01*
X24916Y-28385D01*
X24916Y-37705D01*
X23781Y-37705D01*
X23781Y-36676D01*
X23791Y-36680D01*
X23842Y-36680D01*
X24708Y-36680D01*
X24756Y-36660D01*
X24793Y-36623D01*
X24813Y-36575D01*
X24813Y-36524D01*
X24813Y-35924D01*
X24793Y-35876D01*
X24756Y-35839D01*
X24708Y-35820D01*
X24657Y-35820D01*
X23791Y-35820D01*
X23781Y-35823D01*
X23781Y-35523D01*
X23801Y-35554D01*
X23941Y-35647D01*
X24105Y-35680D01*
X24394Y-35680D01*
X24558Y-35647D01*
X24698Y-35554D01*
X24791Y-35414D01*
X24824Y-35250D01*
X24791Y-35085D01*
X24698Y-34945D01*
X24558Y-34852D01*
X24394Y-34820D01*
X24105Y-34820D01*
X23941Y-34852D01*
X23801Y-34945D01*
X23781Y-34976D01*
X23781Y-34523D01*
X23801Y-34554D01*
X23941Y-34647D01*
X24105Y-34680D01*
X24394Y-34680D01*
X24558Y-34647D01*
X24698Y-34554D01*
X24791Y-34414D01*
X24824Y-34250D01*
X24791Y-34085D01*
X24698Y-33945D01*
X24558Y-33852D01*
X24394Y-33820D01*
X24105Y-33820D01*
X23941Y-33852D01*
X23801Y-33945D01*
X23781Y-33976D01*
X23781Y-33523D01*
X23801Y-33554D01*
X23941Y-33647D01*
X24105Y-33680D01*
X24394Y-33680D01*
X24558Y-33647D01*
X24698Y-33554D01*
X24791Y-33414D01*
X24824Y-33250D01*
X24791Y-33085D01*
X24698Y-32945D01*
X24558Y-32852D01*
X24394Y-32820D01*
X24105Y-32820D01*
X23941Y-32852D01*
X23801Y-32945D01*
X23781Y-32976D01*
X23781Y-32523D01*
X23801Y-32554D01*
X23941Y-32647D01*
X24105Y-32680D01*
X24394Y-32680D01*
X24558Y-32647D01*
X24698Y-32554D01*
X24791Y-32414D01*
X24824Y-32250D01*
X24791Y-32085D01*
X24698Y-31945D01*
X24558Y-31852D01*
X24394Y-31820D01*
X24105Y-31820D01*
X23941Y-31852D01*
X23801Y-31945D01*
X23781Y-31976D01*
X23781Y-31523D01*
X23801Y-31554D01*
X23941Y-31647D01*
X24105Y-31680D01*
X24394Y-31680D01*
X24558Y-31647D01*
X24698Y-31554D01*
X24791Y-31414D01*
X24824Y-31250D01*
X24791Y-31085D01*
X24698Y-30945D01*
X24558Y-30852D01*
X24394Y-30820D01*
X24105Y-30820D01*
X23941Y-30852D01*
X23801Y-30945D01*
X23781Y-30976D01*
X23781Y-30523D01*
X23801Y-30554D01*
X23941Y-30647D01*
X24105Y-30680D01*
X24394Y-30680D01*
X24558Y-30647D01*
X24698Y-30554D01*
X24791Y-30414D01*
X24824Y-30250D01*
X24791Y-30085D01*
X24698Y-29945D01*
X24558Y-29852D01*
X24394Y-29820D01*
X24105Y-29820D01*
X23941Y-29852D01*
X23801Y-29945D01*
X23781Y-29976D01*
X23781Y-29523D01*
X23801Y-29554D01*
X23941Y-29647D01*
X24105Y-29680D01*
X24394Y-29680D01*
X24558Y-29647D01*
X24698Y-29554D01*
X24791Y-29414D01*
X24824Y-29250D01*
X24791Y-29085D01*
X24698Y-28945D01*
X24558Y-28852D01*
X24394Y-28820D01*
X24105Y-28820D01*
X23941Y-28852D01*
X23801Y-28945D01*
X23781Y-28976D01*
X23781Y-28675D01*
X23860Y-28738D01*
X24067Y-28800D01*
X24200Y-28800D01*
X24200Y-28300D01*
X24192Y-28300D01*
X24192Y-28200D01*
X24200Y-28200D01*
X24200Y-27700D01*
X24067Y-27700D01*
X23860Y-27761D01*
X23781Y-27824D01*
X23781Y-26951D01*
X23800Y-26959D01*
X23852Y-26959D01*
X24817Y-26959D01*
X24865Y-26939D01*
X24901Y-26902D01*
X24921Y-26854D01*
X24921Y-26803D01*
X24921Y-26291D01*
X24901Y-26243D01*
X24865Y-26206D01*
X24817Y-26187D01*
X24765Y-26187D01*
X23800Y-26187D01*
X23781Y-26194D01*
X23781Y-24805D01*
X23800Y-24813D01*
X23852Y-24813D01*
X24817Y-24813D01*
X24865Y-24793D01*
X24901Y-24756D01*
X24921Y-24708D01*
X24921Y-24657D01*
X24921Y-24145D01*
X24901Y-24097D01*
X24865Y-24060D01*
X24817Y-24041D01*
X24765Y-24041D01*
X23800Y-24041D01*
X23781Y-24048D01*
X23781Y-24031D01*
X23802Y-23927D01*
X23852Y-23852D01*
X23927Y-23802D01*
X24031Y-23781D01*
X42897Y-23781D01*
X43001Y-23802D01*
X43076Y-23852D01*
X43126Y-23927D01*
X43147Y-24031D01*
X43147Y-30937D01*
X43071Y-30886D01*
X42934Y-30859D01*
X42934Y-25066D01*
X42917Y-24978D01*
X42917Y-24978D01*
X42867Y-24904D01*
X41855Y-23892D01*
X41780Y-23842D01*
X41692Y-23825D01*
X26771Y-23825D01*
X26683Y-23842D01*
X26609Y-23892D01*
X26609Y-23892D01*
X25860Y-24640D01*
X25848Y-24645D01*
X25848Y-23938D01*
X25828Y-23890D01*
X25792Y-23854D01*
X25744Y-23834D01*
X25692Y-23834D01*
X25141Y-23834D01*
X25093Y-23854D01*
X25057Y-23890D01*
X25037Y-23938D01*
X25037Y-23990D01*
X25037Y-24777D01*
X25057Y-24825D01*
X25093Y-24861D01*
X25141Y-24881D01*
X25193Y-24881D01*
X25689Y-24881D01*
X25689Y-24932D01*
X25728Y-25026D01*
X25800Y-25097D01*
X25837Y-25113D01*
X25808Y-25185D01*
X25807Y-25286D01*
X25846Y-25380D01*
X25918Y-25452D01*
X26012Y-25491D01*
X26113Y-25491D01*
X26207Y-25452D01*
X26279Y-25380D01*
X26317Y-25287D01*
X26318Y-25185D01*
X26279Y-25091D01*
X26207Y-25020D01*
X26170Y-25004D01*
X26186Y-24965D01*
X26634Y-24517D01*
X26634Y-24519D01*
X26673Y-24612D01*
X26745Y-24684D01*
X26838Y-24723D01*
X26940Y-24723D01*
X27034Y-24684D01*
X27105Y-24613D01*
X27144Y-24519D01*
X27144Y-24418D01*
X27106Y-24324D01*
X27067Y-24285D01*
X37440Y-24285D01*
X37382Y-24343D01*
X37343Y-24437D01*
X37343Y-24538D01*
X37382Y-24632D01*
X37453Y-24704D01*
X37547Y-24743D01*
X37648Y-24743D01*
X37742Y-24704D01*
X37814Y-24632D01*
X37853Y-24539D01*
X37853Y-24437D01*
X37814Y-24343D01*
X37756Y-24285D01*
X41597Y-24285D01*
X42474Y-25162D01*
X42474Y-30926D01*
X42394Y-30979D01*
X42381Y-31000D01*
X42381Y-27469D01*
X42342Y-27375D01*
X42270Y-27303D01*
X42176Y-27264D01*
X42075Y-27264D01*
X41981Y-27303D01*
X41909Y-27375D01*
X41871Y-27468D01*
X41870Y-27570D01*
X41909Y-27663D01*
X41981Y-27735D01*
X42075Y-27774D01*
X42176Y-27774D01*
X42270Y-27735D01*
X42342Y-27664D01*
X42380Y-27570D01*
X42381Y-27469D01*
X42381Y-31000D01*
X42301Y-31118D01*
X42268Y-31283D01*
X42301Y-31448D01*
X42394Y-31587D01*
X42534Y-31680D01*
X42698Y-31713D01*
X42906Y-31713D01*
X43071Y-31680D01*
X43147Y-31629D01*
X43147Y-31937D01*
X43147Y-31937D01*
G37*
G54D28*
X43147Y-31937D02*
X43071Y-31886D01*
X42906Y-31853D01*
X42698Y-31853D01*
X42534Y-31886D01*
X42394Y-31979D01*
X42301Y-32118D01*
X42268Y-32283D01*
X42301Y-32448D01*
X42368Y-32548D01*
X42040Y-32548D01*
X42107Y-32448D01*
X42140Y-32283D01*
X42140Y-31283D01*
X42107Y-31118D01*
X42014Y-30979D01*
X41875Y-30886D01*
X41869Y-30885D01*
X41869Y-27980D01*
X41830Y-27887D01*
X41758Y-27815D01*
X41665Y-27776D01*
X41563Y-27776D01*
X41469Y-27815D01*
X41398Y-27886D01*
X41359Y-27980D01*
X41359Y-28081D01*
X41397Y-28175D01*
X41469Y-28247D01*
X41563Y-28286D01*
X41664Y-28286D01*
X41758Y-28247D01*
X41830Y-28176D01*
X41869Y-28082D01*
X41869Y-27980D01*
X41869Y-30885D01*
X41710Y-30853D01*
X41502Y-30853D01*
X41338Y-30886D01*
X41198Y-30979D01*
X41160Y-31036D01*
X41160Y-28177D01*
X41121Y-28084D01*
X41069Y-28031D01*
X41121Y-27979D01*
X41160Y-27885D01*
X41160Y-27784D01*
X41121Y-27690D01*
X41050Y-27618D01*
X40956Y-27579D01*
X40855Y-27579D01*
X40761Y-27618D01*
X40689Y-27690D01*
X40650Y-27783D01*
X40650Y-27885D01*
X40689Y-27978D01*
X40741Y-28031D01*
X40689Y-28083D01*
X40650Y-28177D01*
X40650Y-28278D01*
X40689Y-28372D01*
X40760Y-28444D01*
X40854Y-28483D01*
X40956Y-28483D01*
X41049Y-28444D01*
X41121Y-28372D01*
X41160Y-28279D01*
X41160Y-28177D01*
X41160Y-31036D01*
X41105Y-31118D01*
X41072Y-31283D01*
X41105Y-31448D01*
X41198Y-31587D01*
X41338Y-31680D01*
X41502Y-31713D01*
X41710Y-31713D01*
X41875Y-31680D01*
X42014Y-31587D01*
X42107Y-31448D01*
X42140Y-31283D01*
X42140Y-32283D01*
X42107Y-32118D01*
X42014Y-31979D01*
X41875Y-31886D01*
X41710Y-31853D01*
X41502Y-31853D01*
X41338Y-31886D01*
X41198Y-31979D01*
X41105Y-32118D01*
X41072Y-32283D01*
X41105Y-32448D01*
X41198Y-32587D01*
X41338Y-32680D01*
X41502Y-32713D01*
X41704Y-32713D01*
X41682Y-32735D01*
X41682Y-32853D01*
X41502Y-32853D01*
X41338Y-32886D01*
X41198Y-32979D01*
X41105Y-33118D01*
X41072Y-33283D01*
X41105Y-33448D01*
X41198Y-33587D01*
X41338Y-33680D01*
X41502Y-33713D01*
X41682Y-33713D01*
X41682Y-34611D01*
X41625Y-34587D01*
X41524Y-34587D01*
X41430Y-34626D01*
X41358Y-34697D01*
X41319Y-34791D01*
X41319Y-34893D01*
X41358Y-34986D01*
X41430Y-35058D01*
X41440Y-35062D01*
X41338Y-35083D01*
X41198Y-35176D01*
X41105Y-35315D01*
X41072Y-35480D01*
X41105Y-35644D01*
X41198Y-35784D01*
X41338Y-35877D01*
X41502Y-35910D01*
X41682Y-35910D01*
X41682Y-36050D01*
X41502Y-36050D01*
X41338Y-36083D01*
X41198Y-36176D01*
X41105Y-36315D01*
X41072Y-36480D01*
X41105Y-36644D01*
X41198Y-36784D01*
X41338Y-36877D01*
X41502Y-36910D01*
X41682Y-36910D01*
X41682Y-37050D01*
X41502Y-37050D01*
X41338Y-37083D01*
X41198Y-37176D01*
X41105Y-37315D01*
X41072Y-37480D01*
X41105Y-37644D01*
X41198Y-37784D01*
X41338Y-37877D01*
X41502Y-37910D01*
X41682Y-37910D01*
X41682Y-38050D01*
X41502Y-38050D01*
X41338Y-38083D01*
X41198Y-38176D01*
X41105Y-38315D01*
X41072Y-38480D01*
X41105Y-38644D01*
X41198Y-38784D01*
X41338Y-38877D01*
X41502Y-38910D01*
X41682Y-38910D01*
X41682Y-39050D01*
X41502Y-39050D01*
X41338Y-39083D01*
X41198Y-39176D01*
X41105Y-39315D01*
X41072Y-39480D01*
X41105Y-39644D01*
X41198Y-39784D01*
X41338Y-39877D01*
X41502Y-39910D01*
X41682Y-39910D01*
X41682Y-40698D01*
X41042Y-40698D01*
X41042Y-38925D01*
X41042Y-37980D01*
X41003Y-37887D01*
X40932Y-37815D01*
X40838Y-37776D01*
X40736Y-37776D01*
X40643Y-37815D01*
X40571Y-37886D01*
X40532Y-37980D01*
X40532Y-38081D01*
X40571Y-38175D01*
X40642Y-38247D01*
X40736Y-38286D01*
X40837Y-38286D01*
X40931Y-38247D01*
X41003Y-38176D01*
X41042Y-38082D01*
X41042Y-37980D01*
X41042Y-38925D01*
X41003Y-38832D01*
X40932Y-38760D01*
X40838Y-38721D01*
X40736Y-38721D01*
X40643Y-38760D01*
X40571Y-38831D01*
X40532Y-38925D01*
X40532Y-39026D01*
X40571Y-39120D01*
X40642Y-39192D01*
X40736Y-39231D01*
X40837Y-39231D01*
X40931Y-39192D01*
X41003Y-39121D01*
X41042Y-39027D01*
X41042Y-38925D01*
X41042Y-40698D01*
X40727Y-40698D01*
X40727Y-39634D01*
X40688Y-39540D01*
X40617Y-39468D01*
X40523Y-39430D01*
X40421Y-39429D01*
X40328Y-39468D01*
X40256Y-39540D01*
X40217Y-39634D01*
X40217Y-39735D01*
X40256Y-39829D01*
X40327Y-39901D01*
X40421Y-39939D01*
X40522Y-39940D01*
X40616Y-39901D01*
X40688Y-39829D01*
X40727Y-39735D01*
X40727Y-39634D01*
X40727Y-40698D01*
X40160Y-40698D01*
X40141Y-40653D01*
X40224Y-40688D01*
X40326Y-40688D01*
X40419Y-40649D01*
X40491Y-40577D01*
X40530Y-40484D01*
X40530Y-40382D01*
X40491Y-40288D01*
X40420Y-40217D01*
X40326Y-40178D01*
X40225Y-40178D01*
X40131Y-40216D01*
X40059Y-40288D01*
X40020Y-40382D01*
X40020Y-40483D01*
X40054Y-40566D01*
X39972Y-40532D01*
X39870Y-40532D01*
X39861Y-40536D01*
X39861Y-38295D01*
X39822Y-38202D01*
X39789Y-38169D01*
X39822Y-38136D01*
X39861Y-38043D01*
X39861Y-37941D01*
X39822Y-37847D01*
X39750Y-37776D01*
X39657Y-37737D01*
X39555Y-37737D01*
X39462Y-37775D01*
X39390Y-37847D01*
X39351Y-37941D01*
X39351Y-38042D01*
X39389Y-38136D01*
X39422Y-38169D01*
X39390Y-38201D01*
X39351Y-38295D01*
X39351Y-38396D01*
X39389Y-38490D01*
X39461Y-38562D01*
X39555Y-38601D01*
X39656Y-38601D01*
X39750Y-38562D01*
X39822Y-38491D01*
X39861Y-38397D01*
X39861Y-38295D01*
X39861Y-40536D01*
X39777Y-40571D01*
X39705Y-40642D01*
X39682Y-40698D01*
X38120Y-40698D01*
X38120Y-40095D01*
X38168Y-40210D01*
X38370Y-40413D01*
X38635Y-40523D01*
X38922Y-40523D01*
X39187Y-40414D01*
X39390Y-40211D01*
X39499Y-39947D01*
X39500Y-39660D01*
X39390Y-39395D01*
X39188Y-39192D01*
X39044Y-39132D01*
X39125Y-39132D01*
X39219Y-39094D01*
X39290Y-39022D01*
X39329Y-38928D01*
X39329Y-38827D01*
X39291Y-38733D01*
X39219Y-38661D01*
X39192Y-38650D01*
X39192Y-30067D01*
X39192Y-27193D01*
X39153Y-27099D01*
X39081Y-27028D01*
X38987Y-26989D01*
X38886Y-26989D01*
X38792Y-27027D01*
X38720Y-27099D01*
X38682Y-27193D01*
X38681Y-27294D01*
X38720Y-27388D01*
X38792Y-27460D01*
X38886Y-27499D01*
X38987Y-27499D01*
X39081Y-27460D01*
X39153Y-27388D01*
X39191Y-27295D01*
X39192Y-27193D01*
X39192Y-30067D01*
X39153Y-29973D01*
X39081Y-29902D01*
X38987Y-29863D01*
X38886Y-29863D01*
X38837Y-29883D01*
X38837Y-28099D01*
X38798Y-28005D01*
X38727Y-27933D01*
X38633Y-27894D01*
X38532Y-27894D01*
X38438Y-27933D01*
X38366Y-28004D01*
X38327Y-28098D01*
X38327Y-28200D01*
X38366Y-28293D01*
X38438Y-28365D01*
X38531Y-28404D01*
X38633Y-28404D01*
X38726Y-28365D01*
X38798Y-28294D01*
X38837Y-28200D01*
X38837Y-28099D01*
X38837Y-29883D01*
X38792Y-29901D01*
X38720Y-29973D01*
X38682Y-30067D01*
X38681Y-30168D01*
X38720Y-30262D01*
X38792Y-30334D01*
X38886Y-30373D01*
X38987Y-30373D01*
X39081Y-30334D01*
X39153Y-30262D01*
X39191Y-30169D01*
X39192Y-30067D01*
X39192Y-38650D01*
X39125Y-38622D01*
X39024Y-38622D01*
X38930Y-38661D01*
X38914Y-38677D01*
X38897Y-38635D01*
X38844Y-38582D01*
X38897Y-38530D01*
X38936Y-38436D01*
X38936Y-38335D01*
X38897Y-38241D01*
X38844Y-38188D01*
X38897Y-38136D01*
X38936Y-38043D01*
X38936Y-37941D01*
X38897Y-37847D01*
X38844Y-37795D01*
X38897Y-37743D01*
X38936Y-37649D01*
X38936Y-37547D01*
X38897Y-37454D01*
X38844Y-37401D01*
X38897Y-37349D01*
X38936Y-37255D01*
X38936Y-37154D01*
X38897Y-37060D01*
X38844Y-37007D01*
X38897Y-36955D01*
X38936Y-36861D01*
X38936Y-36760D01*
X38897Y-36666D01*
X38844Y-36614D01*
X38897Y-36561D01*
X38936Y-36468D01*
X38936Y-36366D01*
X38897Y-36273D01*
X38844Y-36220D01*
X38897Y-36168D01*
X38936Y-36074D01*
X38936Y-35973D01*
X38897Y-35879D01*
X38825Y-35807D01*
X38732Y-35768D01*
X38630Y-35768D01*
X38536Y-35807D01*
X38484Y-35859D01*
X38432Y-35807D01*
X38338Y-35768D01*
X38236Y-35768D01*
X38143Y-35807D01*
X38120Y-35829D01*
X38120Y-34562D01*
X38177Y-34585D01*
X38278Y-34585D01*
X38372Y-34547D01*
X38444Y-34475D01*
X38483Y-34381D01*
X38483Y-34280D01*
X38444Y-34186D01*
X38372Y-34114D01*
X38279Y-34075D01*
X38177Y-34075D01*
X38120Y-34099D01*
X38120Y-33532D01*
X37695Y-33532D01*
X37695Y-25697D01*
X37657Y-25603D01*
X37585Y-25531D01*
X37491Y-25493D01*
X37390Y-25492D01*
X37296Y-25531D01*
X37224Y-25603D01*
X37185Y-25697D01*
X37185Y-25798D01*
X37224Y-25892D01*
X37296Y-25964D01*
X37389Y-26002D01*
X37491Y-26003D01*
X37585Y-25964D01*
X37656Y-25892D01*
X37695Y-25798D01*
X37695Y-25697D01*
X37695Y-33532D01*
X37262Y-33532D01*
X37262Y-32547D01*
X37224Y-32454D01*
X37152Y-32382D01*
X37058Y-32343D01*
X36957Y-32343D01*
X36863Y-32382D01*
X36791Y-32453D01*
X36752Y-32547D01*
X36752Y-32648D01*
X36791Y-32742D01*
X36863Y-32814D01*
X36956Y-32853D01*
X37058Y-32853D01*
X37152Y-32814D01*
X37223Y-32743D01*
X37262Y-32649D01*
X37262Y-32547D01*
X37262Y-33532D01*
X36052Y-33532D01*
X36052Y-40068D01*
X35491Y-40068D01*
X35491Y-32311D01*
X35452Y-32217D01*
X35380Y-32146D01*
X35287Y-32107D01*
X35185Y-32107D01*
X35091Y-32145D01*
X35020Y-32217D01*
X34981Y-32311D01*
X34981Y-32412D01*
X35019Y-32506D01*
X35091Y-32578D01*
X35185Y-32617D01*
X35286Y-32617D01*
X35380Y-32578D01*
X35452Y-32506D01*
X35491Y-32413D01*
X35491Y-32311D01*
X35491Y-40068D01*
X35294Y-40068D01*
X35294Y-34437D01*
X35255Y-34343D01*
X35242Y-34330D01*
X35255Y-34317D01*
X35294Y-34224D01*
X35294Y-34122D01*
X35255Y-34028D01*
X35184Y-33957D01*
X35090Y-33918D01*
X34988Y-33918D01*
X34895Y-33956D01*
X34823Y-34028D01*
X34784Y-34122D01*
X34784Y-34223D01*
X34788Y-34233D01*
X34772Y-34233D01*
X34678Y-34271D01*
X34607Y-34343D01*
X34568Y-34437D01*
X34568Y-34538D01*
X34606Y-34632D01*
X34678Y-34704D01*
X34772Y-34743D01*
X34873Y-34743D01*
X34931Y-34719D01*
X34988Y-34743D01*
X35089Y-34743D01*
X35183Y-34704D01*
X35255Y-34632D01*
X35294Y-34539D01*
X35294Y-34437D01*
X35294Y-40068D01*
X34152Y-40068D01*
X34152Y-34437D01*
X34130Y-34382D01*
X34130Y-26801D01*
X34130Y-26594D01*
X34130Y-25605D01*
X34130Y-25398D01*
X34097Y-25233D01*
X34004Y-25094D01*
X33864Y-25000D01*
X33700Y-24968D01*
X33576Y-24992D01*
X33601Y-24932D01*
X33601Y-24831D01*
X33562Y-24737D01*
X33491Y-24665D01*
X33397Y-24626D01*
X33295Y-24626D01*
X33202Y-24665D01*
X33130Y-24737D01*
X33091Y-24830D01*
X33091Y-24932D01*
X33130Y-25026D01*
X33201Y-25097D01*
X33295Y-25136D01*
X33367Y-25136D01*
X33302Y-25233D01*
X33270Y-25398D01*
X33270Y-25605D01*
X33302Y-25770D01*
X33395Y-25909D01*
X33535Y-26003D01*
X33700Y-26035D01*
X33864Y-26003D01*
X34004Y-25909D01*
X34097Y-25770D01*
X34130Y-25605D01*
X34130Y-26594D01*
X34097Y-26429D01*
X34004Y-26290D01*
X33864Y-26196D01*
X33700Y-26164D01*
X33535Y-26196D01*
X33395Y-26290D01*
X33302Y-26429D01*
X33270Y-26594D01*
X33270Y-26801D01*
X33302Y-26966D01*
X33395Y-27105D01*
X33535Y-27199D01*
X33700Y-27231D01*
X33864Y-27199D01*
X34004Y-27105D01*
X34097Y-26966D01*
X34130Y-26801D01*
X34130Y-34382D01*
X34113Y-34343D01*
X34042Y-34272D01*
X34034Y-34268D01*
X34034Y-33886D01*
X33995Y-33792D01*
X33924Y-33720D01*
X33877Y-33701D01*
X33877Y-27941D01*
X33838Y-27847D01*
X33766Y-27776D01*
X33672Y-27737D01*
X33571Y-27737D01*
X33477Y-27775D01*
X33405Y-27847D01*
X33367Y-27941D01*
X33367Y-28042D01*
X33405Y-28136D01*
X33477Y-28208D01*
X33571Y-28247D01*
X33672Y-28247D01*
X33766Y-28208D01*
X33838Y-28136D01*
X33877Y-28043D01*
X33877Y-27941D01*
X33877Y-33701D01*
X33830Y-33682D01*
X33729Y-33681D01*
X33635Y-33720D01*
X33563Y-33792D01*
X33524Y-33886D01*
X33524Y-33987D01*
X33563Y-34081D01*
X33634Y-34153D01*
X33728Y-34191D01*
X33830Y-34192D01*
X33923Y-34153D01*
X33995Y-34081D01*
X34034Y-33987D01*
X34034Y-33886D01*
X34034Y-34268D01*
X33948Y-34233D01*
X33847Y-34233D01*
X33753Y-34271D01*
X33700Y-34324D01*
X33687Y-34311D01*
X33594Y-34272D01*
X33492Y-34272D01*
X33399Y-34311D01*
X33327Y-34382D01*
X33288Y-34476D01*
X33288Y-34578D01*
X33327Y-34671D01*
X33398Y-34743D01*
X33492Y-34782D01*
X33593Y-34782D01*
X33687Y-34743D01*
X33740Y-34691D01*
X33753Y-34704D01*
X33846Y-34743D01*
X33948Y-34743D01*
X34041Y-34704D01*
X34113Y-34632D01*
X34152Y-34539D01*
X34152Y-34437D01*
X34152Y-40068D01*
X33130Y-40068D01*
X33130Y-26801D01*
X33130Y-26594D01*
X33130Y-25605D01*
X33130Y-25398D01*
X33097Y-25233D01*
X33004Y-25094D01*
X32864Y-25000D01*
X32700Y-24968D01*
X32535Y-25000D01*
X32395Y-25094D01*
X32302Y-25233D01*
X32270Y-25398D01*
X32270Y-25605D01*
X32302Y-25770D01*
X32395Y-25909D01*
X32535Y-26003D01*
X32700Y-26035D01*
X32864Y-26003D01*
X33004Y-25909D01*
X33097Y-25770D01*
X33130Y-25605D01*
X33130Y-26594D01*
X33097Y-26429D01*
X33004Y-26290D01*
X32864Y-26196D01*
X32700Y-26164D01*
X32535Y-26196D01*
X32395Y-26290D01*
X32302Y-26429D01*
X32270Y-26594D01*
X32270Y-26801D01*
X32302Y-26966D01*
X32395Y-27105D01*
X32535Y-27199D01*
X32700Y-27231D01*
X32864Y-27199D01*
X33004Y-27105D01*
X33097Y-26966D01*
X33130Y-26801D01*
X33130Y-40068D01*
X32735Y-40068D01*
X32735Y-32036D01*
X32696Y-31942D01*
X32624Y-31870D01*
X32577Y-31851D01*
X32577Y-29122D01*
X32539Y-29028D01*
X32518Y-29008D01*
X32518Y-27921D01*
X32480Y-27828D01*
X32408Y-27756D01*
X32314Y-27717D01*
X32213Y-27717D01*
X32130Y-27751D01*
X32130Y-26801D01*
X32130Y-26594D01*
X32130Y-25605D01*
X32130Y-25398D01*
X32097Y-25233D01*
X32004Y-25094D01*
X31864Y-25000D01*
X31700Y-24968D01*
X31535Y-25000D01*
X31395Y-25094D01*
X31302Y-25233D01*
X31270Y-25398D01*
X31270Y-25605D01*
X31302Y-25770D01*
X31395Y-25909D01*
X31535Y-26003D01*
X31700Y-26035D01*
X31864Y-26003D01*
X32004Y-25909D01*
X32097Y-25770D01*
X32130Y-25605D01*
X32130Y-26594D01*
X32097Y-26429D01*
X32004Y-26290D01*
X31864Y-26196D01*
X31700Y-26164D01*
X31535Y-26196D01*
X31395Y-26290D01*
X31302Y-26429D01*
X31270Y-26594D01*
X31270Y-26801D01*
X31302Y-26966D01*
X31395Y-27105D01*
X31535Y-27199D01*
X31700Y-27231D01*
X31864Y-27199D01*
X32004Y-27105D01*
X32097Y-26966D01*
X32130Y-26801D01*
X32130Y-27751D01*
X32119Y-27756D01*
X32047Y-27827D01*
X32008Y-27921D01*
X32008Y-28022D01*
X32047Y-28116D01*
X32119Y-28188D01*
X32212Y-28227D01*
X32314Y-28227D01*
X32408Y-28188D01*
X32479Y-28117D01*
X32518Y-28023D01*
X32518Y-27921D01*
X32518Y-29008D01*
X32467Y-28957D01*
X32373Y-28918D01*
X32272Y-28918D01*
X32178Y-28956D01*
X32106Y-29028D01*
X32067Y-29122D01*
X32067Y-29223D01*
X32106Y-29317D01*
X32178Y-29389D01*
X32271Y-29428D01*
X32373Y-29428D01*
X32467Y-29389D01*
X32538Y-29317D01*
X32577Y-29224D01*
X32577Y-29122D01*
X32577Y-31851D01*
X32531Y-31831D01*
X32429Y-31831D01*
X32336Y-31870D01*
X32264Y-31941D01*
X32225Y-32035D01*
X32225Y-32137D01*
X32231Y-32153D01*
X32216Y-32146D01*
X32114Y-32146D01*
X32021Y-32185D01*
X32007Y-32199D01*
X32007Y-28197D01*
X31968Y-28103D01*
X31896Y-28031D01*
X31802Y-27993D01*
X31701Y-27992D01*
X31607Y-28031D01*
X31535Y-28103D01*
X31512Y-28160D01*
X31487Y-28150D01*
X31386Y-28150D01*
X31292Y-28189D01*
X31251Y-28229D01*
X31251Y-25638D01*
X31251Y-25365D01*
X31193Y-25157D01*
X31059Y-24987D01*
X30871Y-24881D01*
X30835Y-24875D01*
X30750Y-24923D01*
X30750Y-25452D01*
X31189Y-25452D01*
X31251Y-25365D01*
X31251Y-25638D01*
X31189Y-25552D01*
X30750Y-25552D01*
X30750Y-26080D01*
X30835Y-26128D01*
X30871Y-26122D01*
X31059Y-26016D01*
X31193Y-25846D01*
X31251Y-25638D01*
X31251Y-28229D01*
X31220Y-28260D01*
X31182Y-28354D01*
X31181Y-28456D01*
X31220Y-28549D01*
X31292Y-28621D01*
X31386Y-28660D01*
X31487Y-28660D01*
X31581Y-28621D01*
X31653Y-28550D01*
X31676Y-28492D01*
X31701Y-28502D01*
X31802Y-28503D01*
X31896Y-28464D01*
X31968Y-28392D01*
X32006Y-28298D01*
X32007Y-28197D01*
X32007Y-32199D01*
X31949Y-32256D01*
X31910Y-32350D01*
X31910Y-32452D01*
X31944Y-32535D01*
X31861Y-32500D01*
X31760Y-32500D01*
X31666Y-32539D01*
X31594Y-32611D01*
X31573Y-32661D01*
X31573Y-29555D01*
X31535Y-29462D01*
X31463Y-29390D01*
X31369Y-29351D01*
X31268Y-29351D01*
X31174Y-29389D01*
X31130Y-29434D01*
X31130Y-27117D01*
X31130Y-27065D01*
X31130Y-26278D01*
X31110Y-26230D01*
X31073Y-26194D01*
X31025Y-26174D01*
X30974Y-26174D01*
X30650Y-26174D01*
X30650Y-26080D01*
X30650Y-25552D01*
X30650Y-25452D01*
X30650Y-24923D01*
X30564Y-24875D01*
X30528Y-24881D01*
X30340Y-24987D01*
X30206Y-25157D01*
X30148Y-25365D01*
X30210Y-25452D01*
X30650Y-25452D01*
X30650Y-25552D01*
X30210Y-25552D01*
X30148Y-25638D01*
X30206Y-25846D01*
X30340Y-26016D01*
X30528Y-26122D01*
X30564Y-26128D01*
X30650Y-26080D01*
X30650Y-26174D01*
X30374Y-26174D01*
X30326Y-26194D01*
X30289Y-26230D01*
X30270Y-26278D01*
X30270Y-26330D01*
X30270Y-27117D01*
X30289Y-27165D01*
X30326Y-27201D01*
X30374Y-27221D01*
X30425Y-27221D01*
X31025Y-27221D01*
X31073Y-27201D01*
X31110Y-27165D01*
X31130Y-27117D01*
X31130Y-29434D01*
X31102Y-29461D01*
X31063Y-29555D01*
X31063Y-29656D01*
X31102Y-29750D01*
X31174Y-29822D01*
X31267Y-29861D01*
X31369Y-29861D01*
X31463Y-29822D01*
X31534Y-29750D01*
X31573Y-29657D01*
X31573Y-29555D01*
X31573Y-32661D01*
X31556Y-32704D01*
X31555Y-32806D01*
X31594Y-32900D01*
X31666Y-32971D01*
X31760Y-33010D01*
X31861Y-33010D01*
X31955Y-32972D01*
X32027Y-32900D01*
X32065Y-32806D01*
X32066Y-32705D01*
X32031Y-32622D01*
X32114Y-32656D01*
X32215Y-32656D01*
X32309Y-32617D01*
X32381Y-32546D01*
X32420Y-32452D01*
X32420Y-32351D01*
X32413Y-32335D01*
X32429Y-32341D01*
X32530Y-32341D01*
X32624Y-32302D01*
X32696Y-32231D01*
X32735Y-32137D01*
X32735Y-32036D01*
X32735Y-40068D01*
X32144Y-40068D01*
X32144Y-35855D01*
X32106Y-35761D01*
X32092Y-35748D01*
X32105Y-35735D01*
X32144Y-35641D01*
X32144Y-35540D01*
X32106Y-35446D01*
X32034Y-35374D01*
X31940Y-35335D01*
X31839Y-35335D01*
X31745Y-35374D01*
X31692Y-35426D01*
X31640Y-35374D01*
X31632Y-35371D01*
X31632Y-34949D01*
X31594Y-34855D01*
X31554Y-34815D01*
X31554Y-33217D01*
X31515Y-33123D01*
X31443Y-33051D01*
X31350Y-33012D01*
X31248Y-33012D01*
X31154Y-33051D01*
X31083Y-33123D01*
X31044Y-33216D01*
X31044Y-33318D01*
X31082Y-33411D01*
X31154Y-33483D01*
X31248Y-33522D01*
X31349Y-33522D01*
X31443Y-33484D01*
X31515Y-33412D01*
X31554Y-33318D01*
X31554Y-33217D01*
X31554Y-34815D01*
X31522Y-34783D01*
X31428Y-34745D01*
X31327Y-34744D01*
X31233Y-34783D01*
X31161Y-34855D01*
X31122Y-34949D01*
X31122Y-35050D01*
X31161Y-35144D01*
X31233Y-35216D01*
X31327Y-35254D01*
X31428Y-35255D01*
X31522Y-35216D01*
X31594Y-35144D01*
X31632Y-35050D01*
X31632Y-34949D01*
X31632Y-35371D01*
X31547Y-35335D01*
X31445Y-35335D01*
X31351Y-35374D01*
X31280Y-35445D01*
X31241Y-35539D01*
X31241Y-35641D01*
X31279Y-35734D01*
X31351Y-35806D01*
X31445Y-35845D01*
X31546Y-35845D01*
X31640Y-35806D01*
X31664Y-35782D01*
X31634Y-35854D01*
X31634Y-35956D01*
X31673Y-36049D01*
X31745Y-36121D01*
X31838Y-36160D01*
X31940Y-36160D01*
X32034Y-36121D01*
X32105Y-36050D01*
X32144Y-35956D01*
X32144Y-35855D01*
X32144Y-40068D01*
X31752Y-40068D01*
X31377Y-39692D01*
X31377Y-37961D01*
X31338Y-37867D01*
X31266Y-37795D01*
X31265Y-37795D01*
X31318Y-37743D01*
X31357Y-37649D01*
X31357Y-37547D01*
X31318Y-37454D01*
X31266Y-37401D01*
X31318Y-37349D01*
X31357Y-37255D01*
X31357Y-37154D01*
X31318Y-37060D01*
X31266Y-37007D01*
X31318Y-36955D01*
X31357Y-36861D01*
X31357Y-36760D01*
X31318Y-36666D01*
X31266Y-36614D01*
X31318Y-36561D01*
X31357Y-36468D01*
X31357Y-36366D01*
X31318Y-36273D01*
X31266Y-36220D01*
X31318Y-36168D01*
X31357Y-36074D01*
X31357Y-35973D01*
X31318Y-35879D01*
X31246Y-35807D01*
X31153Y-35768D01*
X31051Y-35768D01*
X30963Y-35805D01*
X30963Y-31603D01*
X30924Y-31509D01*
X30853Y-31437D01*
X30759Y-31398D01*
X30707Y-31398D01*
X30707Y-31032D01*
X30669Y-30938D01*
X30597Y-30866D01*
X30503Y-30827D01*
X30402Y-30827D01*
X30314Y-30864D01*
X30314Y-29536D01*
X30275Y-29442D01*
X30203Y-29370D01*
X30110Y-29331D01*
X30008Y-29331D01*
X29914Y-29370D01*
X29843Y-29441D01*
X29837Y-29455D01*
X29775Y-29430D01*
X29673Y-29429D01*
X29580Y-29468D01*
X29508Y-29540D01*
X29469Y-29634D01*
X29469Y-29735D01*
X29508Y-29829D01*
X29579Y-29901D01*
X29673Y-29939D01*
X29774Y-29940D01*
X29868Y-29901D01*
X29940Y-29829D01*
X29946Y-29815D01*
X30008Y-29841D01*
X30109Y-29841D01*
X30203Y-29802D01*
X30275Y-29731D01*
X30314Y-29637D01*
X30314Y-29536D01*
X30314Y-30864D01*
X30308Y-30866D01*
X30236Y-30938D01*
X30197Y-31031D01*
X30197Y-31133D01*
X30236Y-31226D01*
X30308Y-31298D01*
X30401Y-31337D01*
X30503Y-31337D01*
X30597Y-31298D01*
X30668Y-31227D01*
X30707Y-31133D01*
X30707Y-31032D01*
X30707Y-31398D01*
X30658Y-31398D01*
X30564Y-31437D01*
X30492Y-31508D01*
X30453Y-31602D01*
X30453Y-31704D01*
X30492Y-31797D01*
X30564Y-31869D01*
X30657Y-31908D01*
X30759Y-31908D01*
X30852Y-31869D01*
X30924Y-31798D01*
X30963Y-31704D01*
X30963Y-31603D01*
X30963Y-35805D01*
X30958Y-35807D01*
X30886Y-35878D01*
X30847Y-35972D01*
X30847Y-36074D01*
X30886Y-36167D01*
X30938Y-36220D01*
X30905Y-36253D01*
X30853Y-36201D01*
X30759Y-36162D01*
X30658Y-36162D01*
X30564Y-36201D01*
X30492Y-36272D01*
X30453Y-36366D01*
X30453Y-36467D01*
X30492Y-36561D01*
X30544Y-36614D01*
X30492Y-36666D01*
X30456Y-36752D01*
X30362Y-36752D01*
X30269Y-36791D01*
X30197Y-36863D01*
X30158Y-36956D01*
X30158Y-37058D01*
X30197Y-37152D01*
X30249Y-37204D01*
X30197Y-37256D01*
X30158Y-37350D01*
X30158Y-37452D01*
X30197Y-37545D01*
X30249Y-37598D01*
X30197Y-37650D01*
X30158Y-37744D01*
X30158Y-37845D01*
X30197Y-37939D01*
X30268Y-38011D01*
X30362Y-38050D01*
X30456Y-38050D01*
X30492Y-38136D01*
X30544Y-38189D01*
X30492Y-38241D01*
X30453Y-38334D01*
X30453Y-38436D01*
X30492Y-38530D01*
X30564Y-38601D01*
X30657Y-38640D01*
X30759Y-38640D01*
X30852Y-38602D01*
X30905Y-38549D01*
X30938Y-38582D01*
X30886Y-38634D01*
X30847Y-38728D01*
X30847Y-38830D01*
X30886Y-38923D01*
X30957Y-38995D01*
X31051Y-39034D01*
X31152Y-39034D01*
X31246Y-38995D01*
X31318Y-38924D01*
X31357Y-38830D01*
X31357Y-38729D01*
X31318Y-38635D01*
X31266Y-38582D01*
X31318Y-38530D01*
X31357Y-38436D01*
X31357Y-38335D01*
X31318Y-38241D01*
X31285Y-38208D01*
X31338Y-38156D01*
X31377Y-38062D01*
X31377Y-37961D01*
X31377Y-39692D01*
X29821Y-38137D01*
X29821Y-32823D01*
X29783Y-32729D01*
X29711Y-32657D01*
X29617Y-32619D01*
X29516Y-32618D01*
X29422Y-32657D01*
X29350Y-32729D01*
X29349Y-32732D01*
X29349Y-30343D01*
X29310Y-30249D01*
X29239Y-30177D01*
X29145Y-30138D01*
X29043Y-30138D01*
X28995Y-30158D01*
X28995Y-28748D01*
X28956Y-28654D01*
X28884Y-28583D01*
X28791Y-28544D01*
X28739Y-28544D01*
X28739Y-24516D01*
X28700Y-24422D01*
X28628Y-24350D01*
X28535Y-24311D01*
X28433Y-24311D01*
X28339Y-24350D01*
X28268Y-24422D01*
X28229Y-24515D01*
X28229Y-24617D01*
X28267Y-24711D01*
X28339Y-24782D01*
X28433Y-24821D01*
X28534Y-24821D01*
X28628Y-24783D01*
X28700Y-24711D01*
X28739Y-24617D01*
X28739Y-24516D01*
X28739Y-28544D01*
X28689Y-28544D01*
X28595Y-28582D01*
X28524Y-28654D01*
X28485Y-28748D01*
X28485Y-28849D01*
X28523Y-28943D01*
X28595Y-29015D01*
X28689Y-29054D01*
X28790Y-29054D01*
X28884Y-29015D01*
X28956Y-28943D01*
X28995Y-28850D01*
X28995Y-28748D01*
X28995Y-30158D01*
X28950Y-30177D01*
X28878Y-30249D01*
X28839Y-30342D01*
X28839Y-30444D01*
X28878Y-30537D01*
X28949Y-30609D01*
X29043Y-30648D01*
X29144Y-30648D01*
X29238Y-30610D01*
X29310Y-30538D01*
X29349Y-30444D01*
X29349Y-30343D01*
X29349Y-32732D01*
X29311Y-32823D01*
X29311Y-32924D01*
X29350Y-33018D01*
X29422Y-33090D01*
X29515Y-33128D01*
X29617Y-33129D01*
X29711Y-33090D01*
X29782Y-33018D01*
X29821Y-32924D01*
X29821Y-32823D01*
X29821Y-38137D01*
X29705Y-38020D01*
X29356Y-38020D01*
X29350Y-38005D01*
X29278Y-37933D01*
X29184Y-37894D01*
X29083Y-37894D01*
X28989Y-37933D01*
X28917Y-38004D01*
X28911Y-38020D01*
X28463Y-38020D01*
X28463Y-29575D01*
X28424Y-29481D01*
X28353Y-29409D01*
X28259Y-29371D01*
X28158Y-29370D01*
X28064Y-29409D01*
X27992Y-29481D01*
X27953Y-29575D01*
X27953Y-29676D01*
X27992Y-29770D01*
X28064Y-29842D01*
X28157Y-29880D01*
X28259Y-29881D01*
X28352Y-29842D01*
X28424Y-29770D01*
X28463Y-29676D01*
X28463Y-29575D01*
X28463Y-38020D01*
X28286Y-38020D01*
X28286Y-36484D01*
X28266Y-36437D01*
X28266Y-32882D01*
X28228Y-32788D01*
X28156Y-32717D01*
X28062Y-32678D01*
X27971Y-32678D01*
X27971Y-32626D01*
X27932Y-32532D01*
X27861Y-32461D01*
X27767Y-32422D01*
X27666Y-32422D01*
X27572Y-32460D01*
X27500Y-32532D01*
X27461Y-32626D01*
X27461Y-32727D01*
X27500Y-32821D01*
X27571Y-32893D01*
X27665Y-32932D01*
X27756Y-32932D01*
X27756Y-32983D01*
X27795Y-33077D01*
X27867Y-33149D01*
X27960Y-33188D01*
X28062Y-33188D01*
X28156Y-33149D01*
X28227Y-33077D01*
X28266Y-32984D01*
X28266Y-32882D01*
X28266Y-36437D01*
X28247Y-36391D01*
X28176Y-36319D01*
X28104Y-36289D01*
X28128Y-36232D01*
X28129Y-36130D01*
X28090Y-36036D01*
X28018Y-35965D01*
X27924Y-35926D01*
X27823Y-35926D01*
X27729Y-35964D01*
X27657Y-36036D01*
X27619Y-36130D01*
X27618Y-36231D01*
X27657Y-36325D01*
X27729Y-36397D01*
X27800Y-36426D01*
X27776Y-36484D01*
X27776Y-36585D01*
X27815Y-36679D01*
X27886Y-36751D01*
X27980Y-36790D01*
X28081Y-36790D01*
X28175Y-36751D01*
X28247Y-36680D01*
X28286Y-36586D01*
X28286Y-36484D01*
X28286Y-38020D01*
X27569Y-38020D01*
X27569Y-37705D01*
X27381Y-37705D01*
X27381Y-27036D01*
X27361Y-26988D01*
X27361Y-25067D01*
X27322Y-24973D01*
X27250Y-24902D01*
X27157Y-24863D01*
X27055Y-24863D01*
X26962Y-24901D01*
X26890Y-24973D01*
X26851Y-25067D01*
X26851Y-25168D01*
X26889Y-25262D01*
X26961Y-25334D01*
X27055Y-25373D01*
X27156Y-25373D01*
X27250Y-25334D01*
X27322Y-25262D01*
X27361Y-25169D01*
X27361Y-25067D01*
X27361Y-26988D01*
X27342Y-26942D01*
X27270Y-26870D01*
X27176Y-26831D01*
X27075Y-26831D01*
X26981Y-26870D01*
X26909Y-26941D01*
X26871Y-27035D01*
X26870Y-27137D01*
X26909Y-27230D01*
X26981Y-27302D01*
X27075Y-27341D01*
X27176Y-27341D01*
X27270Y-27302D01*
X27342Y-27231D01*
X27380Y-27137D01*
X27381Y-27036D01*
X27381Y-37705D01*
X27262Y-37705D01*
X27262Y-34240D01*
X27224Y-34147D01*
X27184Y-34107D01*
X27184Y-33158D01*
X27145Y-33064D01*
X27105Y-33024D01*
X27105Y-29870D01*
X27066Y-29777D01*
X26995Y-29705D01*
X26901Y-29666D01*
X26829Y-29666D01*
X26829Y-25658D01*
X26791Y-25564D01*
X26719Y-25492D01*
X26625Y-25453D01*
X26524Y-25453D01*
X26430Y-25492D01*
X26358Y-25564D01*
X26319Y-25657D01*
X26319Y-25759D01*
X26358Y-25852D01*
X26430Y-25924D01*
X26523Y-25963D01*
X26625Y-25963D01*
X26719Y-25924D01*
X26790Y-25853D01*
X26829Y-25759D01*
X26829Y-25658D01*
X26829Y-29666D01*
X26799Y-29666D01*
X26706Y-29704D01*
X26634Y-29776D01*
X26595Y-29870D01*
X26595Y-29971D01*
X26634Y-30065D01*
X26705Y-30137D01*
X26799Y-30176D01*
X26900Y-30176D01*
X26994Y-30137D01*
X27066Y-30065D01*
X27105Y-29972D01*
X27105Y-29870D01*
X27105Y-33024D01*
X27073Y-32992D01*
X26980Y-32953D01*
X26878Y-32953D01*
X26784Y-32992D01*
X26713Y-33064D01*
X26674Y-33157D01*
X26674Y-33259D01*
X26712Y-33352D01*
X26784Y-33424D01*
X26878Y-33463D01*
X26979Y-33463D01*
X27073Y-33424D01*
X27145Y-33353D01*
X27184Y-33259D01*
X27184Y-33158D01*
X27184Y-34107D01*
X27152Y-34075D01*
X27058Y-34036D01*
X26957Y-34036D01*
X26863Y-34075D01*
X26791Y-34146D01*
X26752Y-34240D01*
X26752Y-34341D01*
X26791Y-34435D01*
X26863Y-34507D01*
X26956Y-34546D01*
X27058Y-34546D01*
X27152Y-34507D01*
X27223Y-34435D01*
X27262Y-34342D01*
X27262Y-34240D01*
X27262Y-37705D01*
X26632Y-37705D01*
X26632Y-33020D01*
X26594Y-32926D01*
X26554Y-32886D01*
X26554Y-27429D01*
X26515Y-27336D01*
X26443Y-27264D01*
X26350Y-27225D01*
X26248Y-27225D01*
X26154Y-27264D01*
X26121Y-27297D01*
X26121Y-26012D01*
X26082Y-25918D01*
X26010Y-25846D01*
X25917Y-25808D01*
X25815Y-25807D01*
X25721Y-25846D01*
X25650Y-25918D01*
X25611Y-26012D01*
X25611Y-26113D01*
X25613Y-26118D01*
X25141Y-26118D01*
X25093Y-26138D01*
X25057Y-26174D01*
X25037Y-26222D01*
X25037Y-26274D01*
X25037Y-27061D01*
X25057Y-27109D01*
X25093Y-27145D01*
X25141Y-27165D01*
X25193Y-27165D01*
X25744Y-27165D01*
X25792Y-27145D01*
X25828Y-27109D01*
X25848Y-27061D01*
X25848Y-27009D01*
X25848Y-26317D01*
X25916Y-26318D01*
X26010Y-26279D01*
X26082Y-26207D01*
X26121Y-26113D01*
X26121Y-26012D01*
X26121Y-27297D01*
X26083Y-27335D01*
X26044Y-27429D01*
X26044Y-27530D01*
X26082Y-27624D01*
X26154Y-27696D01*
X26248Y-27735D01*
X26349Y-27735D01*
X26443Y-27696D01*
X26515Y-27624D01*
X26554Y-27531D01*
X26554Y-27429D01*
X26554Y-32886D01*
X26522Y-32854D01*
X26428Y-32815D01*
X26327Y-32815D01*
X26233Y-32854D01*
X26161Y-32926D01*
X26122Y-33019D01*
X26122Y-33121D01*
X26126Y-33130D01*
X26121Y-33130D01*
X26121Y-32705D01*
X26082Y-32611D01*
X26010Y-32539D01*
X25917Y-32500D01*
X25815Y-32500D01*
X25721Y-32539D01*
X25650Y-32611D01*
X25611Y-32704D01*
X25611Y-32806D01*
X25649Y-32900D01*
X25721Y-32971D01*
X25815Y-33010D01*
X25916Y-33010D01*
X26010Y-32972D01*
X26082Y-32900D01*
X26121Y-32806D01*
X26121Y-32705D01*
X26121Y-33130D01*
X26091Y-33130D01*
X25997Y-33169D01*
X25925Y-33241D01*
X25886Y-33334D01*
X25886Y-33436D01*
X25925Y-33530D01*
X25997Y-33601D01*
X26041Y-33620D01*
X26036Y-33622D01*
X25965Y-33693D01*
X25926Y-33787D01*
X25926Y-33889D01*
X25964Y-33982D01*
X26036Y-34054D01*
X26130Y-34093D01*
X26231Y-34093D01*
X26325Y-34054D01*
X26397Y-33983D01*
X26436Y-33889D01*
X26436Y-33788D01*
X26397Y-33694D01*
X26325Y-33622D01*
X26281Y-33604D01*
X26285Y-33602D01*
X26357Y-33530D01*
X26396Y-33436D01*
X26396Y-33335D01*
X26392Y-33325D01*
X26428Y-33325D01*
X26522Y-33287D01*
X26594Y-33215D01*
X26632Y-33121D01*
X26632Y-33020D01*
X26632Y-37705D01*
X26140Y-37705D01*
X26140Y-36051D01*
X26102Y-35958D01*
X26030Y-35886D01*
X25936Y-35847D01*
X25835Y-35847D01*
X25741Y-35886D01*
X25669Y-35957D01*
X25630Y-36051D01*
X25630Y-36152D01*
X25669Y-36246D01*
X25741Y-36318D01*
X25834Y-36357D01*
X25936Y-36357D01*
X26030Y-36318D01*
X26101Y-36246D01*
X26140Y-36153D01*
X26140Y-36051D01*
X26140Y-37705D01*
X24916Y-37705D01*
X24916Y-28385D01*
X24916Y-28114D01*
X24910Y-28085D01*
X24807Y-27896D01*
X24639Y-27761D01*
X24433Y-27700D01*
X24300Y-27700D01*
X24300Y-28200D01*
X24867Y-28200D01*
X24916Y-28114D01*
X24916Y-28385D01*
X24867Y-28300D01*
X24300Y-28300D01*
X24300Y-28800D01*
X24433Y-28800D01*
X24639Y-28738D01*
X24807Y-28603D01*
X24910Y-28414D01*
X24916Y-28385D01*
X24916Y-37705D01*
X23781Y-37705D01*
X23781Y-36676D01*
X23791Y-36680D01*
X23842Y-36680D01*
X24708Y-36680D01*
X24756Y-36660D01*
X24793Y-36623D01*
X24813Y-36575D01*
X24813Y-36524D01*
X24813Y-35924D01*
X24793Y-35876D01*
X24756Y-35839D01*
X24708Y-35820D01*
X24657Y-35820D01*
X23791Y-35820D01*
X23781Y-35823D01*
X23781Y-35523D01*
X23801Y-35554D01*
X23941Y-35647D01*
X24105Y-35680D01*
X24394Y-35680D01*
X24558Y-35647D01*
X24698Y-35554D01*
X24791Y-35414D01*
X24824Y-35250D01*
X24791Y-35085D01*
X24698Y-34945D01*
X24558Y-34852D01*
X24394Y-34820D01*
X24105Y-34820D01*
X23941Y-34852D01*
X23801Y-34945D01*
X23781Y-34976D01*
X23781Y-34523D01*
X23801Y-34554D01*
X23941Y-34647D01*
X24105Y-34680D01*
X24394Y-34680D01*
X24558Y-34647D01*
X24698Y-34554D01*
X24791Y-34414D01*
X24824Y-34250D01*
X24791Y-34085D01*
X24698Y-33945D01*
X24558Y-33852D01*
X24394Y-33820D01*
X24105Y-33820D01*
X23941Y-33852D01*
X23801Y-33945D01*
X23781Y-33976D01*
X23781Y-33523D01*
X23801Y-33554D01*
X23941Y-33647D01*
X24105Y-33680D01*
X24394Y-33680D01*
X24558Y-33647D01*
X24698Y-33554D01*
X24791Y-33414D01*
X24824Y-33250D01*
X24791Y-33085D01*
X24698Y-32945D01*
X24558Y-32852D01*
X24394Y-32820D01*
X24105Y-32820D01*
X23941Y-32852D01*
X23801Y-32945D01*
X23781Y-32976D01*
X23781Y-32523D01*
X23801Y-32554D01*
X23941Y-32647D01*
X24105Y-32680D01*
X24394Y-32680D01*
X24558Y-32647D01*
X24698Y-32554D01*
X24791Y-32414D01*
X24824Y-32250D01*
X24791Y-32085D01*
X24698Y-31945D01*
X24558Y-31852D01*
X24394Y-31820D01*
X24105Y-31820D01*
X23941Y-31852D01*
X23801Y-31945D01*
X23781Y-31976D01*
X23781Y-31523D01*
X23801Y-31554D01*
X23941Y-31647D01*
X24105Y-31680D01*
X24394Y-31680D01*
X24558Y-31647D01*
X24698Y-31554D01*
X24791Y-31414D01*
X24824Y-31250D01*
X24791Y-31085D01*
X24698Y-30945D01*
X24558Y-30852D01*
X24394Y-30820D01*
X24105Y-30820D01*
X23941Y-30852D01*
X23801Y-30945D01*
X23781Y-30976D01*
X23781Y-30523D01*
X23801Y-30554D01*
X23941Y-30647D01*
X24105Y-30680D01*
X24394Y-30680D01*
X24558Y-30647D01*
X24698Y-30554D01*
X24791Y-30414D01*
X24824Y-30250D01*
X24791Y-30085D01*
X24698Y-29945D01*
X24558Y-29852D01*
X24394Y-29820D01*
X24105Y-29820D01*
X23941Y-29852D01*
X23801Y-29945D01*
X23781Y-29976D01*
X23781Y-29523D01*
X23801Y-29554D01*
X23941Y-29647D01*
X24105Y-29680D01*
X24394Y-29680D01*
X24558Y-29647D01*
X24698Y-29554D01*
X24791Y-29414D01*
X24824Y-29250D01*
X24791Y-29085D01*
X24698Y-28945D01*
X24558Y-28852D01*
X24394Y-28820D01*
X24105Y-28820D01*
X23941Y-28852D01*
X23801Y-28945D01*
X23781Y-28976D01*
X23781Y-28675D01*
X23860Y-28738D01*
X24067Y-28800D01*
X24200Y-28800D01*
X24200Y-28300D01*
X24192Y-28300D01*
X24192Y-28200D01*
X24200Y-28200D01*
X24200Y-27700D01*
X24067Y-27700D01*
X23860Y-27761D01*
X23781Y-27824D01*
X23781Y-26951D01*
X23800Y-26959D01*
X23852Y-26959D01*
X24817Y-26959D01*
X24865Y-26939D01*
X24901Y-26902D01*
X24921Y-26854D01*
X24921Y-26803D01*
X24921Y-26291D01*
X24901Y-26243D01*
X24865Y-26206D01*
X24817Y-26187D01*
X24765Y-26187D01*
X23800Y-26187D01*
X23781Y-26194D01*
X23781Y-24805D01*
X23800Y-24813D01*
X23852Y-24813D01*
X24817Y-24813D01*
X24865Y-24793D01*
X24901Y-24756D01*
X24921Y-24708D01*
X24921Y-24657D01*
X24921Y-24145D01*
X24901Y-24097D01*
X24865Y-24060D01*
X24817Y-24041D01*
X24765Y-24041D01*
X23800Y-24041D01*
X23781Y-24048D01*
X23781Y-24031D01*
X23802Y-23927D01*
X23852Y-23852D01*
X23927Y-23802D01*
X24031Y-23781D01*
X42897Y-23781D01*
X43001Y-23802D01*
X43076Y-23852D01*
X43126Y-23927D01*
X43147Y-24031D01*
X43147Y-30937D01*
X43071Y-30886D01*
X42934Y-30859D01*
X42934Y-25066D01*
X42917Y-24978D01*
X42917Y-24978D01*
X42867Y-24904D01*
X41855Y-23892D01*
X41780Y-23842D01*
X41692Y-23825D01*
X26771Y-23825D01*
X26683Y-23842D01*
X26609Y-23892D01*
X26609Y-23892D01*
X25860Y-24640D01*
X25848Y-24645D01*
X25848Y-23938D01*
X25828Y-23890D01*
X25792Y-23854D01*
X25744Y-23834D01*
X25692Y-23834D01*
X25141Y-23834D01*
X25093Y-23854D01*
X25057Y-23890D01*
X25037Y-23938D01*
X25037Y-23990D01*
X25037Y-24777D01*
X25057Y-24825D01*
X25093Y-24861D01*
X25141Y-24881D01*
X25193Y-24881D01*
X25689Y-24881D01*
X25689Y-24932D01*
X25728Y-25026D01*
X25800Y-25097D01*
X25837Y-25113D01*
X25808Y-25185D01*
X25807Y-25286D01*
X25846Y-25380D01*
X25918Y-25452D01*
X26012Y-25491D01*
X26113Y-25491D01*
X26207Y-25452D01*
X26279Y-25380D01*
X26317Y-25287D01*
X26318Y-25185D01*
X26279Y-25091D01*
X26207Y-25020D01*
X26170Y-25004D01*
X26186Y-24965D01*
X26634Y-24517D01*
X26634Y-24519D01*
X26673Y-24612D01*
X26745Y-24684D01*
X26838Y-24723D01*
X26940Y-24723D01*
X27034Y-24684D01*
X27105Y-24613D01*
X27144Y-24519D01*
X27144Y-24418D01*
X27106Y-24324D01*
X27067Y-24285D01*
X37440Y-24285D01*
X37382Y-24343D01*
X37343Y-24437D01*
X37343Y-24538D01*
X37382Y-24632D01*
X37453Y-24704D01*
X37547Y-24743D01*
X37648Y-24743D01*
X37742Y-24704D01*
X37814Y-24632D01*
X37853Y-24539D01*
X37853Y-24437D01*
X37814Y-24343D01*
X37756Y-24285D01*
X41597Y-24285D01*
X42474Y-25162D01*
X42474Y-30926D01*
X42394Y-30979D01*
X42381Y-31000D01*
X42381Y-27469D01*
X42342Y-27375D01*
X42270Y-27303D01*
X42176Y-27264D01*
X42075Y-27264D01*
X41981Y-27303D01*
X41909Y-27375D01*
X41871Y-27468D01*
X41870Y-27570D01*
X41909Y-27663D01*
X41981Y-27735D01*
X42075Y-27774D01*
X42176Y-27774D01*
X42270Y-27735D01*
X42342Y-27664D01*
X42380Y-27570D01*
X42381Y-27469D01*
X42381Y-31000D01*
X42301Y-31118D01*
X42268Y-31283D01*
X42301Y-31448D01*
X42394Y-31587D01*
X42534Y-31680D01*
X42698Y-31713D01*
X42906Y-31713D01*
X43071Y-31680D01*
X43147Y-31629D01*
X43147Y-31937D01*
M02*
