%FSLAX34Y34*%
G04 Gerber Fmt 3.4, Leading zero omitted, Abs format*
G04 (created by PCBNEW (2013-11-08 BZR 4448)-product) date 2013-12-08T10:58:15 CET*
%MOIN*%
G01*
G70*
G90*
G04 APERTURE LIST*
%ADD10C,0.005906*%
%ADD11C,0.133858*%
%ADD12R,0.084648X0.031448*%
%ADD13R,0.114148X0.071848*%
%ADD14R,0.070848X0.094448*%
%ADD15R,0.112248X0.066948*%
%ADD16R,0.043348X0.087648*%
%ADD17R,0.070848X0.098448*%
%ADD18R,0.081848X0.047248*%
%ADD19R,0.074848X0.078748*%
%ADD20R,0.074848X0.082648*%
%ADD21R,0.082648X0.074848*%
%ADD22R,0.066948X0.066548*%
%ADD23R,0.070848X0.066548*%
%ADD24R,0.040748X0.060748*%
%ADD25R,0.062948X0.062948*%
%ADD26R,0.075748X0.102348*%
%ADD27O,0.075748X0.102348*%
%ADD28R,0.094448X0.075748*%
%ADD29O,0.094448X0.075748*%
%ADD30R,0.075748X0.094448*%
%ADD31O,0.075748X0.094448*%
%ADD32R,0.102348X0.075748*%
%ADD33O,0.102348X0.075748*%
%ADD34R,0.066948X0.074748*%
%ADD35R,0.074748X0.066948*%
%ADD36R,0.043307X0.110236*%
%ADD37R,0.712598X0.212598*%
%ADD38R,0.598425X0.354331*%
%ADD39C,0.173228*%
%ADD40O,0.173248X0.094448*%
%ADD41O,0.192948X0.094448*%
G04 APERTURE END LIST*
G54D10*
X42913Y-43307D02*
G75*
G03X43307Y-42913I0J393D01*
G74*
G01*
X23622Y-42913D02*
G75*
G03X24015Y-43307I393J0D01*
G74*
G01*
X24015Y-23622D02*
G75*
G03X23622Y-24015I0J-393D01*
G74*
G01*
X43307Y-24015D02*
G75*
G03X42913Y-23622I-393J0D01*
G74*
G01*
X23622Y-42913D02*
X23622Y-24015D01*
X42913Y-43307D02*
X24015Y-43307D01*
X43307Y-24015D02*
X43307Y-42913D01*
X24015Y-23622D02*
X42913Y-23622D01*
G54D11*
X38779Y-39803D03*
G54D12*
X25362Y-24988D03*
X25362Y-25244D03*
X25362Y-25500D03*
X25362Y-25756D03*
X25362Y-26012D03*
G54D13*
X24152Y-25121D03*
X24152Y-25879D03*
G54D14*
X25443Y-24358D03*
X25443Y-26642D03*
G54D15*
X24309Y-24427D03*
G54D16*
X24919Y-24324D03*
X24919Y-26676D03*
G54D15*
X24309Y-26573D03*
G54D17*
X29136Y-24259D03*
X29136Y-27841D03*
X27364Y-24259D03*
X27364Y-27841D03*
G54D18*
X36931Y-27892D03*
X36931Y-27459D03*
X36931Y-27026D03*
X36931Y-26593D03*
X36931Y-26159D03*
X36931Y-25726D03*
X36931Y-25293D03*
X36931Y-24860D03*
G54D19*
X36896Y-24305D03*
G54D20*
X36896Y-29289D03*
G54D21*
X42742Y-24093D03*
X42742Y-29407D03*
G54D22*
X37545Y-24051D03*
G54D23*
X40459Y-24051D03*
G54D24*
X25350Y-27500D03*
X25950Y-27500D03*
G54D25*
X38385Y-31830D03*
X38385Y-31004D03*
G54D10*
G36*
X29380Y-31400D02*
X29826Y-30955D01*
X30271Y-31400D01*
X29826Y-31845D01*
X29380Y-31400D01*
X29380Y-31400D01*
G37*
G36*
X29965Y-31984D02*
X30410Y-31539D01*
X30855Y-31984D01*
X30410Y-32430D01*
X29965Y-31984D01*
X29965Y-31984D01*
G37*
G54D26*
X36748Y-42677D03*
G54D27*
X35748Y-42677D03*
X34748Y-42677D03*
G54D28*
X24126Y-38708D03*
G54D29*
X25322Y-38708D03*
X24126Y-39708D03*
X25322Y-39708D03*
X24126Y-40708D03*
X25322Y-40708D03*
X24126Y-41708D03*
X25322Y-41708D03*
X24126Y-42708D03*
X25322Y-42708D03*
G54D30*
X38708Y-42802D03*
G54D31*
X38708Y-41606D03*
X39708Y-42802D03*
X39708Y-41606D03*
X40708Y-42802D03*
X40708Y-41606D03*
X41708Y-42802D03*
X41708Y-41606D03*
X42708Y-42802D03*
X42708Y-41606D03*
G54D28*
X42802Y-39480D03*
G54D29*
X41606Y-39480D03*
X42802Y-38480D03*
X41606Y-38480D03*
X42802Y-37480D03*
X41606Y-37480D03*
X42802Y-36480D03*
X41606Y-36480D03*
X42802Y-35480D03*
X41606Y-35480D03*
G54D26*
X31783Y-42677D03*
G54D27*
X32783Y-42677D03*
G54D30*
X30700Y-26698D03*
G54D31*
X30700Y-25502D03*
X31700Y-26698D03*
X31700Y-25502D03*
X32700Y-26698D03*
X32700Y-25502D03*
X33700Y-26698D03*
X33700Y-25502D03*
G54D32*
X24250Y-36250D03*
G54D33*
X24250Y-35250D03*
X24250Y-34250D03*
X24250Y-33250D03*
X24250Y-32250D03*
X24250Y-31250D03*
X24250Y-30250D03*
X24250Y-29250D03*
X24250Y-28250D03*
G54D28*
X42802Y-33283D03*
G54D29*
X41606Y-33283D03*
X42802Y-32283D03*
X41606Y-32283D03*
X42802Y-31283D03*
X41606Y-31283D03*
G54D10*
G36*
X31434Y-30826D02*
X30905Y-30297D01*
X31379Y-29824D01*
X31907Y-30352D01*
X31434Y-30826D01*
X31434Y-30826D01*
G37*
G36*
X30904Y-31356D02*
X30375Y-30828D01*
X30848Y-30354D01*
X31377Y-30883D01*
X30904Y-31356D01*
X30904Y-31356D01*
G37*
G36*
X32576Y-31771D02*
X32047Y-31242D01*
X32521Y-30769D01*
X33049Y-31297D01*
X32576Y-31771D01*
X32576Y-31771D01*
G37*
G36*
X32045Y-32301D02*
X31517Y-31773D01*
X31990Y-31299D01*
X32519Y-31828D01*
X32045Y-32301D01*
X32045Y-32301D01*
G37*
G36*
X31355Y-32991D02*
X30827Y-32463D01*
X31300Y-31989D01*
X31829Y-32518D01*
X31355Y-32991D01*
X31355Y-32991D01*
G37*
G36*
X30825Y-33522D02*
X30296Y-32993D01*
X30770Y-32520D01*
X31298Y-33048D01*
X30825Y-33522D01*
X30825Y-33522D01*
G37*
G36*
X28307Y-33068D02*
X28836Y-32539D01*
X29309Y-33013D01*
X28780Y-33541D01*
X28307Y-33068D01*
X28307Y-33068D01*
G37*
G36*
X27777Y-32538D02*
X28305Y-32009D01*
X28779Y-32482D01*
X28250Y-33011D01*
X27777Y-32538D01*
X27777Y-32538D01*
G37*
G36*
X29190Y-29999D02*
X28661Y-29471D01*
X29135Y-28997D01*
X29663Y-29526D01*
X29190Y-29999D01*
X29190Y-29999D01*
G37*
G36*
X28660Y-30529D02*
X28131Y-30001D01*
X28604Y-29527D01*
X29133Y-30056D01*
X28660Y-30529D01*
X28660Y-30529D01*
G37*
G36*
X32030Y-29567D02*
X32558Y-30095D01*
X32085Y-30569D01*
X31556Y-30040D01*
X32030Y-29567D01*
X32030Y-29567D01*
G37*
G36*
X32560Y-29037D02*
X33088Y-29565D01*
X32615Y-30038D01*
X32087Y-29510D01*
X32560Y-29037D01*
X32560Y-29037D01*
G37*
G36*
X27187Y-30000D02*
X27716Y-30528D01*
X27242Y-31002D01*
X26714Y-30473D01*
X27187Y-30000D01*
X27187Y-30000D01*
G37*
G36*
X27717Y-29470D02*
X28246Y-29998D01*
X27773Y-30472D01*
X27244Y-29943D01*
X27717Y-29470D01*
X27717Y-29470D01*
G37*
G54D34*
X37065Y-34330D03*
X37815Y-34330D03*
G54D35*
X35118Y-33563D03*
X35118Y-32813D03*
G54D34*
X34664Y-28582D03*
X35414Y-28582D03*
X25412Y-30708D03*
X26162Y-30708D03*
X26142Y-31633D03*
X25392Y-31633D03*
X34664Y-27795D03*
X35414Y-27795D03*
G54D35*
X39212Y-31042D03*
X39212Y-31792D03*
G54D10*
G36*
X29370Y-32497D02*
X29899Y-31968D01*
X30372Y-32442D01*
X29843Y-32970D01*
X29370Y-32497D01*
X29370Y-32497D01*
G37*
G36*
X28840Y-31967D02*
X29368Y-31438D01*
X29842Y-31911D01*
X29313Y-32440D01*
X28840Y-31967D01*
X28840Y-31967D01*
G37*
G54D34*
X33170Y-41653D03*
X32420Y-41653D03*
G54D35*
X31889Y-34428D03*
X31889Y-35178D03*
G54D34*
X41121Y-40629D03*
X41871Y-40629D03*
G54D35*
X40590Y-35335D03*
X40590Y-34585D03*
X36496Y-32774D03*
X36496Y-33524D03*
G54D36*
X32553Y-40787D03*
X33053Y-40787D03*
X33553Y-40787D03*
X34053Y-40787D03*
X34553Y-40787D03*
X35053Y-40787D03*
X35553Y-40787D03*
X36053Y-40787D03*
X36553Y-40787D03*
X37053Y-40787D03*
X37053Y-35275D03*
X36553Y-35275D03*
X36053Y-35275D03*
X35553Y-35275D03*
X35053Y-35275D03*
X34553Y-35275D03*
X34053Y-35275D03*
X33553Y-35275D03*
X33053Y-35275D03*
X32553Y-35275D03*
G54D37*
X34803Y-38031D03*
G54D38*
X34803Y-38031D03*
G54D10*
G36*
X27096Y-37062D02*
X27652Y-36505D01*
X28766Y-37618D01*
X28209Y-38175D01*
X27096Y-37062D01*
X27096Y-37062D01*
G37*
G36*
X25564Y-35530D02*
X26121Y-34973D01*
X27234Y-36087D01*
X26677Y-36644D01*
X25564Y-35530D01*
X25564Y-35530D01*
G37*
G54D39*
X30512Y-40196D03*
G54D40*
X28425Y-41476D03*
G54D41*
X28425Y-39113D03*
G54D10*
G36*
X32677Y-33245D02*
X33206Y-32716D01*
X33679Y-33190D01*
X33150Y-33718D01*
X32677Y-33245D01*
X32677Y-33245D01*
G37*
G36*
X32147Y-32715D02*
X32675Y-32186D01*
X33149Y-32660D01*
X32620Y-33188D01*
X32147Y-32715D01*
X32147Y-32715D01*
G37*
G36*
X32165Y-33757D02*
X32694Y-33228D01*
X33167Y-33702D01*
X32639Y-34230D01*
X32165Y-33757D01*
X32165Y-33757D01*
G37*
G36*
X31635Y-33226D02*
X32163Y-32698D01*
X32637Y-33171D01*
X32108Y-33700D01*
X31635Y-33226D01*
X31635Y-33226D01*
G37*
M02*
