%FSLAX34Y34*%
G04 Gerber Fmt 3.4, Leading zero omitted, Abs format*
G04 (created by PCBNEW (2013-11-08 BZR 4448)-product) date 2013-12-07T17:29:24 CET*
%MOIN*%
G01*
G70*
G90*
G04 APERTURE LIST*
%ADD10C,0.005906*%
%ADD11C,0.133858*%
%ADD12R,0.070848X0.094448*%
%ADD13R,0.112248X0.066948*%
%ADD14C,0.025548*%
%ADD15R,0.045748X0.035748*%
%ADD16R,0.047248X0.055148*%
%ADD17R,0.075748X0.102348*%
%ADD18O,0.075748X0.102348*%
%ADD19R,0.094448X0.075748*%
%ADD20O,0.094448X0.075748*%
%ADD21R,0.075748X0.094448*%
%ADD22O,0.075748X0.094448*%
%ADD23R,0.102348X0.075748*%
%ADD24O,0.102348X0.075748*%
%ADD25R,0.066948X0.074748*%
%ADD26R,0.074748X0.066948*%
%ADD27C,0.173228*%
%ADD28O,0.173248X0.094448*%
%ADD29O,0.192948X0.094448*%
G04 APERTURE END LIST*
G54D10*
X42913Y-43307D02*
G75*
G03X43307Y-42913I0J393D01*
G74*
G01*
X23622Y-42913D02*
G75*
G03X24015Y-43307I393J0D01*
G74*
G01*
X24015Y-23622D02*
G75*
G03X23622Y-24015I0J-393D01*
G74*
G01*
X43307Y-24015D02*
G75*
G03X42913Y-23622I-393J0D01*
G74*
G01*
X23622Y-42913D02*
X23622Y-24015D01*
X42913Y-43307D02*
X24015Y-43307D01*
X43307Y-24015D02*
X43307Y-42913D01*
X24015Y-23622D02*
X42913Y-23622D01*
G54D11*
X38779Y-39803D03*
G54D12*
X25443Y-24358D03*
X25443Y-26642D03*
G54D13*
X24309Y-24427D03*
X24309Y-26573D03*
G54D10*
G36*
X27884Y-26729D02*
X28663Y-27509D01*
X27856Y-28316D01*
X27077Y-27537D01*
X27884Y-26729D01*
X27884Y-26729D01*
G37*
G36*
X26631Y-27982D02*
X27411Y-28762D01*
X26603Y-29569D01*
X25824Y-28789D01*
X26631Y-27982D01*
X26631Y-27982D01*
G37*
G36*
X33100Y-31682D02*
X33635Y-32217D01*
X33455Y-32398D01*
X32919Y-31862D01*
X33100Y-31682D01*
X33100Y-31682D01*
G37*
G54D14*
X33315Y-32357D02*
X32961Y-32002D01*
X33176Y-32496D02*
X32821Y-32141D01*
X33037Y-32635D02*
X32682Y-32280D01*
X32898Y-32775D02*
X32543Y-32420D01*
X32759Y-32913D02*
X32404Y-32558D01*
X32620Y-33053D02*
X32265Y-32698D01*
X32480Y-33192D02*
X32125Y-32837D01*
X32341Y-33331D02*
X31986Y-32976D01*
X32202Y-33470D02*
X31847Y-33115D01*
X32063Y-33610D02*
X31708Y-33255D01*
X31924Y-33748D02*
X31569Y-33393D01*
X31785Y-33888D02*
X31430Y-33533D01*
X31645Y-34027D02*
X31290Y-33672D01*
X31506Y-34166D02*
X31151Y-33811D01*
X31367Y-34306D02*
X31012Y-33951D01*
X30141Y-33995D02*
X29786Y-34350D01*
X30002Y-33856D02*
X29647Y-34211D01*
X29863Y-33716D02*
X29508Y-34071D01*
X29723Y-33577D02*
X29368Y-33932D01*
X29584Y-33438D02*
X29229Y-33793D01*
X29446Y-33299D02*
X29091Y-33654D01*
X29306Y-33160D02*
X28951Y-33515D01*
X29167Y-33021D02*
X28812Y-33376D01*
X29028Y-32881D02*
X28673Y-33236D01*
X28888Y-32742D02*
X28533Y-33097D01*
X28749Y-32603D02*
X28394Y-32958D01*
X28610Y-32464D02*
X28255Y-32819D01*
X28471Y-32325D02*
X28116Y-32680D01*
X28332Y-32186D02*
X27977Y-32541D01*
X28193Y-32046D02*
X27838Y-32401D01*
X28053Y-31907D02*
X27698Y-32262D01*
X28053Y-30992D02*
X27698Y-30637D01*
X28193Y-30853D02*
X27838Y-30498D01*
X28332Y-30713D02*
X27977Y-30358D01*
X28471Y-30574D02*
X28116Y-30219D01*
X28610Y-30435D02*
X28255Y-30080D01*
X28749Y-30296D02*
X28394Y-29941D01*
X28888Y-30157D02*
X28533Y-29802D01*
X29028Y-30018D02*
X28673Y-29663D01*
X29167Y-29878D02*
X28812Y-29523D01*
X29306Y-29739D02*
X28951Y-29384D01*
X29446Y-29600D02*
X29091Y-29245D01*
X29584Y-29461D02*
X29229Y-29106D01*
X29723Y-29322D02*
X29368Y-28967D01*
X29863Y-29183D02*
X29508Y-28828D01*
X30002Y-29043D02*
X29647Y-28688D01*
X30141Y-28904D02*
X29786Y-28549D01*
X31367Y-28593D02*
X31012Y-28948D01*
X31506Y-28733D02*
X31151Y-29088D01*
X31785Y-29011D02*
X31430Y-29366D01*
X31650Y-28867D02*
X31295Y-29222D01*
X31924Y-29151D02*
X31569Y-29506D01*
X32063Y-29289D02*
X31708Y-29644D01*
X32202Y-29429D02*
X31847Y-29784D01*
X32341Y-29568D02*
X31986Y-29923D01*
X32480Y-29707D02*
X32125Y-30062D01*
X32620Y-29846D02*
X32265Y-30201D01*
X32757Y-29984D02*
X32402Y-30339D01*
X32896Y-30123D02*
X32541Y-30478D01*
X33035Y-30262D02*
X32681Y-30617D01*
X33175Y-30402D02*
X32820Y-30757D01*
X33313Y-30540D02*
X32958Y-30895D01*
X33453Y-30679D02*
X33098Y-31034D01*
G54D15*
X41261Y-27669D03*
X41261Y-28419D03*
X40261Y-27669D03*
X41261Y-28044D03*
X40261Y-28419D03*
G54D16*
X36062Y-32913D03*
X35687Y-33779D03*
X36437Y-33779D03*
G54D17*
X36748Y-42677D03*
G54D18*
X35748Y-42677D03*
X34748Y-42677D03*
G54D19*
X24126Y-38708D03*
G54D20*
X25322Y-38708D03*
X24126Y-39708D03*
X25322Y-39708D03*
X24126Y-40708D03*
X25322Y-40708D03*
X24126Y-41708D03*
X25322Y-41708D03*
X24126Y-42708D03*
X25322Y-42708D03*
G54D21*
X38708Y-42802D03*
G54D22*
X38708Y-41606D03*
X39708Y-42802D03*
X39708Y-41606D03*
X40708Y-42802D03*
X40708Y-41606D03*
X41708Y-42802D03*
X41708Y-41606D03*
X42708Y-42802D03*
X42708Y-41606D03*
G54D19*
X42802Y-39480D03*
G54D20*
X41606Y-39480D03*
X42802Y-38480D03*
X41606Y-38480D03*
X42802Y-37480D03*
X41606Y-37480D03*
X42802Y-36480D03*
X41606Y-36480D03*
X42802Y-35480D03*
X41606Y-35480D03*
G54D17*
X31783Y-42677D03*
G54D18*
X32783Y-42677D03*
G54D21*
X30700Y-26698D03*
G54D22*
X30700Y-25502D03*
X31700Y-26698D03*
X31700Y-25502D03*
X32700Y-26698D03*
X32700Y-25502D03*
X33700Y-26698D03*
X33700Y-25502D03*
G54D23*
X24250Y-36250D03*
G54D24*
X24250Y-35250D03*
X24250Y-34250D03*
X24250Y-33250D03*
X24250Y-32250D03*
X24250Y-31250D03*
X24250Y-30250D03*
X24250Y-29250D03*
X24250Y-28250D03*
G54D19*
X42802Y-33283D03*
G54D20*
X41606Y-33283D03*
X42802Y-32283D03*
X41606Y-32283D03*
X42802Y-31283D03*
X41606Y-31283D03*
G54D10*
G36*
X28171Y-28110D02*
X28700Y-28639D01*
X28226Y-29112D01*
X27698Y-28584D01*
X28171Y-28110D01*
X28171Y-28110D01*
G37*
G36*
X28702Y-27580D02*
X29230Y-28108D01*
X28757Y-28582D01*
X28228Y-28053D01*
X28702Y-27580D01*
X28702Y-27580D01*
G37*
G36*
X27773Y-29566D02*
X27244Y-29037D01*
X27717Y-28564D01*
X28246Y-29093D01*
X27773Y-29566D01*
X27773Y-29566D01*
G37*
G36*
X27242Y-30096D02*
X26714Y-29568D01*
X27187Y-29094D01*
X27716Y-29623D01*
X27242Y-30096D01*
X27242Y-30096D01*
G37*
G36*
X27618Y-33816D02*
X28147Y-33287D01*
X28620Y-33761D01*
X28091Y-34289D01*
X27618Y-33816D01*
X27618Y-33816D01*
G37*
G36*
X27088Y-33286D02*
X27616Y-32757D01*
X28090Y-33230D01*
X27561Y-33759D01*
X27088Y-33286D01*
X27088Y-33286D01*
G37*
G36*
X32559Y-29190D02*
X33088Y-28661D01*
X33561Y-29135D01*
X33032Y-29663D01*
X32559Y-29190D01*
X32559Y-29190D01*
G37*
G36*
X32029Y-28660D02*
X32557Y-28131D01*
X33031Y-28604D01*
X32502Y-29133D01*
X32029Y-28660D01*
X32029Y-28660D01*
G37*
G36*
X27126Y-34308D02*
X27654Y-33779D01*
X28128Y-34253D01*
X27599Y-34781D01*
X27126Y-34308D01*
X27126Y-34308D01*
G37*
G36*
X26596Y-33778D02*
X27124Y-33249D01*
X27598Y-33723D01*
X27069Y-34251D01*
X26596Y-33778D01*
X26596Y-33778D01*
G37*
G36*
X33071Y-28678D02*
X33599Y-28150D01*
X34073Y-28623D01*
X33544Y-29151D01*
X33071Y-28678D01*
X33071Y-28678D01*
G37*
G36*
X32540Y-28148D02*
X33069Y-27619D01*
X33542Y-28093D01*
X33014Y-28621D01*
X32540Y-28148D01*
X32540Y-28148D01*
G37*
G54D25*
X39686Y-27694D03*
X38936Y-27694D03*
X41336Y-26994D03*
X42086Y-26994D03*
G54D10*
G36*
X34116Y-33031D02*
X34645Y-33560D01*
X34171Y-34033D01*
X33643Y-33505D01*
X34116Y-33031D01*
X34116Y-33031D01*
G37*
G36*
X34647Y-32501D02*
X35175Y-33030D01*
X34702Y-33503D01*
X34173Y-32974D01*
X34647Y-32501D01*
X34647Y-32501D01*
G37*
G54D25*
X32934Y-34448D03*
X32184Y-34448D03*
X39686Y-28594D03*
X38936Y-28594D03*
X28367Y-25866D03*
X27617Y-25866D03*
X28367Y-25118D03*
X27617Y-25118D03*
G54D10*
G36*
X29741Y-35747D02*
X29213Y-35219D01*
X29686Y-34745D01*
X30214Y-35274D01*
X29741Y-35747D01*
X29741Y-35747D01*
G37*
G36*
X29211Y-36277D02*
X28682Y-35749D01*
X29156Y-35276D01*
X29684Y-35804D01*
X29211Y-36277D01*
X29211Y-36277D01*
G37*
G54D26*
X33543Y-40530D03*
X33543Y-41280D03*
X36062Y-40451D03*
X36062Y-41201D03*
G54D25*
X35018Y-25472D03*
X35768Y-25472D03*
G54D27*
X30512Y-40196D03*
G54D28*
X28425Y-41476D03*
G54D29*
X28425Y-39113D03*
M02*
