%FSLAX34Y34*%
G04 Gerber Fmt 3.4, Leading zero omitted, Abs format*
G04 (created by PCBNEW (2013-11-08 BZR 4448)-product) date 2013-12-07T17:29:24 CET*
%MOIN*%
G01*
G70*
G90*
G04 APERTURE LIST*
%ADD10C,0.005906*%
%ADD11C,0.118110*%
%ADD12R,0.068900X0.015700*%
%ADD13R,0.098400X0.056100*%
%ADD14R,0.055100X0.078700*%
%ADD15R,0.096500X0.051200*%
%ADD16R,0.027600X0.071900*%
%ADD17R,0.055100X0.082700*%
%ADD18R,0.066100X0.031500*%
%ADD19R,0.059100X0.063000*%
%ADD20R,0.059100X0.066900*%
%ADD21R,0.066900X0.059100*%
%ADD22R,0.051200X0.050800*%
%ADD23R,0.055100X0.050800*%
%ADD24R,0.025000X0.045000*%
%ADD25R,0.047200X0.047200*%
%ADD26R,0.060000X0.086600*%
%ADD27O,0.060000X0.086600*%
%ADD28R,0.078700X0.060000*%
%ADD29O,0.078700X0.060000*%
%ADD30R,0.060000X0.078700*%
%ADD31O,0.060000X0.078700*%
%ADD32R,0.086600X0.060000*%
%ADD33O,0.086600X0.060000*%
%ADD34R,0.051200X0.059000*%
%ADD35R,0.059000X0.051200*%
%ADD36R,0.027559X0.094488*%
%ADD37R,0.696850X0.196850*%
%ADD38R,0.582677X0.338583*%
%ADD39C,0.157480*%
%ADD40O,0.157500X0.078700*%
%ADD41O,0.177200X0.078700*%
%ADD42C,0.025000*%
%ADD43C,0.020000*%
%ADD44C,0.015000*%
%ADD45C,0.030000*%
%ADD46C,0.008000*%
%ADD47C,0.010000*%
G04 APERTURE END LIST*
G54D10*
X42913Y-43307D02*
G75*
G03X43307Y-42913I0J393D01*
G74*
G01*
X23622Y-42913D02*
G75*
G03X24015Y-43307I393J0D01*
G74*
G01*
X24015Y-23622D02*
G75*
G03X23622Y-24015I0J-393D01*
G74*
G01*
X43307Y-24015D02*
G75*
G03X42913Y-23622I-393J0D01*
G74*
G01*
X23622Y-42913D02*
X23622Y-24015D01*
X42913Y-43307D02*
X24015Y-43307D01*
X43307Y-24015D02*
X43307Y-42913D01*
X24015Y-23622D02*
X42913Y-23622D01*
G54D11*
X38779Y-39803D03*
G54D12*
X25362Y-24988D03*
X25362Y-25244D03*
X25362Y-25500D03*
X25362Y-25756D03*
X25362Y-26012D03*
G54D13*
X24152Y-25121D03*
X24152Y-25879D03*
G54D14*
X25443Y-24358D03*
X25443Y-26642D03*
G54D15*
X24309Y-24427D03*
G54D16*
X24919Y-24324D03*
X24919Y-26676D03*
G54D15*
X24309Y-26573D03*
G54D17*
X29136Y-24259D03*
X29136Y-27841D03*
X27364Y-24259D03*
X27364Y-27841D03*
G54D18*
X36931Y-27892D03*
X36931Y-27459D03*
X36931Y-27026D03*
X36931Y-26593D03*
X36931Y-26159D03*
X36931Y-25726D03*
X36931Y-25293D03*
X36931Y-24860D03*
G54D19*
X36896Y-24305D03*
G54D20*
X36896Y-29289D03*
G54D21*
X42742Y-24093D03*
X42742Y-29407D03*
G54D22*
X37545Y-24051D03*
G54D23*
X40459Y-24051D03*
G54D24*
X25350Y-27500D03*
X25950Y-27500D03*
G54D25*
X38385Y-31830D03*
X38385Y-31004D03*
G54D10*
G36*
X29492Y-31400D02*
X29826Y-31067D01*
X30159Y-31400D01*
X29826Y-31734D01*
X29492Y-31400D01*
X29492Y-31400D01*
G37*
G36*
X30076Y-31984D02*
X30410Y-31651D01*
X30743Y-31984D01*
X30410Y-32318D01*
X30076Y-31984D01*
X30076Y-31984D01*
G37*
G54D26*
X36748Y-42677D03*
G54D27*
X35748Y-42677D03*
X34748Y-42677D03*
G54D28*
X24126Y-38708D03*
G54D29*
X25322Y-38708D03*
X24126Y-39708D03*
X25322Y-39708D03*
X24126Y-40708D03*
X25322Y-40708D03*
X24126Y-41708D03*
X25322Y-41708D03*
X24126Y-42708D03*
X25322Y-42708D03*
G54D30*
X38708Y-42802D03*
G54D31*
X38708Y-41606D03*
X39708Y-42802D03*
X39708Y-41606D03*
X40708Y-42802D03*
X40708Y-41606D03*
X41708Y-42802D03*
X41708Y-41606D03*
X42708Y-42802D03*
X42708Y-41606D03*
G54D28*
X42802Y-39480D03*
G54D29*
X41606Y-39480D03*
X42802Y-38480D03*
X41606Y-38480D03*
X42802Y-37480D03*
X41606Y-37480D03*
X42802Y-36480D03*
X41606Y-36480D03*
X42802Y-35480D03*
X41606Y-35480D03*
G54D26*
X31783Y-42677D03*
G54D27*
X32783Y-42677D03*
G54D30*
X30700Y-26698D03*
G54D31*
X30700Y-25502D03*
X31700Y-26698D03*
X31700Y-25502D03*
X32700Y-26698D03*
X32700Y-25502D03*
X33700Y-26698D03*
X33700Y-25502D03*
G54D32*
X24250Y-36250D03*
G54D33*
X24250Y-35250D03*
X24250Y-34250D03*
X24250Y-33250D03*
X24250Y-32250D03*
X24250Y-31250D03*
X24250Y-30250D03*
X24250Y-29250D03*
X24250Y-28250D03*
G54D28*
X42802Y-33283D03*
G54D29*
X41606Y-33283D03*
X42802Y-32283D03*
X41606Y-32283D03*
X42802Y-31283D03*
X41606Y-31283D03*
G54D10*
G36*
X31434Y-30715D02*
X31017Y-30297D01*
X31379Y-29935D01*
X31796Y-30352D01*
X31434Y-30715D01*
X31434Y-30715D01*
G37*
G36*
X30904Y-31245D02*
X30486Y-30828D01*
X30848Y-30466D01*
X31266Y-30883D01*
X30904Y-31245D01*
X30904Y-31245D01*
G37*
G36*
X32576Y-31659D02*
X32159Y-31242D01*
X32521Y-30880D01*
X32938Y-31297D01*
X32576Y-31659D01*
X32576Y-31659D01*
G37*
G36*
X32045Y-32190D02*
X31628Y-31773D01*
X31990Y-31410D01*
X32407Y-31828D01*
X32045Y-32190D01*
X32045Y-32190D01*
G37*
G36*
X31355Y-32880D02*
X30938Y-32463D01*
X31300Y-32101D01*
X31717Y-32518D01*
X31355Y-32880D01*
X31355Y-32880D01*
G37*
G36*
X30825Y-33410D02*
X30408Y-32993D01*
X30770Y-32631D01*
X31187Y-33048D01*
X30825Y-33410D01*
X30825Y-33410D01*
G37*
G36*
X28418Y-33068D02*
X28836Y-32651D01*
X29198Y-33013D01*
X28780Y-33430D01*
X28418Y-33068D01*
X28418Y-33068D01*
G37*
G36*
X27888Y-32538D02*
X28305Y-32120D01*
X28667Y-32482D01*
X28250Y-32900D01*
X27888Y-32538D01*
X27888Y-32538D01*
G37*
G36*
X29190Y-29888D02*
X28773Y-29471D01*
X29135Y-29108D01*
X29552Y-29526D01*
X29190Y-29888D01*
X29190Y-29888D01*
G37*
G36*
X28660Y-30418D02*
X28242Y-30001D01*
X28604Y-29639D01*
X29022Y-30056D01*
X28660Y-30418D01*
X28660Y-30418D01*
G37*
G36*
X32030Y-29678D02*
X32447Y-30095D01*
X32085Y-30457D01*
X31668Y-30040D01*
X32030Y-29678D01*
X32030Y-29678D01*
G37*
G36*
X32560Y-29148D02*
X32977Y-29565D01*
X32615Y-29927D01*
X32198Y-29510D01*
X32560Y-29148D01*
X32560Y-29148D01*
G37*
G36*
X27187Y-30111D02*
X27604Y-30528D01*
X27242Y-30891D01*
X26825Y-30473D01*
X27187Y-30111D01*
X27187Y-30111D01*
G37*
G36*
X27717Y-29581D02*
X28135Y-29998D01*
X27773Y-30360D01*
X27355Y-29943D01*
X27717Y-29581D01*
X27717Y-29581D01*
G37*
G54D34*
X37065Y-34330D03*
X37815Y-34330D03*
G54D35*
X35118Y-33563D03*
X35118Y-32813D03*
G54D34*
X34664Y-28582D03*
X35414Y-28582D03*
X25412Y-30708D03*
X26162Y-30708D03*
X26142Y-31633D03*
X25392Y-31633D03*
X34664Y-27795D03*
X35414Y-27795D03*
G54D35*
X39212Y-31042D03*
X39212Y-31792D03*
G54D10*
G36*
X29481Y-32497D02*
X29899Y-32080D01*
X30261Y-32442D01*
X29843Y-32859D01*
X29481Y-32497D01*
X29481Y-32497D01*
G37*
G36*
X28951Y-31967D02*
X29368Y-31549D01*
X29730Y-31911D01*
X29313Y-32329D01*
X28951Y-31967D01*
X28951Y-31967D01*
G37*
G54D34*
X33170Y-41653D03*
X32420Y-41653D03*
G54D35*
X31889Y-34428D03*
X31889Y-35178D03*
G54D34*
X41121Y-40629D03*
X41871Y-40629D03*
G54D35*
X40590Y-35335D03*
X40590Y-34585D03*
X36496Y-32774D03*
X36496Y-33524D03*
G54D36*
X32553Y-40787D03*
X33053Y-40787D03*
X33553Y-40787D03*
X34053Y-40787D03*
X34553Y-40787D03*
X35053Y-40787D03*
X35553Y-40787D03*
X36053Y-40787D03*
X36553Y-40787D03*
X37053Y-40787D03*
X37053Y-35275D03*
X36553Y-35275D03*
X36053Y-35275D03*
X35553Y-35275D03*
X35053Y-35275D03*
X34553Y-35275D03*
X34053Y-35275D03*
X33553Y-35275D03*
X33053Y-35275D03*
X32553Y-35275D03*
G54D37*
X34803Y-38031D03*
G54D38*
X34803Y-38031D03*
G54D10*
G36*
X27207Y-37062D02*
X27652Y-36616D01*
X28654Y-37618D01*
X28209Y-38064D01*
X27207Y-37062D01*
X27207Y-37062D01*
G37*
G36*
X25675Y-35530D02*
X26121Y-35085D01*
X27123Y-36087D01*
X26677Y-36532D01*
X25675Y-35530D01*
X25675Y-35530D01*
G37*
G54D39*
X30512Y-40196D03*
G54D40*
X28425Y-41476D03*
G54D41*
X28425Y-39113D03*
G54D10*
G36*
X32788Y-33245D02*
X33206Y-32828D01*
X33568Y-33190D01*
X33150Y-33607D01*
X32788Y-33245D01*
X32788Y-33245D01*
G37*
G36*
X32258Y-32715D02*
X32675Y-32297D01*
X33037Y-32660D01*
X32620Y-33077D01*
X32258Y-32715D01*
X32258Y-32715D01*
G37*
G36*
X32277Y-33757D02*
X32694Y-33340D01*
X33056Y-33702D01*
X32639Y-34119D01*
X32277Y-33757D01*
X32277Y-33757D01*
G37*
G36*
X31746Y-33226D02*
X32163Y-32809D01*
X32526Y-33171D01*
X32108Y-33589D01*
X31746Y-33226D01*
X31746Y-33226D01*
G37*
G54D42*
X36574Y-35925D03*
X37007Y-33858D03*
X36377Y-39960D03*
X36889Y-41496D03*
X36614Y-40157D03*
X28228Y-38346D03*
X36574Y-41417D03*
X36338Y-34173D03*
X39724Y-30905D03*
X34212Y-27755D03*
X26574Y-30275D03*
X26653Y-31574D03*
X42322Y-40629D03*
X41338Y-34566D03*
X28838Y-36102D03*
X28779Y-25826D03*
X36259Y-25590D03*
X37480Y-26574D03*
X40236Y-27362D03*
X40590Y-27362D03*
X40236Y-27047D03*
X32795Y-31811D03*
X31574Y-32992D03*
X29527Y-29960D03*
X28366Y-33267D03*
X31574Y-29842D03*
X39606Y-37992D03*
X26574Y-39685D03*
X40275Y-40433D03*
X40787Y-38976D03*
X40472Y-39685D03*
X26377Y-33070D03*
X36259Y-41633D03*
X26141Y-33385D03*
X29133Y-38149D03*
X33641Y-41692D03*
X27716Y-32677D03*
X26929Y-33208D03*
X26181Y-33838D03*
X25866Y-32755D03*
X34823Y-34488D03*
X35039Y-34488D03*
X35039Y-34173D03*
X32165Y-32401D03*
X33622Y-42047D03*
X33897Y-34488D03*
X31811Y-32755D03*
X24724Y-38110D03*
X39921Y-40787D03*
X40787Y-38031D03*
X33346Y-24881D03*
X28208Y-29625D03*
X27106Y-25118D03*
X30059Y-29586D03*
X29724Y-29685D03*
X32263Y-27972D03*
X31318Y-29606D03*
X31437Y-28405D03*
X31751Y-28248D03*
X28031Y-36535D03*
X27874Y-36181D03*
X25944Y-24881D03*
X26062Y-25236D03*
X26574Y-25708D03*
X29566Y-32874D03*
X33543Y-34527D03*
X33779Y-33937D03*
X25866Y-40078D03*
X39606Y-38346D03*
X41574Y-34842D03*
X38937Y-30118D03*
X31850Y-41122D03*
X31889Y-35590D03*
X31889Y-35905D03*
X32204Y-41062D03*
X26889Y-24468D03*
X28740Y-28799D03*
X31377Y-35000D03*
X31496Y-35590D03*
X31102Y-36023D03*
X31102Y-36417D03*
X31102Y-36811D03*
X31102Y-37598D03*
X31102Y-37204D03*
X30708Y-37598D03*
X30708Y-36811D03*
X30708Y-36417D03*
X30708Y-37204D03*
X30708Y-37992D03*
X33622Y-27992D03*
X25885Y-36102D03*
X27007Y-34291D03*
X30708Y-31653D03*
X30452Y-31082D03*
X25866Y-26062D03*
X26299Y-27480D03*
X27125Y-27086D03*
X31102Y-38779D03*
X30708Y-38385D03*
X31102Y-38385D03*
X32027Y-41417D03*
X37440Y-41082D03*
X39074Y-38877D03*
X38681Y-38779D03*
X38681Y-36023D03*
X37559Y-35275D03*
X38228Y-34330D03*
X35236Y-32362D03*
X37007Y-32598D03*
X37598Y-24488D03*
X37440Y-25748D03*
X38937Y-27244D03*
X40905Y-27834D03*
X38582Y-28149D03*
X40905Y-28228D03*
X41614Y-28031D03*
X42125Y-27519D03*
X38287Y-36023D03*
X38681Y-36417D03*
X38287Y-36417D03*
X38681Y-36811D03*
X38287Y-36811D03*
X38681Y-38385D03*
X38287Y-38779D03*
X38681Y-37992D03*
X38681Y-37204D03*
X38681Y-37598D03*
X30413Y-37401D03*
X30413Y-37795D03*
X30413Y-37007D03*
X31122Y-38011D03*
X37421Y-40531D03*
X37559Y-40787D03*
X37362Y-35551D03*
X37401Y-34960D03*
X26850Y-29921D03*
X32480Y-32086D03*
X31299Y-33267D03*
X29094Y-30393D03*
X28011Y-32933D03*
X32322Y-29173D03*
X28484Y-24566D03*
G54D43*
X36553Y-35275D02*
X36553Y-35903D01*
X36553Y-35903D02*
X36574Y-35925D01*
X37065Y-34330D02*
X37007Y-34272D01*
X37007Y-34272D02*
X37007Y-33858D01*
X36553Y-40787D02*
X36553Y-40135D01*
X36553Y-40135D02*
X36377Y-39960D01*
X36553Y-40787D02*
X36553Y-41159D01*
X36553Y-41159D02*
X36889Y-41496D01*
X36553Y-40787D02*
X36553Y-40218D01*
X36553Y-40218D02*
X36614Y-40157D01*
X28228Y-37637D02*
X28228Y-38346D01*
X27931Y-37340D02*
X28228Y-37637D01*
X36553Y-41395D02*
X36553Y-40787D01*
X36574Y-41417D02*
X36553Y-41395D01*
G54D44*
X37065Y-34330D02*
X37065Y-34115D01*
X42204Y-32783D02*
X42704Y-32283D01*
X42204Y-33582D02*
X42204Y-32783D01*
X41968Y-33818D02*
X42204Y-33582D01*
X37362Y-33818D02*
X41968Y-33818D01*
X37065Y-34115D02*
X37362Y-33818D01*
G54D45*
X36553Y-34431D02*
X36553Y-34387D01*
X36553Y-34387D02*
X36338Y-34173D01*
X36553Y-35275D02*
X36553Y-34431D01*
X36653Y-34330D02*
X37065Y-34330D01*
X36553Y-34431D02*
X36653Y-34330D01*
G54D46*
X39587Y-31042D02*
X39724Y-30905D01*
X39212Y-31042D02*
X39587Y-31042D01*
X34251Y-27795D02*
X34212Y-27755D01*
X34251Y-27795D02*
X34664Y-27795D01*
X26162Y-30708D02*
X26162Y-30687D01*
X26162Y-30687D02*
X26574Y-30275D01*
X26142Y-31633D02*
X26594Y-31633D01*
X26594Y-31633D02*
X26653Y-31574D01*
X41871Y-40629D02*
X42322Y-40629D01*
X40609Y-34566D02*
X41338Y-34566D01*
X40609Y-34566D02*
X40590Y-34585D01*
X36949Y-26574D02*
X36931Y-26593D01*
X37480Y-26574D02*
X36949Y-26574D01*
G54D47*
X32795Y-31811D02*
X32548Y-31564D01*
X32548Y-31564D02*
X32548Y-31270D01*
X31574Y-32992D02*
X31328Y-32745D01*
X31328Y-32745D02*
X31328Y-32490D01*
X31574Y-29842D02*
X31406Y-30010D01*
X31406Y-30010D02*
X31406Y-30325D01*
X29527Y-29960D02*
X29162Y-29595D01*
X29162Y-29595D02*
X29162Y-29498D01*
X28366Y-33267D02*
X28593Y-33040D01*
X28593Y-33040D02*
X28808Y-33040D01*
X31574Y-29921D02*
X31721Y-30068D01*
X31721Y-30068D02*
X32057Y-30068D01*
X31574Y-29921D02*
X31574Y-29921D01*
X31574Y-29842D02*
X31574Y-29921D01*
G54D46*
X40944Y-40000D02*
X41121Y-40176D01*
X41121Y-40176D02*
X41121Y-40629D01*
X39606Y-37992D02*
X40196Y-38582D01*
X40196Y-38582D02*
X40196Y-39763D01*
X40196Y-39763D02*
X40433Y-40000D01*
X40433Y-40000D02*
X40944Y-40000D01*
X41121Y-40629D02*
X41121Y-40727D01*
X41708Y-41314D02*
X41708Y-41704D01*
X41121Y-40727D02*
X41708Y-41314D01*
X40590Y-35335D02*
X40590Y-35366D01*
X40590Y-35366D02*
X41704Y-36480D01*
X26551Y-39708D02*
X25224Y-39708D01*
X26574Y-39685D02*
X26551Y-39708D01*
X40275Y-40433D02*
X40393Y-40551D01*
X40393Y-41019D02*
X39708Y-41704D01*
X40393Y-40551D02*
X40393Y-41019D01*
X41283Y-38480D02*
X41704Y-38480D01*
X40787Y-38976D02*
X41283Y-38480D01*
X41299Y-39921D02*
X41062Y-39685D01*
X41062Y-39685D02*
X40472Y-39685D01*
X42708Y-41704D02*
X42708Y-40464D01*
X42165Y-39921D02*
X41299Y-39921D01*
X42708Y-40464D02*
X42165Y-39921D01*
X29803Y-37913D02*
X31791Y-39901D01*
X29803Y-36377D02*
X29803Y-37913D01*
X27204Y-33779D02*
X29803Y-36377D01*
X27204Y-33070D02*
X27204Y-33779D01*
X27047Y-32913D02*
X27204Y-33070D01*
X26535Y-32913D02*
X27047Y-32913D01*
X26377Y-33070D02*
X26535Y-32913D01*
X36053Y-40787D02*
X36053Y-40482D01*
X36053Y-40482D02*
X35472Y-39901D01*
X35472Y-39901D02*
X31791Y-39901D01*
X36053Y-41427D02*
X36053Y-40787D01*
X36259Y-41633D02*
X36053Y-41427D01*
X26141Y-33385D02*
X26535Y-33779D01*
X26535Y-33779D02*
X26535Y-34251D01*
X26535Y-34251D02*
X26535Y-34261D01*
X26535Y-34261D02*
X28447Y-36173D01*
X28447Y-36173D02*
X28447Y-36911D01*
X28447Y-36911D02*
X29133Y-37598D01*
X29133Y-37598D02*
X29133Y-38149D01*
X33553Y-40787D02*
X33553Y-41604D01*
X33553Y-41604D02*
X33641Y-41692D01*
X29380Y-33582D02*
X32374Y-30588D01*
X36053Y-32559D02*
X36053Y-33524D01*
X34082Y-30588D02*
X36053Y-32559D01*
X32374Y-30588D02*
X34082Y-30588D01*
X29380Y-33582D02*
X28267Y-33582D01*
G54D47*
X36496Y-33524D02*
X36053Y-33524D01*
X36062Y-33543D02*
X36053Y-33543D01*
X36053Y-33524D02*
X36062Y-33534D01*
X36062Y-33534D02*
X36062Y-33543D01*
G54D46*
X36053Y-33543D02*
X36053Y-35275D01*
X27716Y-33031D02*
X28267Y-33582D01*
X27716Y-32677D02*
X27716Y-33031D01*
X29625Y-37962D02*
X31725Y-40061D01*
X29625Y-36496D02*
X29625Y-37962D01*
X26692Y-33562D02*
X29625Y-36496D01*
X26692Y-33444D02*
X26692Y-33562D01*
X26929Y-33208D02*
X26692Y-33444D01*
X35553Y-40787D02*
X35553Y-40208D01*
X35406Y-40061D02*
X31725Y-40061D01*
X35553Y-40208D02*
X35406Y-40061D01*
X34053Y-40787D02*
X34053Y-41970D01*
X34053Y-41970D02*
X33700Y-42322D01*
X33307Y-42322D02*
X33070Y-42086D01*
X33700Y-42322D02*
X33307Y-42322D01*
X30984Y-42086D02*
X33070Y-42086D01*
X26181Y-33838D02*
X26181Y-34133D01*
X26181Y-34133D02*
X28287Y-36240D01*
X28287Y-36240D02*
X28287Y-37007D01*
X28287Y-37007D02*
X28858Y-37578D01*
X28858Y-37578D02*
X28858Y-38267D01*
X28858Y-38267D02*
X29468Y-38877D01*
X29468Y-38877D02*
X29468Y-40570D01*
X29468Y-40570D02*
X30984Y-42086D01*
X29436Y-33752D02*
X32440Y-30748D01*
X35553Y-32285D02*
X35553Y-35275D01*
X34015Y-30748D02*
X35553Y-32285D01*
X32440Y-30748D02*
X34015Y-30748D01*
X29436Y-33752D02*
X28197Y-33752D01*
X25866Y-32755D02*
X26052Y-32570D01*
X27440Y-32996D02*
X28197Y-33752D01*
X27440Y-32637D02*
X27440Y-32996D01*
X27373Y-32570D02*
X27440Y-32637D01*
X26052Y-32570D02*
X27373Y-32570D01*
G54D45*
X35053Y-40787D02*
X35053Y-41234D01*
X36000Y-41929D02*
X36748Y-42677D01*
X35748Y-41929D02*
X36000Y-41929D01*
X35053Y-41234D02*
X35748Y-41929D01*
X34553Y-40787D02*
X34553Y-41271D01*
X35748Y-42466D02*
X35748Y-42677D01*
X34553Y-41271D02*
X35748Y-42466D01*
X35039Y-34488D02*
X34823Y-34488D01*
X35053Y-35275D02*
X35039Y-35261D01*
X35039Y-35261D02*
X35039Y-34488D01*
X35053Y-35275D02*
X35053Y-34187D01*
X35053Y-34187D02*
X35039Y-34173D01*
G54D46*
X32165Y-32401D02*
X32451Y-32687D01*
X32451Y-32687D02*
X32648Y-32687D01*
X33563Y-42047D02*
X33170Y-41653D01*
X33622Y-42047D02*
X33563Y-42047D01*
X33178Y-33217D02*
X33425Y-33464D01*
X33425Y-34015D02*
X33897Y-34488D01*
X33425Y-33464D02*
X33425Y-34015D01*
G54D45*
X33053Y-40787D02*
X33053Y-41536D01*
X33053Y-41536D02*
X33170Y-41653D01*
G54D46*
X31811Y-32755D02*
X32136Y-33081D01*
X32136Y-33081D02*
X32136Y-33199D01*
X32666Y-33729D02*
X32666Y-34428D01*
X32677Y-34330D02*
X32677Y-34428D01*
X32677Y-34417D02*
X32677Y-34330D01*
X32666Y-34428D02*
X32677Y-34417D01*
G54D45*
X33053Y-35275D02*
X33053Y-34466D01*
X33014Y-34428D02*
X32677Y-34428D01*
X32677Y-34428D02*
X31889Y-34428D01*
X33053Y-34466D02*
X33014Y-34428D01*
G54D46*
X24724Y-40208D02*
X24224Y-40708D01*
X24724Y-38110D02*
X24724Y-40208D01*
X39448Y-41062D02*
X39251Y-41259D01*
X39645Y-41062D02*
X39448Y-41062D01*
X39921Y-40787D02*
X39645Y-41062D01*
X40248Y-42244D02*
X40708Y-42704D01*
X39251Y-41259D02*
X39251Y-41929D01*
X39251Y-41929D02*
X39566Y-42244D01*
X39566Y-42244D02*
X40248Y-42244D01*
X42153Y-38031D02*
X42704Y-37480D01*
X40787Y-38031D02*
X42153Y-38031D01*
X31700Y-25600D02*
X31700Y-25504D01*
X31700Y-25504D02*
X32322Y-24881D01*
X32322Y-24881D02*
X33346Y-24881D01*
X28208Y-29625D02*
X28090Y-29625D01*
X28090Y-29625D02*
X27745Y-29971D01*
X28166Y-29271D02*
X28166Y-29584D01*
X28166Y-29584D02*
X28208Y-29625D01*
X28166Y-26178D02*
X28166Y-29271D01*
X27106Y-25118D02*
X28166Y-26178D01*
X35414Y-28582D02*
X36929Y-28582D01*
X40459Y-25052D02*
X40459Y-24051D01*
X36929Y-28582D02*
X40459Y-25052D01*
X30059Y-29586D02*
X30059Y-28956D01*
X31289Y-27726D02*
X33828Y-27726D01*
X30059Y-28956D02*
X31289Y-27726D01*
X34664Y-28562D02*
X34664Y-28582D01*
X33828Y-27726D02*
X34664Y-28562D01*
X29724Y-29685D02*
X29724Y-29065D01*
X31225Y-27564D02*
X33963Y-27564D01*
X29724Y-29065D02*
X31225Y-27564D01*
X34030Y-27564D02*
X33963Y-27564D01*
X34408Y-27186D02*
X35413Y-27186D01*
X34030Y-27564D02*
X34408Y-27186D01*
X35414Y-27795D02*
X35414Y-27186D01*
X35413Y-27186D02*
X35413Y-27186D01*
X35414Y-27186D02*
X35413Y-27186D01*
X36435Y-27459D02*
X36931Y-27459D01*
X36162Y-27186D02*
X36435Y-27459D01*
X35413Y-27186D02*
X36162Y-27186D01*
X32700Y-26600D02*
X33344Y-27244D01*
X33344Y-27244D02*
X33897Y-27244D01*
X33897Y-27244D02*
X34982Y-26159D01*
X34982Y-26159D02*
X36931Y-26159D01*
X33700Y-26600D02*
X35007Y-25293D01*
X35007Y-25293D02*
X36931Y-25293D01*
X32700Y-25600D02*
X32244Y-26055D01*
X34342Y-27026D02*
X36931Y-27026D01*
X33963Y-27404D02*
X34342Y-27026D01*
X32640Y-27404D02*
X33963Y-27404D01*
X32244Y-27007D02*
X32640Y-27404D01*
X32244Y-26055D02*
X32244Y-27007D01*
X31021Y-28976D02*
X31021Y-28221D01*
X31021Y-28221D02*
X31355Y-27886D01*
X31021Y-28976D02*
X31021Y-28978D01*
X28838Y-31161D02*
X25412Y-31161D01*
X31021Y-28978D02*
X28838Y-31161D01*
X25412Y-30708D02*
X25412Y-31161D01*
X25393Y-31141D02*
X25393Y-31161D01*
X25412Y-31161D02*
X25393Y-31142D01*
X25393Y-31142D02*
X25393Y-31141D01*
X32263Y-27972D02*
X32177Y-27886D01*
X24250Y-30372D02*
X24250Y-30250D01*
X25039Y-31161D02*
X24250Y-30372D01*
X25393Y-31161D02*
X25039Y-31161D01*
X31355Y-27886D02*
X31021Y-28221D01*
X32177Y-27886D02*
X31355Y-27886D01*
X31318Y-29606D02*
X31072Y-29606D01*
X26644Y-32410D02*
X25089Y-32410D01*
X27413Y-31641D02*
X26644Y-32410D01*
X29037Y-31641D02*
X27413Y-31641D01*
X31072Y-29606D02*
X29037Y-31641D01*
X25089Y-32410D02*
X24250Y-33250D01*
X31437Y-28405D02*
X31437Y-29015D01*
X26578Y-32250D02*
X24250Y-32250D01*
X27347Y-31481D02*
X26578Y-32250D01*
X28971Y-31481D02*
X27347Y-31481D01*
X31437Y-29015D02*
X28971Y-31481D01*
X31181Y-28287D02*
X31181Y-29045D01*
X27280Y-31321D02*
X26512Y-32089D01*
X28904Y-31321D02*
X27280Y-31321D01*
X31181Y-29045D02*
X28904Y-31321D01*
X31318Y-28149D02*
X31181Y-28287D01*
X31653Y-28149D02*
X31318Y-28149D01*
X31751Y-28248D02*
X31653Y-28149D01*
X25392Y-31633D02*
X25392Y-32089D01*
X25392Y-32089D02*
X25393Y-32089D01*
X25393Y-32089D02*
X25393Y-32066D01*
X25393Y-32066D02*
X25393Y-32089D01*
X24250Y-31375D02*
X24250Y-31250D01*
X24964Y-32089D02*
X24250Y-31375D01*
X26512Y-32089D02*
X25393Y-32089D01*
X25393Y-32089D02*
X24964Y-32089D01*
X24250Y-35250D02*
X24578Y-34921D01*
X24578Y-34921D02*
X26220Y-34921D01*
X26220Y-34921D02*
X27834Y-36535D01*
X27834Y-36535D02*
X28031Y-36535D01*
X24761Y-34761D02*
X24250Y-34250D01*
X26296Y-34761D02*
X24761Y-34761D01*
X27716Y-36181D02*
X26296Y-34761D01*
X27874Y-36181D02*
X27716Y-36181D01*
G54D47*
X25362Y-24988D02*
X25838Y-24988D01*
X25838Y-24988D02*
X25944Y-24881D01*
G54D46*
X26062Y-25236D02*
X25369Y-25236D01*
X25369Y-25236D02*
X25362Y-25244D01*
X26574Y-25708D02*
X26366Y-25500D01*
X26366Y-25500D02*
X25362Y-25500D01*
X29566Y-32774D02*
X29871Y-32469D01*
X29566Y-32874D02*
X29566Y-32774D01*
X33553Y-35275D02*
X33553Y-34537D01*
X33553Y-34537D02*
X33543Y-34527D01*
X33779Y-33937D02*
X33858Y-33937D01*
X34053Y-34765D02*
X34053Y-35275D01*
X34212Y-34606D02*
X34053Y-34765D01*
X34212Y-34291D02*
X34212Y-34606D01*
X33858Y-33937D02*
X34212Y-34291D01*
X35118Y-33563D02*
X34553Y-34128D01*
X34553Y-34128D02*
X34553Y-35275D01*
X24224Y-41708D02*
X24724Y-41208D01*
X25748Y-40196D02*
X25866Y-40078D01*
X25078Y-40196D02*
X25748Y-40196D01*
X24724Y-40551D02*
X25078Y-40196D01*
X24724Y-41208D02*
X24724Y-40551D01*
X40708Y-40501D02*
X40708Y-40984D01*
X40036Y-39830D02*
X40708Y-40501D01*
X40036Y-38777D02*
X40036Y-39830D01*
X39606Y-38346D02*
X40036Y-38777D01*
X40708Y-40984D02*
X40826Y-41102D01*
X40826Y-41102D02*
X40984Y-41102D01*
X40984Y-41102D02*
X41220Y-41338D01*
X41220Y-41338D02*
X41220Y-42216D01*
X41220Y-42216D02*
X41708Y-42704D01*
X42165Y-35196D02*
X42165Y-35157D01*
X42165Y-35157D02*
X42208Y-35200D01*
X42704Y-36480D02*
X42208Y-35984D01*
X42208Y-35200D02*
X42208Y-35984D01*
X41574Y-34842D02*
X41850Y-34842D01*
X41850Y-34842D02*
X41850Y-34881D01*
X41850Y-34881D02*
X42165Y-35196D01*
X38385Y-31004D02*
X38385Y-30669D01*
X38385Y-30669D02*
X38937Y-30118D01*
G54D43*
X31850Y-41043D02*
X31850Y-41122D01*
X32106Y-40787D02*
X31850Y-41043D01*
X32553Y-40787D02*
X32106Y-40787D01*
X32553Y-35275D02*
X32238Y-35590D01*
X32238Y-35590D02*
X31889Y-35590D01*
X32244Y-35905D02*
X32553Y-35596D01*
X32244Y-35905D02*
X31889Y-35905D01*
G54D45*
X31889Y-35590D02*
X31889Y-35905D01*
G54D43*
X32553Y-35596D02*
X32553Y-35275D01*
G54D45*
X32277Y-41062D02*
X32204Y-41062D01*
X32277Y-41062D02*
X32553Y-40787D01*
G54D46*
X27364Y-24259D02*
X27099Y-24259D01*
X27099Y-24259D02*
X26889Y-24468D01*
G54D45*
X31889Y-35590D02*
X31496Y-35590D01*
G54D46*
X31102Y-36023D02*
X31102Y-36417D01*
G54D45*
X31889Y-35590D02*
X31889Y-35178D01*
G54D43*
X32553Y-35275D02*
X32455Y-35178D01*
X32455Y-35178D02*
X31889Y-35178D01*
G54D46*
X31102Y-36417D02*
X31102Y-36811D01*
X31102Y-37204D02*
X31102Y-37598D01*
X31102Y-37598D02*
X31102Y-38031D01*
X31102Y-36811D02*
X31102Y-37204D01*
X30708Y-37992D02*
X30708Y-37598D01*
X30708Y-37204D02*
X30708Y-36811D01*
X30708Y-36417D02*
X31102Y-36417D01*
X30708Y-36811D02*
X30708Y-36417D01*
X30708Y-37598D02*
X30708Y-37204D01*
G54D45*
X26179Y-35809D02*
X25885Y-36102D01*
X26179Y-35809D02*
X26399Y-35809D01*
G54D46*
X30708Y-31686D02*
X30708Y-31653D01*
X30708Y-31686D02*
X30410Y-31984D01*
G54D47*
X30649Y-31082D02*
X30452Y-31082D01*
X30649Y-31082D02*
X30876Y-30855D01*
G54D46*
X25815Y-26012D02*
X25362Y-26012D01*
X25866Y-26062D02*
X25815Y-26012D01*
X26279Y-27500D02*
X25950Y-27500D01*
X26299Y-27480D02*
X26279Y-27500D01*
X27364Y-27324D02*
X27364Y-27841D01*
X27125Y-27086D02*
X27364Y-27324D01*
X31102Y-38385D02*
X30708Y-38385D01*
X30708Y-37992D02*
X30708Y-38385D01*
X31102Y-38779D02*
X31102Y-38385D01*
G54D45*
X32184Y-41417D02*
X32027Y-41417D01*
X32184Y-41417D02*
X32420Y-41653D01*
X37145Y-40787D02*
X37440Y-41082D01*
X37145Y-40787D02*
X37053Y-40787D01*
G54D46*
X38976Y-38779D02*
X39074Y-38877D01*
X38681Y-38779D02*
X38976Y-38779D01*
G54D45*
X37559Y-35275D02*
X37053Y-35275D01*
X38228Y-34330D02*
X37815Y-34330D01*
G54D46*
X35118Y-32480D02*
X35236Y-32362D01*
X35118Y-32480D02*
X35118Y-32813D01*
X36831Y-32774D02*
X37007Y-32598D01*
X36831Y-32774D02*
X36496Y-32774D01*
X37598Y-24104D02*
X37545Y-24051D01*
X37598Y-24488D02*
X37598Y-24104D01*
X36953Y-25748D02*
X36931Y-25726D01*
X37440Y-25748D02*
X36953Y-25748D01*
X38287Y-36023D02*
X38681Y-36023D01*
X38681Y-36023D02*
X38681Y-36417D01*
X38681Y-36417D02*
X38287Y-36417D01*
X38681Y-36811D02*
X38287Y-36811D01*
X38681Y-38779D02*
X38287Y-38779D01*
X38681Y-38385D02*
X38681Y-37992D01*
X38681Y-37598D02*
X38681Y-37204D01*
X38681Y-36811D02*
X38681Y-36417D01*
X38681Y-37204D02*
X38681Y-36811D01*
X38681Y-37992D02*
X38681Y-37598D01*
X38681Y-38779D02*
X38681Y-38385D01*
X30413Y-37007D02*
X30413Y-37401D01*
X30708Y-37992D02*
X30610Y-37992D01*
X30610Y-37992D02*
X30413Y-37795D01*
X30413Y-37401D02*
X30413Y-37795D01*
G54D45*
X34803Y-38031D02*
X31102Y-38031D01*
X31102Y-38031D02*
X31141Y-38031D01*
X31141Y-38031D02*
X31122Y-38011D01*
X37165Y-40787D02*
X37053Y-40787D01*
X37165Y-40787D02*
X37421Y-40531D01*
X37053Y-40787D02*
X37559Y-40787D01*
X32420Y-41653D02*
X32553Y-41520D01*
X32553Y-41520D02*
X32553Y-40787D01*
X37053Y-35275D02*
X37086Y-35275D01*
X37086Y-35275D02*
X37362Y-35551D01*
X37086Y-35275D02*
X37401Y-34960D01*
G54D46*
X26850Y-29921D02*
X26850Y-30136D01*
X26850Y-30136D02*
X27215Y-30501D01*
G54D47*
X32480Y-32086D02*
X32194Y-31800D01*
X32194Y-31800D02*
X32018Y-31800D01*
X31299Y-33267D02*
X31052Y-33021D01*
X31052Y-33021D02*
X30797Y-33021D01*
X29094Y-30393D02*
X28729Y-30028D01*
X28729Y-30028D02*
X28632Y-30028D01*
X28011Y-32933D02*
X28278Y-32666D01*
X28278Y-32666D02*
X28278Y-32510D01*
X32322Y-29173D02*
X32322Y-29272D01*
X32322Y-29272D02*
X32587Y-29537D01*
G54D46*
X28484Y-24566D02*
X28326Y-24724D01*
X28326Y-27031D02*
X29136Y-27841D01*
X28326Y-24724D02*
X28326Y-27031D01*
X28792Y-24259D02*
X29136Y-24259D01*
X28484Y-24566D02*
X28792Y-24259D01*
X38385Y-31830D02*
X39174Y-31830D01*
X39174Y-31830D02*
X39212Y-31792D01*
X29341Y-31939D02*
X29826Y-31454D01*
X29826Y-31454D02*
X29826Y-31400D01*
X24919Y-26676D02*
X24353Y-26676D01*
X24353Y-26676D02*
X24250Y-26573D01*
X24919Y-26676D02*
X25222Y-26676D01*
X25222Y-26676D02*
X25443Y-26455D01*
X24919Y-24324D02*
X25140Y-24545D01*
X25140Y-24545D02*
X25443Y-24545D01*
X24250Y-24427D02*
X24353Y-24324D01*
X24353Y-24324D02*
X24919Y-24324D01*
X24152Y-25121D02*
X24250Y-25023D01*
X24250Y-25023D02*
X24250Y-24427D01*
X24152Y-25879D02*
X24152Y-25121D01*
X24250Y-26573D02*
X24152Y-26475D01*
X24152Y-26475D02*
X24152Y-25879D01*
X25350Y-27500D02*
X25443Y-27407D01*
X25443Y-27407D02*
X25443Y-26455D01*
G54D10*
G36*
X40540Y-39415D02*
X40527Y-39410D01*
X40417Y-39409D01*
X40386Y-39422D01*
X40386Y-38582D01*
X40372Y-38509D01*
X40331Y-38448D01*
X40331Y-38448D01*
X39881Y-37998D01*
X39881Y-37937D01*
X39839Y-37836D01*
X39762Y-37759D01*
X39661Y-37717D01*
X39551Y-37717D01*
X39450Y-37758D01*
X39373Y-37836D01*
X39331Y-37937D01*
X39331Y-38046D01*
X39373Y-38147D01*
X39394Y-38169D01*
X39373Y-38190D01*
X39331Y-38291D01*
X39331Y-38400D01*
X39373Y-38502D01*
X39450Y-38579D01*
X39551Y-38621D01*
X39612Y-38621D01*
X39846Y-38855D01*
X39846Y-39830D01*
X39861Y-39902D01*
X39902Y-39964D01*
X40132Y-40194D01*
X40120Y-40199D01*
X40042Y-40277D01*
X40000Y-40378D01*
X40000Y-40487D01*
X40018Y-40529D01*
X39976Y-40512D01*
X39866Y-40512D01*
X39765Y-40554D01*
X39688Y-40631D01*
X39646Y-40732D01*
X39646Y-40793D01*
X39623Y-40816D01*
X39520Y-40816D01*
X39520Y-39656D01*
X39407Y-39384D01*
X39199Y-39175D01*
X38927Y-39062D01*
X38632Y-39062D01*
X38360Y-39174D01*
X38152Y-39383D01*
X38039Y-39655D01*
X38038Y-39949D01*
X38151Y-40222D01*
X38359Y-40430D01*
X38631Y-40543D01*
X38926Y-40543D01*
X39198Y-40431D01*
X39406Y-40223D01*
X39519Y-39951D01*
X39520Y-39656D01*
X39520Y-40816D01*
X37845Y-40816D01*
X37845Y-39595D01*
X31754Y-39595D01*
X29993Y-37834D01*
X29993Y-36377D01*
X29993Y-36377D01*
X29993Y-36377D01*
X29978Y-36305D01*
X29937Y-36243D01*
X29937Y-36243D01*
X29937Y-36243D01*
X28750Y-35056D01*
X28750Y-34105D01*
X31209Y-34105D01*
X31209Y-36349D01*
X37884Y-36349D01*
X37884Y-34043D01*
X40540Y-34043D01*
X40540Y-34179D01*
X40265Y-34179D01*
X40210Y-34202D01*
X40168Y-34244D01*
X40145Y-34299D01*
X40145Y-34359D01*
X40145Y-34871D01*
X40168Y-34926D01*
X40202Y-34960D01*
X40168Y-34994D01*
X40145Y-35049D01*
X40145Y-35109D01*
X40145Y-35621D01*
X40168Y-35676D01*
X40210Y-35718D01*
X40265Y-35741D01*
X40325Y-35741D01*
X40540Y-35741D01*
X40540Y-37908D01*
X40512Y-37976D01*
X40512Y-38085D01*
X40540Y-38154D01*
X40540Y-38853D01*
X40512Y-38921D01*
X40512Y-39030D01*
X40540Y-39099D01*
X40540Y-39415D01*
X40540Y-39415D01*
G37*
G54D47*
X40540Y-39415D02*
X40527Y-39410D01*
X40417Y-39409D01*
X40386Y-39422D01*
X40386Y-38582D01*
X40372Y-38509D01*
X40331Y-38448D01*
X40331Y-38448D01*
X39881Y-37998D01*
X39881Y-37937D01*
X39839Y-37836D01*
X39762Y-37759D01*
X39661Y-37717D01*
X39551Y-37717D01*
X39450Y-37758D01*
X39373Y-37836D01*
X39331Y-37937D01*
X39331Y-38046D01*
X39373Y-38147D01*
X39394Y-38169D01*
X39373Y-38190D01*
X39331Y-38291D01*
X39331Y-38400D01*
X39373Y-38502D01*
X39450Y-38579D01*
X39551Y-38621D01*
X39612Y-38621D01*
X39846Y-38855D01*
X39846Y-39830D01*
X39861Y-39902D01*
X39902Y-39964D01*
X40132Y-40194D01*
X40120Y-40199D01*
X40042Y-40277D01*
X40000Y-40378D01*
X40000Y-40487D01*
X40018Y-40529D01*
X39976Y-40512D01*
X39866Y-40512D01*
X39765Y-40554D01*
X39688Y-40631D01*
X39646Y-40732D01*
X39646Y-40793D01*
X39623Y-40816D01*
X39520Y-40816D01*
X39520Y-39656D01*
X39407Y-39384D01*
X39199Y-39175D01*
X38927Y-39062D01*
X38632Y-39062D01*
X38360Y-39174D01*
X38152Y-39383D01*
X38039Y-39655D01*
X38038Y-39949D01*
X38151Y-40222D01*
X38359Y-40430D01*
X38631Y-40543D01*
X38926Y-40543D01*
X39198Y-40431D01*
X39406Y-40223D01*
X39519Y-39951D01*
X39520Y-39656D01*
X39520Y-40816D01*
X37845Y-40816D01*
X37845Y-39595D01*
X31754Y-39595D01*
X29993Y-37834D01*
X29993Y-36377D01*
X29993Y-36377D01*
X29993Y-36377D01*
X29978Y-36305D01*
X29937Y-36243D01*
X29937Y-36243D01*
X29937Y-36243D01*
X28750Y-35056D01*
X28750Y-34105D01*
X31209Y-34105D01*
X31209Y-36349D01*
X37884Y-36349D01*
X37884Y-34043D01*
X40540Y-34043D01*
X40540Y-34179D01*
X40265Y-34179D01*
X40210Y-34202D01*
X40168Y-34244D01*
X40145Y-34299D01*
X40145Y-34359D01*
X40145Y-34871D01*
X40168Y-34926D01*
X40202Y-34960D01*
X40168Y-34994D01*
X40145Y-35049D01*
X40145Y-35109D01*
X40145Y-35621D01*
X40168Y-35676D01*
X40210Y-35718D01*
X40265Y-35741D01*
X40325Y-35741D01*
X40540Y-35741D01*
X40540Y-37908D01*
X40512Y-37976D01*
X40512Y-38085D01*
X40540Y-38154D01*
X40540Y-38853D01*
X40512Y-38921D01*
X40512Y-39030D01*
X40540Y-39099D01*
X40540Y-39415D01*
M02*
